{
.appVersion = "3192";
.formatVersion = 3;
axes = (
{
name = "Optical size";
tag = opsz;
},
{
name = Weight;
tag = wght;
}
);
customParameters = (
{
name = unicodeRanges;
value = (
0,
1,
2,
3,
5,
31,
32,
33,
35,
36,
38,
45,
60,
62
);
},
{
name = fsType;
value = (
);
},
{
name = "Enforce Compatibility Check";
value = 1;
},
{
name = "Use Typo Metrics";
value = 1;
},
{
name = "Axis Mappings";
value = {
opsz = {
9 = 0;
14 = 75;
24 = 100;
40 = 200;
};
wght = {
100 = 20;
200 = 45;
300 = 70;
400 = 84;
500 = 100;
600 = 120;
700 = 135;
800 = 140;
900 = 150;
1000 = 171;
};
};
},
{
name = "Variable Font Origin";
value = "A6F5E7A4-47EF-4F55-BF18-0ACACB57A720";
}
);
date = "2023-05-04 08:42:08 +0000";
familyName = "DM Sans";
featurePrefixes = (
{
automatic = 1;
code = "languagesystem DFLT dflt;

languagesystem latn dflt;
languagesystem latn AZE;
languagesystem latn CRT;
languagesystem latn KAZ;
languagesystem latn TAT;
languagesystem latn TRK;
languagesystem latn ROM;
languagesystem latn MOL;
languagesystem latn CAT;
";
name = Languagesystems;
}
);
features = (
{
automatic = 1;
code = "feature locl;
feature sups;
feature numr;
feature dnom;
feature frac;
feature ordn;
feature calt;
feature ss01;
feature ss02;
feature ss03;
feature ss04;
feature ss05;
feature ss06;
feature ss07;
feature ss08;
feature case;
";
tag = aalt;
},
{
code = "lookup ccmp_Other_1 {
	@CombiningTopAccents = [acutecomb brevecomb caroncomb circumflexcomb commaturnedabovecomb dieresiscomb dotaccentcomb gravecomb hungarumlautcomb macroncomb ringcomb tildecomb];
	@CombiningNonTopAccents = [cedillacomb ogonekcomb];
	sub [i j]' @CombiningTopAccents by [idotless jdotless];
	sub [i j]' @CombiningNonTopAccents @CombiningTopAccents by [idotless jdotless];
	sub iogonek' @CombiningTopAccents by idotless ogonekcomb;
} ccmp_Other_1;

lookup ccmp_latn_1 {
	sub fi by f i;
	sub fl by f l;
} ccmp_latn_1;

script latn;
lookup ccmp_latn_1;
";
tag = ccmp;
},
{
automatic = 1;
code = "script latn;
language AZE;

glyphs = (
{
glyphname = A;
kernLeft = A;
kernRight = A;
lastChange = "2023-05-19 14:03:36 +0000";
layers = (
{
anchors = (
{
name = bottom;
pos = (314,0);
},
{
name = ogonek;
pos = (667,0);
},
{
name = top;
pos = (438,700);
}
);
layerId = "A390C1A2-E540-434D-BB9E-4BCEE875BA63";
shapes = (
{
closed = 1;
nodes = (
(140,0,l),
(420,609,l),
(424,609,l),
(486,0,l),
(667,0,l),
(581,700,l),
(295,700,l),
(-39,0,l)
);
},
{
closed = 1;
nodes = (
(574,188,l),
(555,320,l),
(171,320,l),
(103,188,l)
);
}
);
width = 716;
},
{
anchors = (
{
name = bottom;
pos = (263,0);
},
{
name = ogonek;
pos = (565,0);
},
{
name = top;
pos = (387,700);
}
);
layerId = "F5F01D5B-AEA3-4AC3-B3D8-92550D1582D7";
shapes = (
{
closed = 1;
nodes = (
(49,0,l),
(376,638,l),
(380,638,l),
(476,0,l),
(565,0,l),
(454,700,l),
(324,700,l),
(-39,0,l)
);
},
{
closed = 1;
nodes = (
(483,219,l),
(471,287,l),
(154,287,l),
(118,219,l)
);
}
);
width = 614;
},
{
anchors = (
{
name = bottom;
pos = (255,0);
},
{
name = ogonek;
pos = (549,0);
},
{
name = top;
pos = (379,700);
}
);
layerId = "3B8883BF-F483-4B97-AC7C-CABF8B821093";
shapes = (
{
closed = 1;
nodes = (
(35,0,l),
(371,654,l),
(375,654,l),
(475,0,l),
(549,0,l),
(436,700,l),
(327,700,l),
(-39,0,l)
);
},
{
closed = 1;
nodes = (
(469,224,l),
(458,282,l),
(152,282,l),
(121,224,l)
);
}
);
width = 598;
},
{
anchors = (
{
name = bottom;
pos = (228,0);
},
{
name = ogonek;
pos = (491,0);
},
{
name = top;
pos = (351,700);
}
);
layerId = "5D382461-81E1-4DF2-8677-8A6F02AD5363";
shapes = (
{
closed = 1;
nodes = (
(-17,0,l),
(346,670,l),
(350,670,l),
(471,0,l),
(491,0,l),
(364,700,l),
(340,700,l),
(-39,0,l)
);
},
{
closed = 1;
nodes = (
(439,256,l),
(434,274,l),
(118,274,l),
(105,256,l)
);
}
);
width = 540;
},
{
anchors = (
{
name = bottom;
pos = (327,0);
},
{
name = ogonek;
pos = (680,0);
},
{
name = top;
pos = (450,700);
}
);
layerId = "1615C59E-33DE-4B88-B2CC-A48C7D56A125";
shapes = (
{
closed = 1;
nodes = (
(153,0,l),
(416,511,l),
(416,511,l),
(499,0,l),
(680,0,l),
(550,700,l),
(352,700,l),
(-26,0,l)
);
},
{
closed = 1;
nodes = (
(580,144,l),
(560,276,l),
(176,276,l),
(109,144,l)
);
}
);
width = 746;
},
{
anchors = (
{
name = bottom;
pos = (287,0);
},
{
name = ogonek;
pos = (589,0);
},
{
name = top;
pos = (410,700);
}
);
layerId = "A6F5E7A4-47EF-4F55-BF18-0ACACB57A720";
shapes = (
{
closed = 1;
nodes = (
(73,0,l),
(392,595,l),
(392,595,l),
(499,0,l),
(589,0,l),
(456,700,l),
(367,700,l),
(-15,0,l)
);
},
{
closed = 1;
nodes = (
(500,180,l),
(488,248,l),
(171,248,l),
(135,180,l)
);
}
);
width = 665;
},
{
anchors = (
{
name = bottom;
pos = (283,0);
},
{
name = ogonek;
pos = (577,0);
},
{
name = top;
pos = (406,700);
}
);
layerId = "2D111E5E-352D-4630-9162-BCEF010D26CF";
shapes = (
{
closed = 1;
nodes = (
(62,0,l),
(391,612,l),
(391,612,l),
(503,0,l),
(577,0,l),
(445,700,l),
(370,700,l),
(-11,0,l)
);
},
{
closed = 1;
nodes = (
(496,197,l),
(485,254,l),
(168,254,l),
(138,197,l)
);
}
);
width = 658;
},
{
anchors = (
{
name = bottom;
pos = (255,0);
},
{
name = ogonek;
pos = (520,0);
},
{
name = top;
pos = (378,700);
}
);
layerId = "EB62C368-BB48-47C0-A466-DA94204A0DE4";
shapes = (
{
closed = 1;
nodes = (
(12,0,l),
(378,678,l),
(378,678,l),
(500,0,l),
(520,0,l),
(393,700,l),
(369,700,l),
(-10,0,l)
);
},
{
closed = 1;
nodes = (
(468,256,l),
(463,274,l),
(147,274,l),
(134,256,l)
);
}
);
width = 601;
},
{
anchors = (
{
name = bottom;
pos = (325,0);
},
{
name = ogonek;
pos = (678,0);
},
{
name = top;
pos = (449,700);
}
);
layerId = "66953C5E-8AEB-4AF5-804F-512B0A9BA4E6";
shapes = (
{
closed = 1;
nodes = (
(151,0,l),
(416,513,l),
(416,513,l),
(497,0,l),
(678,0,l),
(549,700,l),
(348,700,l),
(-28,0,l)
);
},
{
closed = 1;
nodes = (
(574,144,l),
(554,274,l),
(170,274,l),
(103,144,l)
);
}
);
width = 738;
},
{
anchors = (
{
name = bottom;
pos = (257,0);
},
{
name = ogonek;
pos = (522,0);
},
{
name = top;
pos = (381,700);
}
);
layerId = "90D50F69-F6F7-4633-9462-ED0440D3064F";
shapes = (
{
closed = 1;
nodes = (
(14,0,l),
(379,676,l),
(379,676,l),
(501,0,l),
(522,0,l),
(395,700,l),
(371,700,l),
(-8,0,l)
);
},
{
closed = 1;
nodes = (
(470,256,l),
(465,274,l),
(149,274,l),
(136,256,l)
);
}
);
width = 601;
},
{
anchors = (
{
name = bottom;
pos = (282,0);
},
{
name = ogonek;
pos = (576,0);
},
{
name = top;
pos = (406,700);
}
);
layerId = "973C19EE-3504-4BDF-BF6D-4817D3AD4E7D";
shapes = (
{
closed = 1;
nodes = (
(64,0,l),
(391,614,l),
(391,614,l),
(504,0,l),
(576,0,l),
(442,700,l),
(371,700,l),
(-12,0,l)
);
},
{
closed = 1;
nodes = (
(509,186,l),
(499,242,l),
(144,242,l),
(116,186,l)
);
}
);
width = 652;
},
{
anchors = (
{
name = bottom;
pos = (288,0);
},
{
name = ogonek;
pos = (590,0);
},
{
name = top;
pos = (412,700);
}
);
layerId = "8231B9DE-059C-4C71-A8C4-ABDA89A7D05C";
shapes = (
{
closed = 1;
nodes = (
(76,0,l),
(395,601,l),
(395,601,l),
(503,0,l),
(590,0,l),
(457,700,l),
(368,700,l),
(-14,0,l)
);
},
{
closed = 1;
nodes = (
(518,180,l),
(507,246,l),
(148,246,l),
(114,180,l)
);
}
);
width = 664;
}
);
unicode = 65;
userData = {
com.schriftgestaltung.Glyphs.ColorIndex = 4;
com.typesupply.AccentFactory.yCoordinates = {
bottom = {
name = origin;
type = glyphMetric;
};
top = {
name = capHeight;
type = fontInfo;
};
};
};
},
{
glyphname = AE;
kernLeft = AE;
kernRight = E;
lastChange = "2023-05-19 14:03:36 +0000";
layers = (
{
anchors = (
{
name = bottom;
pos = (524,0);
},
{
name = top;
pos = (648,700);
}
);
layerId = "A390C1A2-E540-434D-BB9E-4BCEE875BA63";
shapes = (
{
closed = 1;
nodes = (
(146,0,l),
(534,573,l),
(538,573,l),
(437,0,l),
(861,0,l),
(885,135,l),
(632,135,l),
(660,293,l),
(883,293,l),
(906,423,l),
(683,423,l),
(708,565,l),
(961,565,l),
(985,700,l),
(444,700,l),
(-39,0,l)
);
},
{
closed = 1;
nodes = (
(567,144,l),
(547,276,l),
(163,276,l),
(96,144,l)
);
}
);
width = 935;
},
{
anchors = (
{
name = bottom;
pos = (457,0);
},
{
name = top;
pos = (581,700);
}
);
layerId = "F5F01D5B-AEA3-4AC3-B3D8-92550D1582D7";
shapes = (
{
closed = 1;
nodes = (
(53,0,l),
(520,633,l),
(524,633,l),
(412,0,l),
(785,0,l),
(797,67,l),
(508,67,l),
(553,320,l),
(812,320,l),
(823,386,l),
(564,386,l),
(608,633,l),
(897,633,l),
(909,700,l),
(484,700,l),
(-39,0,l)
);
},
{
closed = 1;
nodes = (
(523,219,l),
(511,287,l),
(194,287,l),
(158,219,l)
);
}
);
width = 859;
},
{
anchors = (
{
name = bottom;
pos = (398,0);
},
{
name = top;
pos = (569,700);
}
);
layerId = "3B8883BF-F483-4B97-AC7C-CABF8B821093";
shapes = (
{
closed = 1;
nodes = (
(38,0,l),
(518,644,l),
(522,644,l),
(408,0,l),
(773,0,l),
(783,56,l),
(488,56,l),
(535,324,l),
(800,324,l),
(810,380,l),
(545,380,l),
(592,644,l),
(887,644,l),
(897,700,l),
(491,700,l),
(-39,0,l)
);
},
{
closed = 1;
nodes = (
(509,224,l),
(498,282,l),
(192,282,l),
(161,224,l)
);
}
);
width = 847;
},
{
anchors = (
{
name = bottom;
pos = (506,0);
},
{
name = top;
pos = (532,700);
}
);
layerId = "5D382461-81E1-4DF2-8677-8A6F02AD5363";
shapes = (
{
closed = 1;
nodes = (
(-14,0,l),
(515,682,l),
(519,682,l),
(398,0,l),
(733,0,l),
(736,18,l),
(421,18,l),
(478,340,l),
(763,340,l),
(766,358,l),
(481,358,l),
(539,682,l),
(854,682,l),
(857,700,l),
(505,700,l),
(-39,0,l)
);
},
{
closed = 1;
nodes = (
(451,256,l),
(455,274,l),
(189,274,l),
(176,256,l)
);
}
);
width = 807;
},
{
anchors = (
{
name = bottom;
pos = (500,0);
},
{
name = top;
pos = (656,700);
}
);
layerId = "1615C59E-33DE-4B88-B2CC-A48C7D56A125";
shapes = (
{
closed = 1;
nodes = (
(159,0,l),
(551,573,l),
(551,573,l),
(450,0,l),
(874,0,l),
(898,135,l),
(645,135,l),
(673,293,l),
(896,293,l),
(919,423,l),
(696,423,l),
(721,565,l),
(974,565,l),
(998,700,l),
(457,700,l),
(-26,0,l)
);
},
{
closed = 1;
nodes = (
(553,118,l),
(576,248,l),
(238,248,l),
(143,118,l)
);
}
);
width = 976;
},
{
anchors = (
{
name = bottom;
pos = (412,0);
},
{
name = top;
pos = (603,700);
}
);
layerId = "A6F5E7A4-47EF-4F55-BF18-0ACACB57A720";
shapes = (
{
closed = 1;
nodes = (
(77,0,l),
(548,631,l),
(548,631,l),
(436,0,l),
(809,0,l),
(821,67,l),
(532,67,l),
(577,320,l),
(836,320,l),
(847,386,l),
(588,386,l),
(632,633,l),
(921,633,l),
(933,700,l),
(508,700,l),
(-15,0,l)
);
},
{
closed = 1;
nodes = (
(503,159,l),
(515,226,l),
(196,226,l),
(149,159,l)
);
}
);
width = 915;
},
{
anchors = (
{
name = bottom;
pos = (409,0);
},
{
name = top;
pos = (596,700);
}
);
layerId = "2D111E5E-352D-4630-9162-BCEF010D26CF";
shapes = (
{
closed = 1;
nodes = (
(66,0,l),
(549,640,l),
(549,640,l),
(436,0,l),
(801,0,l),
(811,56,l),
(516,56,l),
(563,324,l),
(828,324,l),
(838,380,l),
(573,380,l),
(620,644,l),
(915,644,l),
(925,700,l),
(519,700,l),
(-11,0,l)
);
},
{
closed = 1;
nodes = (
(498,166,l),
(508,223,l),
(192,223,l),
(153,166,l)
);
}
);
width = 909;
},
{
anchors = (
{
name = bottom;
pos = (387,0);
},
{
name = top;
pos = (560,700);
}
);
layerId = "EB62C368-BB48-47C0-A466-DA94204A0DE4";
shapes = (
{
closed = 1;
nodes = (
(14,0,l),
(544,670,l),
(544,670,l),
(426,0,l),
(761,0,l),
(764,18,l),
(449,18,l),
(506,340,l),
(791,340,l),
(794,358,l),
(509,358,l),
(567,682,l),
(882,682,l),
(885,700,l),
(543,700,l),
(-10,0,l)
);
},
{
closed = 1;
nodes = (
(467,189,l),
(470,207,l),
(165,207,l),
(154,189,l)
);
}
);
width = 865;
},
{
anchors = (
{
name = bottom;
pos = (451,0);
},
{
name = top;
pos = (655,700);
}
);
layerId = "66953C5E-8AEB-4AF5-804F-512B0A9BA4E6";
shapes = (
{
closed = 1;
nodes = (
(158,0,l),
(549,573,l),
(549,573,l),
(448,0,l),
(872,0,l),
(896,135,l),
(643,135,l),
(671,293,l),
(895,293,l),
(917,423,l),
(693,423,l),
(719,565,l),
(972,565,l),
(996,700,l),
(456,700,l),
(-28,0,l)
);
},
{
closed = 1;
nodes = (
(550,118,l),
(574,248,l),
(237,248,l),
(140,118,l)
);
}
);
width = 966;
},
{
anchors = (
{
name = bottom;
pos = (533,0);
},
{
name = top;
pos = (560,700);
}
);
layerId = "90D50F69-F6F7-4633-9462-ED0440D3064F";
shapes = (
{
closed = 1;
nodes = (
(16,0,l),
(543,668,l),
(543,668,l),
(425,0,l),
(760,0,l),
(763,18,l),
(448,18,l),
(505,340,l),
(790,340,l),
(793,358,l),
(508,358,l),
(566,682,l),
(881,682,l),
(884,700,l),
(544,700,l),
(-8,0,l)
);
},
{
closed = 1;
nodes = (
(478,256,l),
(482,274,l),
(216,274,l),
(203,256,l)
);
}
);
width = 861;
},
{
anchors = (
{
name = bottom;
pos = (410,0);
},
{
name = top;
pos = (596,700);
}
);
layerId = "973C19EE-3504-4BDF-BF6D-4817D3AD4E7D";
shapes = (
{
closed = 1;
nodes = (
(65,0,l),
(549,640,l),
(549,640,l),
(435,0,l),
(800,0,l),
(810,56,l),
(516,56,l),
(563,324,l),
(828,324,l),
(837,380,l),
(572,380,l),
(619,644,l),
(914,644,l),
(924,700,l),
(518,700,l),
(-12,0,l)
);
},
{
closed = 1;
nodes = (
(496,166,l),
(506,222,l),
(191,222,l),
(152,166,l)
);
}
);
width = 902;
},
{
anchors = (
{
name = bottom;
pos = (428,0);
},
{
name = top;
pos = (603,700);
}
);
layerId = "8231B9DE-059C-4C71-A8C4-ABDA89A7D05C";
shapes = (
{
closed = 1;
nodes = (
(78,0,l),
(549,631,l),
(549,631,l),
(437,0,l),
(810,0,l),
(822,67,l),
(534,67,l),
(578,320,l),
(837,320,l),
(848,386,l),
(589,386,l),
(633,633,l),
(922,633,l),
(934,700,l),
(509,700,l),
(-14,0,l)
);
},
{
closed = 1;
nodes = (
(503,159,l),
(515,226,l),
(197,226,l),
(150,159,l)
);
}
);
width = 911;
}
);
metricLeft = A;
metricRight = E;
unicode = 198;
userData = {
com.schriftgestaltung.Glyphs.ColorIndex = 4;
com.typemytype.robofont.layerData = {
b = {
anchors = (
);
components = (
);
contours = (
{
points = (
{
segmentType = line;
smooth = 0;
x = 138;
y = 183;
},
{
segmentType = line;
smooth = 0;
x = 449;
y = 183;
},
{
segmentType = line;
smooth = 0;
x = 449;
y = 202;
},
{
segmentType = line;
smooth = 0;
x = 149;
y = 202;
}
);
},
{
points = (
{
segmentType = line;
smooth = 0;
x = 757;
y = 663;
},
{
segmentType = line;
smooth = 0;
x = 757;
y = 683;
},
{
segmentType = line;
smooth = 0;
x = 442;
y = 683;
},
{
segmentType = line;
smooth = 0;
x = 11;
y = 0;
},
{
segmentType = line;
smooth = 0;
x = 32;
y = 0;
},
{
segmentType = line;
smooth = 0;
x = 443;
y = 658;
},
{
segmentType = line;
smooth = 0;
x = 443;
y = 0;
},
{
segmentType = line;
smooth = 0;
x = 757;
y = 0;
},
{
segmentType = line;
smooth = 0;
x = 757;
y = 19;
},
{
segmentType = line;
smooth = 0;
x = 463;
y = 19;
},
{
segmentType = line;
smooth = 0;
x = 463;
y = 332;
},
{
segmentType = line;
smooth = 0;
x = 727;
y = 332;
},
{
segmentType = line;
smooth = 0;
x = 727;
y = 351;
},
{
segmentType = line;
smooth = 0;
x = 463;
y = 351;
},
{
segmentType = line;
smooth = 0;
x = 463;
y = 663;
}
);
}
);
lib = {
};
name = AE;
unicodes = (
);
width = 837;
};
};
com.typesupply.AccentFactory.yCoordinates = {
bottom = {
name = origin;
type = glyphMetric;
};
top = {
name = capHeight;
type = fontInfo;
};
};
};
},
{
glyphname = B;
kernLeft = H;
lastChange = "2023-05-19 14:03:36 +0000";
layers = (
{
anchors = (
{
name = bottom;
pos = (274,0);
},
{
name = top;
pos = (398,700);
}
);
layerId = "A390C1A2-E540-434D-BB9E-4BCEE875BA63";
shapes = (
{
closed = 1;
nodes = (
(328,0,ls),
(476,0,o),
(575,75,o),
(595,191,cs),
(611,281,o),
(558,360,o),
(459,364,c),
(440,352,l),
(533,358,o),
(618,414,o),
(637,518,cs),
(656,629,o),
(584,700,o),
(441,700,cs),
(125,700,l),
(1,0,l)
);
},
{
closed = 1;
nodes = (
(224,293,l),
(348,293,ls),
(405,293,o),
(435,264,o),
(426,214,cs),
(417,164,o),
(380,138,o),
(323,138,cs),
(197,138,l)
);
},
{
closed = 1;
nodes = (
(272,565,l),
(384,565,ls),
(440,565,o),
(466,539,o),
(458,491,cs),
(449,443,o),
(414,418,o),
(358,418,cs),
(246,418,l)
);
}
);
width = 635;
},
{
anchors = (
{
name = bottom;
pos = (234,0);
},
{
name = top;
pos = (358,700);
}
);
layerId = "F5F01D5B-AEA3-4AC3-B3D8-92550D1582D7";
shapes = (
{
closed = 1;
nodes = (
(255,0,ls),
(402,0,o),
(497,84,o),
(516,191,cs),
(533,287,o),
(470,362,o),
(380,364,c),
(365,354,l),
(450,362,o),
(539,414,o),
(558,522,cs),
(576,622,o),
(518,700,o),
(371,700,cs),
(125,700,l),
(1,0,l)
);
},
{
closed = 1;
nodes = (
(143,327,l),
(302,327,ls),
(396,327,o),
(445,276,o),
(431,197,cs),
(417,117,o),
(354,70,o),
(259,70,cs),
(98,70,l)
);
},
{
closed = 1;
nodes = (
(196,630,l),
(349,630,ls),
(444,630,o),
(483,584,o),
(471,513,cs),
(458,439,o),
(401,394,o),
(311,394,cs),
(155,394,l)
);
}
);
width = 556;
},
{
anchors = (
{
name = bottom;
pos = (228,0);
},
{
name = top;
pos = (352,700);
}
);
layerId = "3B8883BF-F483-4B97-AC7C-CABF8B821093";
shapes = (
{
closed = 1;
nodes = (
(243,0,ls),
(390,0,o),
(484,86,o),
(503,191,cs),
(520,288,o),
(456,362,o),
(367,364,c),
(353,354,l),
(436,363,o),
(526,414,o),
(546,523,cs),
(563,621,o),
(507,700,o),
(360,700,cs),
(125,700,l),
(1,0,l)
);
},
{
closed = 1;
nodes = (
(130,332,l),
(294,332,ls),
(394,332,o),
(446,278,o),
(431,194,cs),
(417,110,o),
(350,59,o),
(249,59,cs),
(82,59,l)
);
},
{
closed = 1;
nodes = (
(184,641,l),
(344,641,ls),
(445,641,o),
(485,591,o),
(472,516,cs),
(459,438,o),
(398,390,o),
(303,390,cs),
(140,390,l)
);
}
);
width = 543;
},
{
anchors = (
{
name = bottom;
pos = (190,0);
},
{
name = top;
pos = (314,700);
}
);
layerId = "5D382461-81E1-4DF2-8677-8A6F02AD5363";
shapes = (
{
closed = 1;
nodes = (
(201,0,ls),
(369,0,o),
(439,93,o),
(456,191,cs),
(474,291,o),
(397,362,o),
(311,364,c),
(310,355,l),
(389,367,o),
(479,414,o),
(499,528,cs),
(515,618,o),
(469,700,o),
(320,700,cs),
(125,700,l),
(1,0,l)
);
},
{
closed = 1;
nodes = (
(83,352,l),
(267,352,ls),
(386,352,o),
(451,285,o),
(434,190,cs),
(415,83,o),
(334,20,o),
(214,20,cs),
(25,20,l)
);
},
{
closed = 1;
nodes = (
(142,682,l),
(318,682,ls),
(453,682,o),
(493,616,o),
(477,528,cs),
(461,435,o),
(387,372,o),
(275,372,cs),
(87,372,l)
);
}
);
width = 496;
},
{
anchors = (
{
name = bottom;
pos = (245,0);
},
{
name = top;
pos = (492,700);
}
);
layerId = "1615C59E-33DE-4B88-B2CC-A48C7D56A125";
shapes = (
{
closed = 1;
nodes = (
(353,0,ls),
(501,0,o),
(600,75,o),
(620,191,cs),
(636,281,o),
(583,360,o),
(484,364,c),
(465,352,l),
(558,358,o),
(643,414,o),
(662,518,cs),
(681,629,o),
(609,700,o),
(466,700,cs),
(150,700,l),
(26,0,l)
);
},
{
closed = 1;
nodes = (
(249,293,l),
(373,293,ls),
(430,293,o),
(460,264,o),
(451,214,cs),
(442,164,o),
(405,138,o),
(348,138,cs),
(222,138,l)
);
},
{
closed = 1;
nodes = (
(297,565,l),
(409,565,ls),
(465,565,o),
(491,539,o),
(483,491,cs),
(474,443,o),
(439,418,o),
(383,418,cs),
(271,418,l)
);
}
);
width = 674;
},
{
anchors = (
{
name = bottom;
pos = (273,0);
},
{
name = top;
pos = (396,700);
}
);
layerId = "A6F5E7A4-47EF-4F55-BF18-0ACACB57A720";
shapes = (
{
closed = 1;
nodes = (
(285,0,ls),
(432,0,o),
(527,84,o),
(546,191,cs),
(563,287,o),
(500,362,o),
(410,364,c),
(395,354,l),
(480,362,o),
(569,414,o),
(588,522,cs),
(606,622,o),
(548,700,o),
(401,700,cs),
(155,700,l),
(31,0,l)
);
},
{
closed = 1;
nodes = (
(173,327,l),
(332,327,ls),
(426,327,o),
(475,276,o),
(461,197,cs),
(447,117,o),
(384,70,o),
(289,70,cs),
(128,70,l)
);
},
{
closed = 1;
nodes = (
(226,630,l),
(379,630,ls),
(474,630,o),
(513,584,o),
(501,513,cs),
(488,439,o),
(431,394,o),
(341,394,cs),
(185,394,l)
);
}
);
width = 607;
},
{
anchors = (
{
name = bottom;
pos = (256,0);
},
{
name = top;
pos = (379,700);
}
);
layerId = "2D111E5E-352D-4630-9162-BCEF010D26CF";
shapes = (
{
closed = 1;
nodes = (
(280,0,ls),
(432,0,o),
(521,86,o),
(540,191,cs),
(557,288,o),
(491,362,o),
(402,364,c),
(390,354,l),
(473,363,o),
(563,414,o),
(583,523,cs),
(600,621,o),
(544,700,o),
(397,700,cs),
(162,700,l),
(38,0,l)
);
},
{
closed = 1;
nodes = (
(167,332,l),
(331,332,ls),
(431,332,o),
(483,278,o),
(469,195,cs),
(454,110,o),
(386,59,o),
(286,59,cs),
(119,59,l)
);
},
{
closed = 1;
nodes = (
(221,641,l),
(381,641,ls),
(479,641,o),
(522,591,o),
(509,516,cs),
(496,438,o),
(435,389,o),
(340,389,cs),
(177,389,l)
);
}
);
width = 604;
},
{
anchors = (
{
name = bottom;
pos = (230,0);
},
{
name = top;
pos = (353,700);
}
);
layerId = "EB62C368-BB48-47C0-A466-DA94204A0DE4";
shapes = (
{
closed = 1;
nodes = (
(232,0,ls),
(400,0,o),
(470,93,o),
(487,191,cs),
(505,291,o),
(428,362,o),
(342,364,c),
(341,355,l),
(420,367,o),
(510,414,o),
(530,528,cs),
(546,618,o),
(500,700,o),
(351,700,cs),
(156,700,l),
(32,0,l)
);
},
{
closed = 1;
nodes = (
(114,352,l),
(298,352,ls),
(417,352,o),
(483,288,o),
(466,193,cs),
(447,86,o),
(364,20,o),
(245,20,cs),
(56,20,l)
);
},
{
closed = 1;
nodes = (
(173,682,l),
(355,682,ls),
(477,682,o),
(525,619,o),
(509,531,cs),
(493,438,o),
(418,370,o),
(288,370,cs),
(118,370,l)
);
}
);
width = 551;
},
{
anchors = (
{
name = bottom;
pos = (289,0);
},
{
name = top;
pos = (413,700);
}
);
layerId = "66953C5E-8AEB-4AF5-804F-512B0A9BA4E6";
shapes = (
{
closed = 1;
nodes = (
(345,0,ls),
(495,0,o),
(615,85,o),
(615,222,cs),
(615,299,o),
(563,360,o),
(477,364,c),
(458,352,l),
(571,359,o),
(657,442,o),
(657,545,cs),
(657,645,o),
(585,700,o),
(458,700,cs),
(142,700,l),
(18,0,l)
);
},
{
closed = 1;
nodes = (
(241,294,l),
(365,294,ls),
(415,294,o),
(444,271,o),
(444,232,cs),
(444,175,o),
(406,136,o),
(339,136,cs),
(213,136,l)
);
},
{
closed = 1;
nodes = (
(289,565,l),
(401,566,ls),
(450,567,o),
(476,546,o),
(476,507,cs),
(476,451,o),
(438,417,o),
(374,417,cs),
(263,417,l)
);
}
);
width = 660;
},
{
anchors = (
{
name = bottom;
pos = (249,0);
},
{
name = top;
pos = (373,700);
}
);
layerId = "90D50F69-F6F7-4633-9462-ED0440D3064F";
shapes = (
{
closed = 1;
nodes = (
(234,0,ls),
(402,0,o),
(472,93,o),
(489,191,cs),
(507,291,o),
(430,362,o),
(344,364,c),
(343,355,l),
(422,367,o),
(512,414,o),
(532,528,cs),
(548,618,o),
(502,700,o),
(353,700,cs),
(158,700,l),
(34,0,l)
);
},
{
closed = 1;
nodes = (
(116,352,l),
(300,352,ls),
(419,352,o),
(484,285,o),
(467,190,cs),
(448,83,o),
(367,20,o),
(247,20,cs),
(58,20,l)
);
},
{
closed = 1;
nodes = (
(175,682,l),
(360,682,ls),
(471,682,o),
(526,616,o),
(510,528,cs),
(494,435,o),
(420,372,o),
(308,372,cs),
(120,372,l)
);
}
);
width = 550;
},
{
anchors = (
{
name = bottom;
pos = (256,0);
},
{
name = top;
pos = (380,700);
}
);
layerId = "973C19EE-3504-4BDF-BF6D-4817D3AD4E7D";
shapes = (
{
closed = 1;
nodes = (
(275,0,ls),
(419,0,o),
(537,91,o),
(537,222,cs),
(537,304,o),
(478,362,o),
(399,364,c),
(385,354,l),
(498,366,o),
(580,440,o),
(580,552,cs),
(580,634,o),
(521,700,o),
(392,700,cs),
(156,700,l),
(33,0,l)
);
},
{
closed = 1;
nodes = (
(161,332,l),
(325,332,ls),
(414,332,o),
(468,290,o),
(468,222,cs),
(468,123,o),
(391,57,o),
(280,57,cs),
(113,57,l)
);
},
{
closed = 1;
nodes = (
(216,644,l),
(376,644,ls),
(465,644,o),
(507,604,o),
(507,542,cs),
(507,450,o),
(437,389,o),
(335,389,cs),
(172,389,l)
);
}
);
width = 594;
},
{
anchors = (
{
name = bottom;
pos = (261,0);
},
{
name = top;
pos = (385,700);
}
);
layerId = "8231B9DE-059C-4C71-A8C4-ABDA89A7D05C";
shapes = (
{
closed = 1;
nodes = (
(285,0,ls),
(430,0,o),
(548,90,o),
(548,222,cs),
(548,303,o),
(490,362,o),
(410,364,c),
(395,354,l),
(508,365,o),
(591,440,o),
(591,551,cs),
(591,636,o),
(530,700,o),
(401,700,cs),
(154,700,l),
(31,0,l)
);
},
{
closed = 1;
nodes = (
(172,327,l),
(331,327,ls),
(414,327,o),
(465,287,o),
(465,223,cs),
(465,130,o),
(393,68,o),
(288,68,cs),
(127,68,l)
);
},
{
closed = 1;
nodes = (
(226,633,l),
(379,633,ls),
(463,633,o),
(503,596,o),
(503,537,cs),
(503,450,o),
(437,393,o),
(340,393,cs),
(185,393,l)
);
}
);
width = 603;
}
);
metricLeft = H;
unicode = 66;
userData = {
com.schriftgestaltung.Glyphs.ColorIndex = 4;
com.typesupply.AccentFactory.yCoordinates = {
bottom = {
name = origin;
type = glyphMetric;
};
top = {
name = capHeight;
type = fontInfo;
};
};
};
},
{
glyphname = C;
kernLeft = O;
kernRight = C;
lastChange = "2023-05-19 14:03:36 +0000";
layers = (
{
anchors = (
{
name = bottom;
pos = (325,0);
},
{
name = top;
pos = (449,700);
}
);
layerId = "A390C1A2-E540-434D-BB9E-4BCEE875BA63";
shapes = (
{
closed = 1;
nodes = (
(510,-12,o),
(648,81,o),
(700,233,c),
(512,233,l),
(487,173,o),
(434,143,o),
(360,143,cs),
(250,143,o),
(204,221,o),
(227,348,cs),
(249,476,o),
(322,556,o),
(432,556,cs),
(506,556,o),
(549,520,o),
(551,454,c),
(739,454,l),
(742,618,o),
(638,712,o),
(462,712,cs),
(246,712,o),
(90,562,o),
(53,348,cs),
(15,135,o),
(118,-12,o),
(334,-12,cs)
);
}
);
width = 738;
},
{
anchors = (
{
name = bottom;
pos = (304,0);
},
{
name = top;
pos = (428,700);
}
);
layerId = "F5F01D5B-AEA3-4AC3-B3D8-92550D1582D7";
shapes = (
{
closed = 1;
nodes = (
(484,-12,o),
(601,68,o),
(653,203,c),
(563,203,l),
(527,119,o),
(449,63,o),
(336,63,cs),
(185,63,o),
(106,165,o),
(138,344,cs),
(169,522,o),
(287,637,o),
(438,637,cs),
(551,637,o),
(606,580,o),
(611,494,c),
(704,494,l),
(701,632,o),
(612,712,o),
(451,712,cs),
(245,712,o),
(91,565,o),
(53,350,cs),
(15,134,o),
(117,-12,o),
(323,-12,cs)
);
}
);
width = 696;
},
{
anchors = (
{
name = bottom;
pos = (301,0);
},
{
name = top;
pos = (425,700);
}
);
layerId = "3B8883BF-F483-4B97-AC7C-CABF8B821093";
shapes = (
{
closed = 1;
nodes = (
(479,-12,o),
(593,66,o),
(645,198,c),
(567,198,l),
(530,109,o),
(451,49,o),
(332,49,cs),
(175,49,o),
(92,162,o),
(125,350,cs),
(158,538,o),
(281,651,o),
(438,651,cs),
(557,651,o),
(614,591,o),
(620,500,c),
(698,500,l),
(693,634,o),
(607,712,o),
(449,712,cs),
(245,712,o),
(91,565,o),
(53,350,cs),
(15,134,o),
(117,-12,o),
(321,-12,cs)
);
}
);
width = 689;
},
{
anchors = (
{
name = bottom;
pos = (298,0);
},
{
name = top;
pos = (422,700);
}
);
layerId = "5D382461-81E1-4DF2-8677-8A6F02AD5363";
shapes = (
{
closed = 1;
nodes = (
(462,-12,o),
(565,58,o),
(617,181,c),
(594,181,l),
(551,80,o),
(458,8,o),
(318,8,cs),
(140,8,o),
(36,136,o),
(74,350,cs),
(112,566,o),
(260,692,o),
(445,692,cs),
(581,692,o),
(646,624,o),
(655,522,c),
(677,522,l),
(667,642,o),
(590,712,o),
(442,712,cs),
(245,712,o),
(91,567,o),
(53,350,cs),
(15,134,o),
(117,-12,o),
(314,-12,cs)
);
}
);
width = 664;
},
{
anchors = (
{
name = bottom;
pos = (332,0);
},
{
name = top;
pos = (456,700);
}
);
layerId = "1615C59E-33DE-4B88-B2CC-A48C7D56A125";
shapes = (
{
closed = 1;
nodes = (
(507,-12,o),
(643,81,o),
(694,233,c),
(510,233,l),
(484,173,o),
(430,143,o),
(359,143,cs),
(256,143,o),
(214,221,o),
(237,348,cs),
(259,476,o),
(328,556,o),
(431,556,cs),
(502,556,o),
(546,520,o),
(549,454,c),
(733,454,l),
(737,618,o),
(635,712,o),
(461,712,cs),
(252,712,o),
(100,562,o),
(63,348,cs),
(25,135,o),
(124,-12,o),
(333,-12,cs)
);
}
);
width = 747;
},
{
anchors = (
{
name = bottom;
pos = (324,0);
},
{
name = top;
pos = (447,700);
}
);
layerId = "A6F5E7A4-47EF-4F55-BF18-0ACACB57A720";
shapes = (
{
closed = 1;
nodes = (
(482,-12,o),
(597,68,o),
(649,203,c),
(558,203,l),
(520,118,o),
(447,62,o),
(336,62,cs),
(192,62,o),
(118,170,o),
(150,350,cs),
(182,529,o),
(294,638,o),
(438,638,cs),
(549,638,o),
(602,580,o),
(609,494,c),
(700,494,l),
(697,632,o),
(610,712,o),
(451,712,cs),
(252,712,o),
(102,565,o),
(64,350,cs),
(26,134,o),
(124,-12,o),
(323,-12,cs)
);
}
);
width = 709;
},
{
anchors = (
{
name = bottom;
pos = (307,0);
},
{
name = top;
pos = (430,700);
}
);
layerId = "2D111E5E-352D-4630-9162-BCEF010D26CF";
shapes = (
{
closed = 1;
nodes = (
(480,-12,o),
(592,66,o),
(643,198,c),
(568,198,l),
(530,109,o),
(451,50,o),
(335,50,cs),
(185,50,o),
(106,162,o),
(139,350,cs),
(172,537,o),
(291,650,o),
(441,650,cs),
(558,650,o),
(613,590,o),
(621,500,c),
(696,500,l),
(692,634,o),
(608,712,o),
(452,712,cs),
(255,712,o),
(105,565,o),
(67,350,cs),
(29,134,o),
(127,-12,o),
(324,-12,cs)
);
}
);
width = 706;
},
{
anchors = (
{
name = bottom;
pos = (291,0);
},
{
name = top;
pos = (414,700);
}
);
layerId = "EB62C368-BB48-47C0-A466-DA94204A0DE4";
shapes = (
{
closed = 1;
nodes = (
(459,-12,o),
(560,58,o),
(612,181,c),
(590,181,l),
(545,79,o),
(455,8,o),
(318,8,cs),
(146,8,o),
(47,135,o),
(85,351,cs),
(123,567,o),
(266,692,o),
(438,692,cs),
(578,692,o),
(639,622,o),
(651,523,c),
(673,523,l),
(662,642,o),
(587,712,o),
(441,712,cs),
(251,712,o),
(101,567,o),
(63,351,cs),
(25,134,o),
(123,-12,o),
(313,-12,cs)
);
}
);
width = 674;
},
{
anchors = (
{
name = bottom;
pos = (342,0);
},
{
name = top;
pos = (469,700);
}
);
layerId = "66953C5E-8AEB-4AF5-804F-512B0A9BA4E6";
shapes = (
{
closed = 1;
nodes = (
(516,-12,o),
(656,77,o),
(710,233,c),
(522,233,l),
(497,173,o),
(447,143,o),
(373,143,cs),
(282,143,o),
(231,197,o),
(231,291,cs),
(231,443,o),
(320,556,o),
(442,556,cs),
(516,556,o),
(559,520,o),
(561,454,c),
(749,454,l),
(752,618,o),
(646,712,o),
(470,712,cs),
(234,712,o),
(55,522,o),
(55,269,cs),
(55,102,o),
(158,-12,o),
(344,-12,cs)
);
}
);
width = 756;
},
{
anchors = (
{
name = bottom;
pos = (300,0);
},
{
name = top;
pos = (424,700);
}
);
layerId = "90D50F69-F6F7-4633-9462-ED0440D3064F";
shapes = (
{
closed = 1;
nodes = (
(474,-12,o),
(577,58,o),
(629,181,c),
(607,181,l),
(564,80,o),
(470,8,o),
(330,8,cs),
(152,8,o),
(49,136,o),
(87,350,cs),
(125,566,o),
(272,692,o),
(450,692,cs),
(593,692,o),
(658,624,o),
(667,522,c),
(689,522,l),
(679,642,o),
(602,712,o),
(454,712,cs),
(257,712,o),
(103,567,o),
(65,350,cs),
(27,134,o),
(129,-12,o),
(326,-12,cs)
);
}
);
width = 688;
},
{
anchors = (
{
name = bottom;
pos = (334,0);
},
{
name = top;
pos = (463,700);
}
);
layerId = "973C19EE-3504-4BDF-BF6D-4817D3AD4E7D";
shapes = (
{
closed = 1;
nodes = (
(495,-12,o),
(608,66,o),
(660,198,c),
(580,198,l),
(544,107,o),
(465,49,o),
(347,49,cs),
(213,49,o),
(133,132,o),
(133,272,cs),
(133,487,o),
(271,651,o),
(453,651,cs),
(571,651,o),
(630,593,o),
(633,500,c),
(713,500,l),
(708,634,o),
(619,712,o),
(462,712,cs),
(234,712,o),
(60,519,o),
(60,268,cs),
(60,100,o),
(162,-12,o),
(338,-12,cs)
);
}
);
width = 717;
},
{
anchors = (
{
name = bottom;
pos = (335,0);
},
{
name = top;
pos = (464,700);
}
);
layerId = "8231B9DE-059C-4C71-A8C4-ABDA89A7D05C";
shapes = (
{
closed = 1;
nodes = (
(498,-12,o),
(615,68,o),
(667,203,c),
(572,203,l),
(537,116,o),
(463,62,o),
(351,62,cs),
(223,62,o),
(147,141,o),
(147,275,cs),
(147,481,o),
(278,638,o),
(451,638,cs),
(563,638,o),
(620,583,o),
(623,494,c),
(718,494,l),
(714,632,o),
(623,712,o),
(463,712,cs),
(234,712,o),
(59,519,o),
(59,268,cs),
(59,100,o),
(161,-12,o),
(339,-12,cs)
);
}
);
width = 722;
}
);
metricLeft = O;
metricRight = O;
unicode = 67;
userData = {
com.schriftgestaltung.Glyphs.ColorIndex = 4;
com.typesupply.AccentFactory.yCoordinates = {
bottom = {
name = origin;
type = glyphMetric;
};
top = {
name = capHeight;
type = fontInfo;
};
};
};
},
{
glyphname = D;
kernLeft = H;
kernRight = O;
lastChange = "2023-05-19 14:03:36 +0000";
layers = (
{
anchors = (
{
name = bottom;
pos = (307,0);
},
{
name = center;
pos = (369,350);
},
{
name = top;
pos = (371,700);
}
);
layerId = "A390C1A2-E540-434D-BB9E-4BCEE875BA63";
shapes = (
{
closed = 1;
nodes = (
(264,0,ls),
(508,0,o),
(648,143,o),
(684,351,cs),
(721,558,o),
(632,700,o),
(388,700,cs),
(125,700,l),
(1,0,l)
);
},
{
closed = 1;
nodes = (
(270,554,l),
(351,554,ls),
(500,554,o),
(533,478,o),
(510,351,cs),
(487,222,o),
(428,148,o),
(279,148,cs),
(198,148,l)
);
}
);
width = 701;
},
{
anchors = (
{
name = bottom;
pos = (284,0);
},
{
name = center;
pos = (346,350);
},
{
name = top;
pos = (368,700);
}
);
layerId = "F5F01D5B-AEA3-4AC3-B3D8-92550D1582D7";
shapes = (
{
closed = 1;
nodes = (
(216,0,ls),
(462,0,o),
(600,133,o),
(638,348,cs),
(676,567,o),
(586,700,o),
(340,700,cs),
(125,700,l),
(1,0,l)
);
},
{
closed = 1;
nodes = (
(196,630,l),
(325,630,ls),
(529,630,o),
(582,523,o),
(551,348,cs),
(520,175,o),
(431,70,o),
(227,70,cs),
(98,70,l)
);
}
);
width = 655;
},
{
anchors = (
{
name = bottom;
pos = (280,0);
},
{
name = center;
pos = (342,350);
},
{
name = top;
pos = (364,700);
}
);
layerId = "3B8883BF-F483-4B97-AC7C-CABF8B821093";
shapes = (
{
closed = 1;
nodes = (
(208,0,ls),
(455,0,o),
(591,131,o),
(630,348,cs),
(668,568,o),
(579,700,o),
(332,700,cs),
(125,700,l),
(1,0,l)
);
},
{
closed = 1;
nodes = (
(184,642,l),
(321,642,ls),
(533,642,o),
(590,530,o),
(558,348,cs),
(526,168,o),
(431,58,o),
(219,58,cs),
(82,58,l)
);
}
);
width = 647;
},
{
anchors = (
{
name = bottom;
pos = (266,0);
},
{
name = center;
pos = (328,350);
},
{
name = top;
pos = (303,700);
}
);
layerId = "5D382461-81E1-4DF2-8677-8A6F02AD5363";
shapes = (
{
closed = 1;
nodes = (
(187,0,ls),
(446,0,o),
(566,148,o),
(601,346,cs),
(641,573,o),
(553,700,o),
(303,700,cs),
(125,700,l),
(1,0,l)
);
},
{
closed = 1;
nodes = (
(142,682,l),
(306,682,ls),
(541,682,o),
(616,552,o),
(579,346,cs),
(543,141,o),
(411,18,o),
(188,18,cs),
(24,18,l)
);
}
);
width = 619;
},
{
anchors = (
{
name = bottom;
pos = (260,0);
},
{
name = center;
pos = (383,350);
},
{
name = top;
pos = (379,700);
}
);
layerId = "1615C59E-33DE-4B88-B2CC-A48C7D56A125";
shapes = (
{
closed = 1;
nodes = (
(255,0,ls),
(497,0,o),
(636,143,o),
(672,351,cs),
(709,558,o),
(621,700,o),
(379,700,cs),
(150,700,l),
(26,0,l)
);
},
{
closed = 1;
nodes = (
(295,554,l),
(342,554,ls),
(489,554,o),
(521,478,o),
(498,351,cs),
(475,222,o),
(417,148,o),
(270,148,cs),
(223,148,l)
);
}
);
width = 704;
},
{
anchors = (
{
name = bottom;
pos = (302,0);
},
{
name = center;
pos = (363,350);
},
{
name = top;
pos = (385,700);
}
);
layerId = "A6F5E7A4-47EF-4F55-BF18-0ACACB57A720";
shapes = (
{
closed = 1;
nodes = (
(211,0,ls),
(455,0,o),
(593,133,o),
(631,348,cs),
(669,567,o),
(579,700,o),
(335,700,cs),
(155,700,l),
(31,0,l)
);
},
{
closed = 1;
nodes = (
(226,630,l),
(320,630,ls),
(522,630,o),
(575,523,o),
(544,348,cs),
(513,175,o),
(424,70,o),
(222,70,cs),
(128,70,l)
);
}
);
width = 665;
},
{
anchors = (
{
name = bottom;
pos = (288,0);
},
{
name = center;
pos = (349,350);
},
{
name = top;
pos = (371,700);
}
);
layerId = "2D111E5E-352D-4630-9162-BCEF010D26CF";
shapes = (
{
closed = 1;
nodes = (
(210,0,ls),
(455,0,o),
(591,131,o),
(630,348,cs),
(668,568,o),
(579,700,o),
(334,700,cs),
(162,700,l),
(38,0,l)
);
},
{
closed = 1;
nodes = (
(221,641,l),
(322,641,ls),
(533,641,o),
(590,529,o),
(558,348,cs),
(526,168,o),
(431,59,o),
(220,59,cs),
(119,59,l)
);
}
);
width = 667;
},
{
anchors = (
{
name = bottom;
pos = (268,0);
},
{
name = center;
pos = (329,350);
},
{
name = top;
pos = (351,700);
}
);
layerId = "EB62C368-BB48-47C0-A466-DA94204A0DE4";
shapes = (
{
closed = 1;
nodes = (
(181,0,ls),
(440,0,o),
(560,148,o),
(595,346,cs),
(635,573,o),
(543,700,o),
(297,700,cs),
(156,700,l),
(32,0,l)
);
},
{
closed = 1;
nodes = (
(173,682,l),
(300,682,ls),
(541,682,o),
(610,552,o),
(573,346,cs),
(537,141,o),
(409,18,o),
(182,18,cs),
(55,18,l)
);
}
);
width = 627;
},
{
anchors = (
{
name = bottom;
pos = (322,0);
},
{
name = center;
pos = (384,350);
},
{
name = top;
pos = (406,700);
}
);
layerId = "66953C5E-8AEB-4AF5-804F-512B0A9BA4E6";
shapes = (
{
closed = 1;
nodes = (
(282,0,ls),
(537,0,o),
(710,170,o),
(710,413,cs),
(710,582,o),
(614,700,o),
(405,700,cs),
(142,700,l),
(19,0,l)
);
},
{
closed = 1;
nodes = (
(288,554,l),
(369,554,ls),
(477,554,o),
(534,505,o),
(534,398,cs),
(534,244,o),
(450,148,o),
(297,148,cs),
(216,148,l)
);
}
);
width = 731;
},
{
anchors = (
{
name = bottom;
pos = (308,0);
},
{
name = center;
pos = (370,350);
},
{
name = top;
pos = (392,700);
}
);
layerId = "90D50F69-F6F7-4633-9462-ED0440D3064F";
shapes = (
{
closed = 1;
nodes = (
(220,0,ls),
(479,0,o),
(599,148,o),
(634,346,cs),
(674,573,o),
(586,700,o),
(336,700,cs),
(158,700,l),
(34,0,l)
);
},
{
closed = 1;
nodes = (
(175,682,l),
(339,682,ls),
(574,682,o),
(649,552,o),
(612,346,cs),
(576,141,o),
(448,18,o),
(221,18,cs),
(57,18,l)
);
}
);
width = 664;
},
{
anchors = (
{
name = bottom;
pos = (304,0);
},
{
name = center;
pos = (366,350);
},
{
name = top;
pos = (388,700);
}
);
layerId = "973C19EE-3504-4BDF-BF6D-4817D3AD4E7D";
shapes = (
{
closed = 1;
nodes = (
(240,0,ls),
(504,0,o),
(670,170,o),
(670,418,cs),
(670,601,o),
(574,700,o),
(363,700,cs),
(156,700,l),
(33,0,l)
);
},
{
closed = 1;
nodes = (
(216,642,l),
(353,642,ls),
(528,642,o),
(598,562,o),
(598,413,cs),
(598,197,o),
(469,58,o),
(250,58,cs),
(113,58,l)
);
}
);
width = 696;
},
{
anchors = (
{
name = bottom;
pos = (307,0);
},
{
name = center;
pos = (369,350);
},
{
name = top;
pos = (391,700);
}
);
layerId = "8231B9DE-059C-4C71-A8C4-ABDA89A7D05C";
shapes = (
{
closed = 1;
nodes = (
(246,0,ls),
(509,0,o),
(676,170,o),
(676,417,cs),
(676,598,o),
(580,700,o),
(369,700,cs),
(154,700,l),
(31,0,l)
);
},
{
closed = 1;
nodes = (
(226,630,l),
(355,630,ls),
(521,630,o),
(589,554,o),
(589,411,cs),
(589,204,o),
(466,70,o),
(257,70,cs),
(127,70,l)
);
}
);
width = 701;
}
);
metricLeft = H;
metricRight = O;
unicode = 68;
userData = {
com.schriftgestaltung.Glyphs.ColorIndex = 4;
com.typemytype.robofont.guides = (
{
angle = 0;
isGlobal = 0;
magnetic = 5;
x = 122;
y = 684;
}
);
com.typesupply.AccentFactory.yCoordinates = {
bottom = {
name = origin;
type = glyphMetric;
};
top = {
name = capHeight;
type = fontInfo;
};
};
};
},
{
glyphname = Eth;
kernLeft = Eth;
kernRight = O;
lastChange = "2023-05-19 14:03:36 +0000";
layers = (
{
layerId = "A390C1A2-E540-434D-BB9E-4BCEE875BA63";
shapes = (
{
closed = 1;
nodes = (
(403,280,l),
(429,422,l),
(42,422,l),
(16,280,l)
);
},
{
alignment = -1;
pos = (30,0);
ref = D;
}
);
width = 731;
},
{
layerId = "F5F01D5B-AEA3-4AC3-B3D8-92550D1582D7";
shapes = (
{
closed = 1;
nodes = (
(394,311,l),
(408,387,l),
(35,387,l),
(21,311,l)
);
},
{
alignment = -1;
pos = (41,0);
ref = D;
}
);
width = 696;
},
{
layerId = "3B8883BF-F483-4B97-AC7C-CABF8B821093";
shapes = (
{
closed = 1;
nodes = (
(392,316,l),
(404,381,l),
(34,381,l),
(22,316,l)
);
},
{
alignment = -1;
pos = (43,0);
ref = D;
}
);
width = 690;
},
{
layerId = "5D382461-81E1-4DF2-8677-8A6F02AD5363";
shapes = (
{
closed = 1;
nodes = (
(391,343,l),
(394,361,l),
(29,361,l),
(26,343,l)
);
},
{
alignment = -1;
pos = (51,0);
ref = D;
}
);
width = 670;
},
{
layerId = "1615C59E-33DE-4B88-B2CC-A48C7D56A125";
shapes = (
{
closed = 1;
nodes = (
(394,280,l),
(420,422,l),
(33,422,l),
(7,280,l)
);
},
{
alignment = -1;
pos = (21,0);
ref = D;
}
);
width = 725;
},
{
layerId = "A6F5E7A4-47EF-4F55-BF18-0ACACB57A720";
shapes = (
{
closed = 1;
nodes = (
(389,311,l),
(403,387,l),
(30,387,l),
(16,311,l)
);
},
{
alignment = -1;
pos = (36,0);
ref = D;
}
);
width = 701;
},
{
layerId = "2D111E5E-352D-4630-9162-BCEF010D26CF";
shapes = (
{
closed = 1;
nodes = (
(388,316,l),
(400,381,l),
(30,381,l),
(18,316,l)
);
},
{
alignment = -1;
pos = (39,0);
ref = D;
}
);
width = 706;
},
{
layerId = "EB62C368-BB48-47C0-A466-DA94204A0DE4";
shapes = (
{
closed = 1;
nodes = (
(389,343,l),
(392,361,l),
(29,361,l),
(26,343,l)
);
},
{
alignment = -1;
pos = (50,0);
ref = D;
}
);
width = 677;
},
{
layerId = "66953C5E-8AEB-4AF5-804F-512B0A9BA4E6";
shapes = (
{
closed = 1;
nodes = (
(397,280,l),
(422,422,l),
(36,422,l),
(10,280,l)
);
},
{
pos = (5,0);
ref = D;
}
);
width = 736;
},
{
layerId = "90D50F69-F6F7-4633-9462-ED0440D3064F";
shapes = (
{
closed = 1;
nodes = (
(392,343,l),
(395,361,l),
(32,361,l),
(29,343,l)
);
},
{
alignment = -1;
pos = (54,0);
ref = D;
}
);
width = 718;
},
{
layerId = "973C19EE-3504-4BDF-BF6D-4817D3AD4E7D";
shapes = (
{
closed = 1;
nodes = (
(390,316,l),
(401,381,l),
(32,381,l),
(21,316,l)
);
},
{
pos = (23,0);
ref = D;
}
);
width = 719;
},
{
layerId = "8231B9DE-059C-4C71-A8C4-ABDA89A7D05C";
shapes = (
{
closed = 1;
nodes = (
(392,311,l),
(405,387,l),
(33,387,l),
(20,311,l)
);
},
{
alignment = -1;
pos = (21,0);
ref = D;
}
);
width = 722;
}
);
metricRight = O;
unicode = 208;
userData = {
com.schriftgestaltung.Glyphs.ColorIndex = 4;
};
},
{
glyphname = E;
kernLeft = H;
kernRight = E;
lastChange = "2023-05-19 14:03:36 +0000";
layers = (
{
anchors = (
{
name = bottom;
pos = (234,0);
},
{
name = ogonek;
pos = (481,0);
},
{
name = top;
pos = (358,700);
},
{
name = topleft;
pos = (100,700);
}
);
layerId = "A390C1A2-E540-434D-BB9E-4BCEE875BA63";
shapes = (
{
closed = 1;
nodes = (
(481,0,l),
(505,137,l),
(196,137,l),
(224,291,l),
(503,291,l),
(526,423,l),
(247,423,l),
(272,563,l),
(581,563,l),
(605,700,l),
(125,700,l),
(1,0,l)
);
}
);
width = 555;
},
{
anchors = (
{
name = bottom;
pos = (210,0);
},
{
name = ogonek;
pos = (434,0);
},
{
name = top;
pos = (334,700);
},
{
name = topleft;
pos = (100,700);
}
);
layerId = "F5F01D5B-AEA3-4AC3-B3D8-92550D1582D7";
shapes = (
{
closed = 1;
nodes = (
(434,0,l),
(446,69,l),
(97,69,l),
(142,319,l),
(461,319,l),
(473,387,l),
(154,387,l),
(197,631,l),
(546,631,l),
(558,700,l),
(125,700,l),
(1,0,l)
);
}
);
width = 508;
},
{
anchors = (
{
name = bottom;
pos = (207,0);
},
{
name = ogonek;
pos = (426,0);
},
{
name = top;
pos = (331,700);
},
{
name = topleft;
pos = (100,700);
}
);
layerId = "3B8883BF-F483-4B97-AC7C-CABF8B821093";
shapes = (
{
closed = 1;
nodes = (
(426,0,l),
(437,58,l),
(82,58,l),
(128,323,l),
(453,323,l),
(463,381,l),
(138,381,l),
(184,642,l),
(539,642,l),
(550,700,l),
(125,700,l),
(1,0,l)
);
}
);
width = 501;
},
{
anchors = (
{
name = bottom;
pos = (200,0);
},
{
name = ogonek;
pos = (398,0);
},
{
name = top;
pos = (324,700);
},
{
name = topleft;
pos = (100,700);
}
);
layerId = "5D382461-81E1-4DF2-8677-8A6F02AD5363";
shapes = (
{
closed = 1;
nodes = (
(398,0,l),
(401,18,l),
(24,18,l),
(81,340,l),
(428,340,l),
(431,358,l),
(84,358,l),
(142,682,l),
(519,682,l),
(522,700,l),
(125,700,l),
(1,0,l)
);
}
);
width = 472;
},
{
anchors = (
{
name = bottom;
pos = (266,0);
},
{
name = ogonek;
pos = (506,0);
},
{
name = top;
pos = (390,700);
},
{
name = topleft;
pos = (175,700);
}
);
layerId = "1615C59E-33DE-4B88-B2CC-A48C7D56A125";
shapes = (
{
closed = 1;
nodes = (
(506,0,l),
(530,137,l),
(221,137,l),
(249,291,l),
(528,291,l),
(551,423,l),
(272,423,l),
(297,563,l),
(606,563,l),
(630,700,l),
(150,700,l),
(26,0,l)
);
}
);
width = 608;
},
{
anchors = (
{
name = bottom;
pos = (255,0);
},
{
name = ogonek;
pos = (464,0);
},
{
name = top;
pos = (378,700);
},
{
name = topleft;
pos = (113,700);
}
);
layerId = "A6F5E7A4-47EF-4F55-BF18-0ACACB57A720";
shapes = (
{
closed = 1;
nodes = (
(464,0,l),
(476,69,l),
(127,69,l),
(172,319,l),
(491,319,l),
(503,387,l),
(184,387,l),
(227,631,l),
(576,631,l),
(588,700,l),
(155,700,l),
(31,0,l)
);
}
);
width = 570;
},
{
anchors = (
{
name = bottom;
pos = (240,0);
},
{
name = ogonek;
pos = (463,0);
},
{
name = top;
pos = (363,700);
},
{
name = topleft;
pos = (97,700);
}
);
layerId = "2D111E5E-352D-4630-9162-BCEF010D26CF";
shapes = (
{
closed = 1;
nodes = (
(463,0,l),
(474,58,l),
(119,58,l),
(165,323,l),
(490,323,l),
(500,381,l),
(175,381,l),
(221,642,l),
(576,642,l),
(587,700,l),
(162,700,l),
(38,0,l)
);
}
);
width = 571;
},
{
anchors = (
{
name = bottom;
pos = (221,0);
},
{
name = ogonek;
pos = (429,0);
},
{
name = top;
pos = (344,700);
},
{
name = topleft;
pos = (97,700);
}
);
layerId = "EB62C368-BB48-47C0-A466-DA94204A0DE4";
shapes = (
{
closed = 1;
nodes = (
(429,0,l),
(432,18,l),
(55,18,l),
(112,340,l),
(459,340,l),
(462,358,l),
(115,358,l),
(173,682,l),
(550,682,l),
(553,700,l),
(156,700,l),
(32,0,l)
);
}
);
width = 533;
},
{
anchors = (
{
name = bottom;
pos = (245,0);
},
{
name = ogonek;
pos = (478,10);
},
{
name = top;
pos = (369,700);
},
{
name = topleft;
pos = (100,700);
}
);
layerId = "66953C5E-8AEB-4AF5-804F-512B0A9BA4E6";
shapes = (
{
closed = 1;
nodes = (
(478,0,l),
(502,135,l),
(213,135,l),
(241,292,l),
(500,292,l),
(523,421,l),
(264,421,l),
(289,565,l),
(578,565,l),
(602,700,l),
(142,700,l),
(18,0,l)
);
}
);
width = 572;
},
{
anchors = (
{
name = bottom;
pos = (224,0);
},
{
name = ogonek;
pos = (431,0);
},
{
name = top;
pos = (348,700);
},
{
name = topleft;
pos = (102,700);
}
);
layerId = "90D50F69-F6F7-4633-9462-ED0440D3064F";
shapes = (
{
closed = 1;
nodes = (
(431,0,l),
(434,18,l),
(57,18,l),
(114,339,l),
(461,339,l),
(464,358,l),
(117,358,l),
(175,682,l),
(552,682,l),
(555,700,l),
(158,700,l),
(34,0,l)
);
}
);
width = 532;
},
{
anchors = (
{
name = bottom;
pos = (224,0);
},
{
name = ogonek;
pos = (428,0);
},
{
name = top;
pos = (348,700);
},
{
name = topleft;
pos = (100,700);
}
);
layerId = "973C19EE-3504-4BDF-BF6D-4817D3AD4E7D";
shapes = (
{
closed = 1;
nodes = (
(428,0,l),
(438,56,l),
(113,56,l),
(160,324,l),
(456,324,l),
(465,380,l),
(170,380,l),
(216,644,l),
(541,644,l),
(552,700,l),
(156,700,l),
(33,0,l)
);
}
);
width = 530;
},
{
anchors = (
{
name = bottom;
pos = (227,0);
},
{
name = ogonek;
pos = (435,0);
},
{
name = top;
pos = (351,700);
},
{
name = topleft;
pos = (100,700);
}
);
layerId = "8231B9DE-059C-4C71-A8C4-ABDA89A7D05C";
shapes = (
{
closed = 1;
nodes = (
(435,0,l),
(447,67,l),
(127,67,l),
(171,320,l),
(462,320,l),
(473,386,l),
(183,386,l),
(226,633,l),
(546,633,l),
(559,700,l),
(154,700,l),
(31,0,l)
);
}
);
width = 536;
}
);
metricLeft = H;
unicode = 69;
userData = {
com.schriftgestaltung.Glyphs.ColorIndex = 4;
com.typesupply.AccentFactory.yCoordinates = {
bottom = {
name = origin;
type = glyphMetric;
};
top = {
name = capHeight;
type = fontInfo;
};
};
};
},
{
glyphname = Schwa;
kernRight = O;
lastChange = "2023-05-19 14:03:36 +0000";
layers = (
{
layerId = "A390C1A2-E540-434D-BB9E-4BCEE875BA63";
shapes = (
{
closed = 1;
nodes = (
(541,-12,o),
(705,132,o),
(743,350,cs),
(782,569,o),
(667,712,o),
(460,712,cs),
(290,712,o),
(148,611,o),
(85,468,c),
(271,468,l),
(302,524,o),
(365,558,o),
(435,558,cs),
(529,558,o),
(591,493,o),
(571,381,cs),
(558,306,ls),
(540,203,o),
(451,145,o),
(358,145,cs),
(265,145,o),
(207,200,o),
(217,282,c),
(577,282,l),
(597,397,l),
(65,397,l),
(60,376,o),
(54,354,o),
(50,335,cs),
(12,118,o),
(127,-12,o),
(333,-12,cs)
);
}
);
width = 760;
},
{
layerId = "F5F01D5B-AEA3-4AC3-B3D8-92550D1582D7";
shapes = (
{
closed = 1;
nodes = (
(515,-12,o),
(676,132,o),
(713,346,cs),
(752,566,o),
(642,712,o),
(445,712,cs),
(284,712,o),
(147,620,o),
(81,479,c),
(176,479,l),
(223,577,o),
(322,636,o),
(431,636,cs),
(571,636,o),
(656,533,o),
(626,360,cs),
(618,318,ls),
(590,156,o),
(467,64,o),
(328,64,cs),
(184,64,o),
(105,159,o),
(133,303,c),
(632,303,l),
(644,375,l),
(60,375,l),
(55,354,o),
(50,335,o),
(47,316,cs),
(11,109,o),
(123,-12,o),
(314,-12,cs)
);
}
);
width = 731;
},
{
layerId = "3B8883BF-F483-4B97-AC7C-CABF8B821093";
shapes = (
{
closed = 1;
nodes = (
(509,-12,o),
(671,132,o),
(708,345,cs),
(747,566,o),
(638,712,o),
(442,712,cs),
(283,712,o),
(146,622,o),
(80,481,c),
(160,481,l),
(210,586,o),
(316,648,o),
(431,648,cs),
(578,648,o),
(666,539,o),
(634,357,cs),
(628,320,ls),
(597,148,o),
(468,51,o),
(322,51,cs),
(170,51,o),
(89,152,o),
(118,306,c),
(640,306,l),
(652,372,l),
(59,372,l),
(53,351,o),
(50,332,o),
(46,313,cs),
(10,107,o),
(120,-12,o),
(309,-12,cs)
);
}
);
width = 726;
},
{
layerId = "5D382461-81E1-4DF2-8677-8A6F02AD5363";
shapes = (
{
closed = 1;
nodes = (
(471,-12,o),
(623,118,o),
(663,342,cs),
(702,567,o),
(617,712,o),
(418,712,cs),
(265,712,o),
(162,626,o),
(98,503,c),
(122,503,l),
(186,624,o),
(287,691,o),
(414,691,cs),
(567,691,o),
(682,587,o),
(639,344,cs),
(637,335,ls),
(598,109,o),
(434,10,o),
(291,10,cs),
(133,10,o),
(34,114,o),
(72,328,c),
(645,328,l),
(649,350,l),
(54,350,l),
(50,334,o),
(49,327,o),
(46,311,cs),
(16,142,o),
(82,-12,o),
(286,-12,cs)
);
}
);
width = 681;
},
{
layerId = "1615C59E-33DE-4B88-B2CC-A48C7D56A125";
shapes = (
{
closed = 1;
nodes = (
(548,-12,o),
(711,147,o),
(749,360,cs),
(785,567,o),
(673,712,o),
(464,712,cs),
(307,712,o),
(169,616,o),
(106,493,c),
(338,493,l),
(360,514,o),
(389,530,o),
(434,530,cs),
(524,530,o),
(545,466,o),
(532,387,cs),
(524,347,ls),
(503,225,o),
(442,167,o),
(367,167,cs),
(305,167,o),
(269,212,o),
(279,281,c),
(577,281,l),
(599,406,l),
(77,406,l),
(70,384,o),
(65,360,o),
(62,342,cs),
(25,133,o),
(129,-12,o),
(337,-12,cs)
);
}
);
width = 780;
},
{
layerId = "A6F5E7A4-47EF-4F55-BF18-0ACACB57A720";
shapes = (
{
closed = 1;
nodes = (
(482,-12,o),
(632,126,o),
(671,350,cs),
(709,565,o),
(613,712,o),
(429,712,cs),
(274,712,o),
(165,627,o),
(111,513,c),
(203,513,l),
(247,603,o),
(310,646,o),
(417,646,cs),
(534,646,o),
(618,553,o),
(583,356,cs),
(578,325,ls),
(544,135,o),
(429,54,o),
(314,54,cs),
(191,54,o),
(117,131,o),
(146,303,c),
(596,303,l),
(608,372,l),
(70,372,l),
(65,350,o),
(62,334,o),
(59,318,cs),
(27,135,o),
(98,-12,o),
(300,-12,cs)
);
}
);
width = 705;
},
{
layerId = "2D111E5E-352D-4630-9162-BCEF010D26CF";
shapes = (
{
closed = 1;
nodes = (
(485,-12,o),
(635,126,o),
(674,350,cs),
(712,566,o),
(616,712,o),
(431,712,cs),
(276,712,o),
(167,628,o),
(113,513,c),
(190,513,l),
(236,606,o),
(316,648,o),
(420,648,cs),
(552,648,o),
(634,556,o),
(599,357,cs),
(594,325,ls),
(563,149,o),
(437,51,o),
(316,51,cs),
(192,51,o),
(103,129,o),
(133,306,c),
(599,306,l),
(611,372,l),
(72,372,l),
(67,349,o),
(65,340,o),
(62,319,cs),
(29,135,o),
(100,-12,o),
(302,-12,cs)
);
}
);
width = 711;
},
{
layerId = "EB62C368-BB48-47C0-A466-DA94204A0DE4";
shapes = (
{
closed = 1;
nodes = (
(455,-12,o),
(596,110,o),
(638,348,cs),
(675,561,o),
(596,711,o),
(413,711,cs),
(260,711,o),
(166,630,o),
(110,514,c),
(134,514,l),
(196,632,o),
(281,690,o),
(417,690,cs),
(549,690,o),
(653,582,o),
(615,353,cs),
(613,341,ls),
(573,100,o),
(417,9,o),
(294,9,cs),
(134,9,o),
(42,105,o),
(82,335,c),
(620,335,l),
(624,356,l),
(65,356,l),
(62,341,o),
(61,338,o),
(58,323,cs),
(23,125,o),
(90,-12,o),
(290,-12,cs)
);
}
);
width = 670;
},
{
layerId = "66953C5E-8AEB-4AF5-804F-512B0A9BA4E6";
shapes = (
{
closed = 1;
nodes = (
(587,-12,o),
(760,187,o),
(760,433,cs),
(760,593,o),
(642,712,o),
(465,712,cs),
(296,712,o),
(155,616,o),
(94,468,c),
(279,468,l),
(309,524,o),
(372,558,o),
(443,558,cs),
(542,558,o),
(596,491,o),
(580,385,cs),
(567,310,ls),
(548,203,o),
(459,145,o),
(364,145,cs),
(270,145,o),
(216,200,o),
(227,289,c),
(586,289,l),
(606,401,l),
(74,401,l),
(60,359,o),
(53,312,o),
(53,272,cs),
(53,101,o),
(171,-12,o),
(341,-12,cs)
);
}
);
width = 778;
},
{
layerId = "90D50F69-F6F7-4633-9462-ED0440D3064F";
shapes = (
{
closed = 1;
nodes = (
(483,-12,o),
(635,118,o),
(675,342,cs),
(714,567,o),
(629,712,o),
(430,712,cs),
(277,712,o),
(174,626,o),
(110,503,c),
(134,503,l),
(198,624,o),
(299,691,o),
(426,691,cs),
(579,691,o),
(694,587,o),
(651,344,cs),
(649,335,ls),
(610,109,o),
(446,10,o),
(303,10,cs),
(145,10,o),
(45,109,o),
(84,328,c),
(657,328,l),
(661,350,l),
(66,350,l),
(62,334,o),
(61,327,o),
(58,311,cs),
(28,142,o),
(94,-12,o),
(298,-12,cs)
);
}
);
width = 705;
},
{
layerId = "973C19EE-3504-4BDF-BF6D-4817D3AD4E7D";
shapes = (
{
closed = 1;
nodes = (
(564,-12,o),
(728,188,o),
(728,434,cs),
(728,597,o),
(618,712,o),
(450,712,cs),
(290,712,o),
(155,621,o),
(91,481,c),
(172,481,l),
(220,586,o),
(325,648,o),
(439,648,cs),
(584,648,o),
(664,539,o),
(650,396,cs),
(646,351,ls),
(632,181,o),
(500,51,o),
(332,51,cs),
(182,51,o),
(101,151,o),
(131,306,c),
(653,306,l),
(664,371,l),
(72,371,l),
(61,332,o),
(53,285,o),
(53,246,cs),
(53,85,o),
(164,-12,o),
(323,-12,cs)
);
}
);
width = 752;
},
{
layerId = "8231B9DE-059C-4C71-A8C4-ABDA89A7D05C";
shapes = (
{
closed = 1;
nodes = (
(567,-12,o),
(732,188,o),
(732,434,cs),
(732,596,o),
(621,712,o),
(452,712,cs),
(291,712,o),
(155,620,o),
(91,479,c),
(187,479,l),
(232,577,o),
(332,636,o),
(440,636,cs),
(574,636,o),
(653,540,o),
(640,394,cs),
(635,345,ls),
(620,184,o),
(494,64,o),
(336,64,cs),
(194,64,o),
(121,153,o),
(144,304,c),
(644,304,l),
(656,375,l),
(72,375,l),
(63,343,o),
(58,312,o),
(55,283,cs),
(42,111,o),
(140,-12,o),
(325,-12,cs)
);
}
);
width = 754;
}
);
metricLeft = O;
metricRight = O;
unicode = 399;
},
{
glyphname = F;
kernLeft = H;
lastChange = "2023-05-19 14:03:36 +0000";
layers = (
{
anchors = (
{
name = bottom;
pos = (225,0);
},
{
name = top;
pos = (349,700);
}
);
layerId = "A390C1A2-E540-434D-BB9E-4BCEE875BA63";
shapes = (
{
closed = 1;
nodes = (
(172,0,l),
(222,284,l),
(456,284,l),
(480,417,l),
(246,417,l),
(272,563,l),
(578,563,l),
(602,700,l),
(125,700,l),
(1,0,l)
);
}
);
width = 537;
},
{
anchors = (
{
name = bottom;
pos = (199,0);
},
{
name = top;
pos = (323,700);
}
);
layerId = "F5F01D5B-AEA3-4AC3-B3D8-92550D1582D7";
shapes = (
{
closed = 1;
nodes = (
(85,0,l),
(141,317,l),
(432,317,l),
(444,385,l),
(153,385,l),
(197,631,l),
(539,631,l),
(551,700,l),
(125,700,l),
(1,0,l)
);
}
);
width = 486;
},
{
anchors = (
{
name = bottom;
pos = (195,0);
},
{
name = top;
pos = (319,700);
}
);
layerId = "3B8883BF-F483-4B97-AC7C-CABF8B821093";
shapes = (
{
closed = 1;
nodes = (
(71,0,l),
(128,322,l),
(428,322,l),
(438,380,l),
(138,380,l),
(184,642,l),
(532,642,l),
(543,700,l),
(125,700,l),
(1,0,l)
);
}
);
width = 478;
},
{
anchors = (
{
name = bottom;
pos = (181,0);
},
{
name = top;
pos = (305,700);
}
);
layerId = "5D382461-81E1-4DF2-8677-8A6F02AD5363";
shapes = (
{
closed = 1;
nodes = (
(21,0,l),
(82,344,l),
(415,344,l),
(418,362,l),
(85,362,l),
(142,682,l),
(512,682,l),
(515,700,l),
(125,700,l),
(1,0,l)
);
}
);
width = 450;
},
{
anchors = (
{
name = bottom;
pos = (200,0);
},
{
name = top;
pos = (447,700);
}
);
layerId = "1615C59E-33DE-4B88-B2CC-A48C7D56A125";
shapes = (
{
closed = 1;
nodes = (
(197,0,l),
(247,284,l),
(481,284,l),
(505,417,l),
(271,417,l),
(297,563,l),
(603,563,l),
(627,700,l),
(150,700,l),
(26,0,l)
);
}
);
width = 585;
},
{
anchors = (
{
name = bottom;
pos = (240,0);
},
{
name = top;
pos = (363,700);
}
);
layerId = "A6F5E7A4-47EF-4F55-BF18-0ACACB57A720";
shapes = (
{
closed = 1;
nodes = (
(115,0,l),
(171,317,l),
(462,317,l),
(474,385,l),
(183,385,l),
(227,631,l),
(569,631,l),
(581,700,l),
(155,700,l),
(31,0,l)
);
}
);
width = 540;
},
{
anchors = (
{
name = bottom;
pos = (226,0);
},
{
name = top;
pos = (349,700);
}
);
layerId = "2D111E5E-352D-4630-9162-BCEF010D26CF";
shapes = (
{
closed = 1;
nodes = (
(108,0,l),
(165,323,l),
(465,323,l),
(475,380,l),
(175,380,l),
(221,642,l),
(569,642,l),
(580,700,l),
(162,700,l),
(38,0,l)
);
}
);
width = 543;
},
{
anchors = (
{
name = bottom;
pos = (206,0);
},
{
name = top;
pos = (329,700);
}
);
layerId = "EB62C368-BB48-47C0-A466-DA94204A0DE4";
shapes = (
{
closed = 1;
nodes = (
(52,0,l),
(113,344,l),
(446,344,l),
(449,362,l),
(116,362,l),
(173,682,l),
(543,682,l),
(546,700,l),
(156,700,l),
(32,0,l)
);
}
);
width = 504;
},
{
anchors = (
{
name = bottom;
pos = (233,0);
},
{
name = top;
pos = (357,700);
}
);
layerId = "66953C5E-8AEB-4AF5-804F-512B0A9BA4E6";
shapes = (
{
closed = 1;
nodes = (
(189,0,l),
(239,286,l),
(453,286,l),
(477,416,l),
(263,416,l),
(289,565,l),
(575,565,l),
(599,700,l),
(142,700,l),
(18,0,l)
);
}
);
width = 547;
},
{
anchors = (
{
name = bottom;
pos = (227,0);
},
{
name = top;
pos = (351,700);
}
);
layerId = "90D50F69-F6F7-4633-9462-ED0440D3064F";
shapes = (
{
closed = 1;
nodes = (
(54,0,l),
(115,344,l),
(448,344,l),
(451,362,l),
(118,362,l),
(175,682,l),
(545,682,l),
(548,700,l),
(158,700,l),
(34,0,l)
);
}
);
width = 503;
},
{
anchors = (
{
name = bottom;
pos = (219,0);
},
{
name = top;
pos = (343,700);
}
);
layerId = "973C19EE-3504-4BDF-BF6D-4817D3AD4E7D";
shapes = (
{
closed = 1;
nodes = (
(103,0,l),
(160,324,l),
(450,324,l),
(460,379,l),
(170,379,l),
(216,644,l),
(555,644,l),
(565,700,l),
(156,700,l),
(33,0,l)
);
}
);
width = 520;
},
{
anchors = (
{
name = bottom;
pos = (221,0);
},
{
name = top;
pos = (345,700);
}
);
layerId = "8231B9DE-059C-4C71-A8C4-ABDA89A7D05C";
shapes = (
{
closed = 1;
nodes = (
(115,0,l),
(171,319,l),
(450,319,l),
(462,384,l),
(183,384,l),
(226,633,l),
(558,633,l),
(570,700,l),
(154,700,l),
(31,0,l)
);
}
);
width = 524;
}
);
metricLeft = H;
unicode = 70;
userData = {
com.schriftgestaltung.Glyphs.ColorIndex = 4;
com.typesupply.AccentFactory.yCoordinates = {
bottom = {
name = origin;
type = glyphMetric;
};
top = {
name = capHeight;
type = fontInfo;
};
};
};
},
{
glyphname = G;
kernLeft = O;
kernRight = G;
lastChange = "2023-05-19 14:03:36 +0000";
layers = (
{
anchors = (
{
name = bottom;
pos = (342,0);
},
{
name = top;
pos = (466,700);
}
);
layerId = "A390C1A2-E540-434D-BB9E-4BCEE875BA63";
shapes = (
{
closed = 1;
nodes = (
(404,-12,o),
(474,25,o),
(529,92,c),
(533,92,l),
(525,0,l),
(683,0,l),
(753,396,l),
(431,396,l),
(409,270,l),
(560,270,l),
(533,198,o),
(472,139,o),
(368,139,cs),
(254,139,o),
(202,209,o),
(226,342,cs),
(249,472,o),
(324,554,o),
(448,554,cs),
(516,554,o),
(554,529,o),
(567,482,c),
(756,482,l),
(749,626,o),
(647,712,o),
(477,712,cs),
(251,712,o),
(90,559,o),
(52,343,cs),
(14,129,o),
(120,-12,o),
(297,-12,cs)
);
}
);
width = 772;
},
{
anchors = (
{
name = bottom;
pos = (322,0);
},
{
name = top;
pos = (446,700);
}
);
layerId = "F5F01D5B-AEA3-4AC3-B3D8-92550D1582D7";
shapes = (
{
closed = 1;
nodes = (
(419,-12,o),
(526,47,o),
(580,140,c),
(584,140,l),
(568,0,l),
(642,0,l),
(708,374,l),
(420,374,l),
(409,308,l),
(611,308,l),
(573,157,o),
(455,63,o),
(325,63,cs),
(181,63,o),
(107,170,o),
(139,349,cs),
(170,527,o),
(288,635,o),
(443,635,cs),
(553,635,o),
(616,582,o),
(620,498,c),
(717,498,l),
(711,632,o),
(614,712,o),
(457,712,cs),
(249,712,o),
(91,563,o),
(53,349,cs),
(15,134,o),
(115,-12,o),
(307,-12,cs)
);
}
);
width = 731;
},
{
anchors = (
{
name = bottom;
pos = (318,0);
},
{
name = top;
pos = (442,700);
}
);
layerId = "3B8883BF-F483-4B97-AC7C-CABF8B821093";
shapes = (
{
closed = 1;
nodes = (
(439,-12,o),
(516,52,o),
(582,137,c),
(586,137,l),
(571,0,l),
(635,0,l),
(701,371,l),
(418,371,l),
(408,314,l),
(619,314,l),
(579,150,o),
(484,51,o),
(327,51,cs),
(177,51,o),
(92,164,o),
(125,350,cs),
(158,536,o),
(283,648,o),
(443,648,cs),
(559,648,o),
(625,590,o),
(628,500,c),
(710,500,l),
(704,633,o),
(608,712,o),
(454,712,cs),
(248,712,o),
(91,564,o),
(53,350,cs),
(15,135,o),
(120,-12,o),
(316,-12,cs)
);
}
);
width = 724;
},
{
anchors = (
{
name = bottom;
pos = (306,0);
},
{
name = top;
pos = (430,700);
}
);
layerId = "5D382461-81E1-4DF2-8677-8A6F02AD5363";
shapes = (
{
closed = 1;
nodes = (
(441,-12,o),
(544,52,o),
(614,186,c),
(618,186,l),
(594,0,l),
(610,0,l),
(674,359,l),
(411,359,l),
(407,341,l),
(648,341,l),
(600,127,o),
(473,8,o),
(307,8,cs),
(134,8,o),
(37,140,o),
(75,351,cs),
(112,564,o),
(265,692,o),
(438,692,cs),
(587,692,o),
(653,618,o),
(665,508,c),
(687,508,l),
(674,640,o),
(588,712,o),
(442,712,cs),
(246,712,o),
(91,567,o),
(54,353,cs),
(16,138,o),
(112,-12,o),
(303,-12,cs)
);
}
);
width = 699;
},
{
anchors = (
{
name = bottom;
pos = (354,0);
},
{
name = top;
pos = (478,700);
}
);
layerId = "1615C59E-33DE-4B88-B2CC-A48C7D56A125";
shapes = (
{
closed = 1;
nodes = (
(421,-12,o),
(486,17,o),
(536,70,c),
(536,70,l),
(536,0,l),
(694,0,l),
(764,396,l),
(442,396,l),
(420,270,l),
(571,270,l),
(544,198,o),
(483,139,o),
(379,139,cs),
(265,139,o),
(212,209,o),
(236,342,cs),
(259,472,o),
(335,554,o),
(459,554,cs),
(527,554,o),
(565,529,o),
(578,482,c),
(766,482,l),
(759,626,o),
(658,712,o),
(488,712,cs),
(262,712,o),
(100,559,o),
(62,343,cs),
(24,129,o),
(131,-12,o),
(331,-12,cs)
);
}
);
width = 802;
},
{
anchors = (
{
name = bottom;
pos = (350,0);
},
{
name = top;
pos = (473,700);
}
);
layerId = "A6F5E7A4-47EF-4F55-BF18-0ACACB57A720";
shapes = (
{
closed = 1;
nodes = (
(449,-12,o),
(525,33,o),
(590,115,c),
(590,115,l),
(576,0,l),
(653,0,l),
(719,374,l),
(431,374,l),
(420,308,l),
(622,308,l),
(584,157,o),
(493,63,o),
(344,63,cs),
(199,63,o),
(118,170,o),
(150,349,cs),
(181,527,o),
(299,635,o),
(454,635,cs),
(564,635,o),
(627,582,o),
(631,498,c),
(728,498,l),
(722,632,o),
(625,712,o),
(468,712,cs),
(260,712,o),
(102,563,o),
(64,349,cs),
(26,134,o),
(131,-12,o),
(328,-12,cs)
);
}
);
width = 761;
},
{
anchors = (
{
name = bottom;
pos = (336,0);
},
{
name = top;
pos = (459,700);
}
);
layerId = "2D111E5E-352D-4630-9162-BCEF010D26CF";
shapes = (
{
closed = 1;
nodes = (
(453,-12,o),
(535,38,o),
(600,131,c),
(600,131,l),
(585,0,l),
(649,0,l),
(715,371,l),
(432,371,l),
(422,315,l),
(633,315,l),
(593,149,o),
(490,51,o),
(334,51,cs),
(183,51,o),
(106,164,o),
(139,350,cs),
(172,536,o),
(296,647,o),
(456,647,cs),
(573,647,o),
(638,590,o),
(643,500,c),
(724,500,l),
(717,634,o),
(622,712,o),
(468,712,cs),
(262,712,o),
(105,564,o),
(67,350,cs),
(29,135,o),
(132,-12,o),
(328,-12,cs)
);
}
);
width = 763;
},
{
anchors = (
{
name = bottom;
pos = (317,0);
},
{
name = top;
pos = (440,700);
}
);
layerId = "EB62C368-BB48-47C0-A466-DA94204A0DE4";
shapes = (
{
closed = 1;
nodes = (
(450,-12,o),
(558,53,o),
(626,187,c),
(626,187,l),
(603,0,l),
(619,0,l),
(683,359,l),
(420,359,l),
(416,341,l),
(657,341,l),
(607,120,o),
(495,8,o),
(316,8,cs),
(143,8,o),
(47,142,o),
(85,353,cs),
(122,566,o),
(275,693,o),
(453,693,cs),
(596,693,o),
(663,618,o),
(675,508,c),
(696,508,l),
(683,640,o),
(597,712,o),
(451,712,cs),
(255,712,o),
(100,567,o),
(63,353,cs),
(25,138,o),
(121,-12,o),
(312,-12,cs)
);
}
);
width = 725;
},
{
anchors = (
{
name = bottom;
pos = (353,0);
},
{
name = top;
pos = (477,700);
}
);
layerId = "66953C5E-8AEB-4AF5-804F-512B0A9BA4E6";
shapes = (
{
closed = 1;
nodes = (
(424,-12,o),
(488,17,o),
(537,70,c),
(537,70,l),
(541,0,l),
(696,0,l),
(766,396,l),
(444,396,l),
(422,270,l),
(573,270,l),
(546,198,o),
(484,139,o),
(381,139,cs),
(285,139,o),
(233,198,o),
(233,298,cs),
(233,452,o),
(327,554,o),
(461,554,cs),
(529,554,o),
(566,529,o),
(580,482,c),
(769,482,l),
(761,626,o),
(657,712,o),
(487,712,cs),
(241,712,o),
(57,539,o),
(57,283,cs),
(57,116,o),
(160,-12,o),
(333,-12,cs)
);
}
);
width = 793;
},
{
anchors = (
{
name = bottom;
pos = (337,0);
},
{
name = top;
pos = (461,700);
}
);
layerId = "90D50F69-F6F7-4633-9462-ED0440D3064F";
shapes = (
{
closed = 1;
nodes = (
(454,-12,o),
(564,60,o),
(632,194,c),
(632,194,l),
(606,0,l),
(622,0,l),
(686,359,l),
(423,359,l),
(419,341,l),
(660,341,l),
(612,127,o),
(498,8,o),
(319,8,cs),
(146,8,o),
(50,142,o),
(88,353,cs),
(125,566,o),
(274,692,o),
(450,692,cs),
(595,692,o),
(665,618,o),
(677,508,c),
(699,508,l),
(686,640,o),
(600,712,o),
(454,712,cs),
(258,712,o),
(103,567,o),
(66,353,cs),
(28,138,o),
(124,-12,o),
(315,-12,cs)
);
}
);
width = 725;
},
{
anchors = (
{
name = bottom;
pos = (334,0);
},
{
name = top;
pos = (458,700);
}
);
layerId = "973C19EE-3504-4BDF-BF6D-4817D3AD4E7D";
shapes = (
{
closed = 1;
nodes = (
(460,-12,o),
(536,36,o),
(603,122,c),
(603,122,l),
(587,0,l),
(652,0,l),
(717,371,l),
(434,371,l),
(424,314,l),
(635,314,l),
(595,150,o),
(501,51,o),
(344,51,cs),
(216,51,o),
(135,142,o),
(135,282,cs),
(135,495,o),
(264,648,o),
(456,648,cs),
(575,648,o),
(642,590,o),
(645,500,c),
(727,500,l),
(721,633,o),
(619,712,o),
(463,712,cs),
(227,712,o),
(62,529,o),
(62,278,cs),
(62,110,o),
(164,-12,o),
(333,-12,cs)
);
}
);
width = 756;
},
{
anchors = (
{
name = bottom;
pos = (346,0);
},
{
name = top;
pos = (470,700);
}
);
layerId = "8231B9DE-059C-4C71-A8C4-ABDA89A7D05C";
shapes = (
{
closed = 1;
nodes = (
(455,-12,o),
(529,33,o),
(594,115,c),
(594,115,l),
(581,0,l),
(658,0,l),
(724,374,l),
(435,374,l),
(424,308,l),
(626,308,l),
(588,157,o),
(499,63,o),
(349,63,cs),
(226,63,o),
(149,150,o),
(149,284,cs),
(149,489,o),
(273,635,o),
(457,635,cs),
(569,635,o),
(631,582,o),
(636,498,c),
(733,498,l),
(727,632,o),
(624,712,o),
(466,712,cs),
(229,712,o),
(61,530,o),
(61,279,cs),
(61,111,o),
(163,-12,o),
(333,-12,cs)
);
}
);
width = 761;
}
);
metricLeft = O;
unicode = 71;
userData = {
com.schriftgestaltung.Glyphs.ColorIndex = 4;
com.typemytype.robofont.layerData = {
b = {
anchors = (
{
name = top;
x = 411;
y = 683;
},
{
name = bottom;
x = 411;
y = 0;
}
);
components = (
);
contours = (
{
points = (
{
segmentType = curve;
smooth = 1;
x = 60;
y = 341;
},
{
smooth = 0;
x = 60;
y = 138;
},
{
smooth = 0;
x = 214;
y = -6;
},
{
segmentType = curve;
smooth = 1;
x = 407;
y = -6;
},
{
smooth = 0;
x = 590;
y = -6;
},
{
smooth = 0;
x = 747;
y = 110;
},
{
segmentType = curve;
smooth = 0;
x = 764;
y = 341;
},
{
segmentType = line;
smooth = 0;
x = 764;
y = 360;
},
{
segmentType = line;
smooth = 0;
x = 381;
y = 360;
},
{
segmentType = line;
smooth = 0;
x = 381;
y = 341;
},
{
segmentType = line;
smooth = 0;
x = 747;
y = 341;
},
{
smooth = 0;
x = 733;
y = 132;
},
{
smooth = 0;
x = 600;
y = 6;
},
{
segmentType = curve;
smooth = 1;
x = 407;
y = 6;
},
{
smooth = 0;
x = 226;
y = 6;
},
{
smooth = 0;
x = 80;
y = 137;
},
{
segmentType = curve;
smooth = 1;
x = 80;
y = 341;
},
{
smooth = 0;
x = 80;
y = 547;
},
{
smooth = 0;
x = 226;
y = 677;
},
{
segmentType = curve;
smooth = 1;
x = 407;
y = 677;
},
{
smooth = 0;
x = 528;
y = 677;
},
{
smooth = 0;
x = 633;
y = 618;
},
{
segmentType = curve;
smooth = 0;
x = 683;
y = 525;
},
{
segmentType = line;
smooth = 0;
x = 709;
y = 525;
},
{
smooth = 0;
x = 648;
y = 637;
},
{
smooth = 0;
x = 537;
y = 690;
},
{
segmentType = curve;
smooth = 1;
x = 407;
y = 690;
},
{
smooth = 0;
x = 214;
y = 690;
},
{
smooth = 0;
x = 60;
y = 546;
}
);
}
);
lib = {
};
name = G;
unicodes = (
);
width = 792;
};
};
com.typesupply.AccentFactory.yCoordinates = {
bottom = {
name = origin;
type = glyphMetric;
};
top = {
name = capHeight;
type = fontInfo;
};
};
};
},
{
glyphname = H;
kernLeft = H;
kernRight = H;
lastChange = "2023-05-19 14:03:36 +0000";
layers = (
{
anchors = (
{
name = bottom;
pos = (305,0);
},
{
name = center;
pos = (367,350);
},
{
name = top;
pos = (429,700);
},
{
name = topleft;
pos = (100,700);
}
);
layerId = "A390C1A2-E540-434D-BB9E-4BCEE875BA63";
shapes = (
{
closed = 1;
nodes = (
(609,0,l),
(733,700,l),
(562,700,l),
(438,0,l)
);
},
{
closed = 1;
nodes = (
(172,0,l),
(296,700,l),
(125,700,l),
(1,0,l)
);
},
{
closed = 1;
nodes = (
(513,289,l),
(538,427,l),
(228,427,l),
(203,289,l)
);
}
);
width = 698;
},
{
anchors = (
{
name = bottom;
pos = (267,0);
},
{
name = center;
pos = (329,350);
},
{
name = top;
pos = (391,700);
},
{
name = topleft;
pos = (100,700);
}
);
layerId = "F5F01D5B-AEA3-4AC3-B3D8-92550D1582D7";
shapes = (
{
closed = 1;
nodes = (
(532,0,l),
(656,700,l),
(572,700,l),
(448,0,l)
);
},
{
closed = 1;
nodes = (
(85,0,l),
(209,700,l),
(125,700,l),
(1,0,l)
);
},
{
closed = 1;
nodes = (
(526,322,l),
(538,391,l),
(138,391,l),
(126,322,l)
);
}
);
width = 621;
},
{
anchors = (
{
name = bottom;
pos = (261,0);
},
{
name = center;
pos = (323,350);
},
{
name = top;
pos = (385,700);
},
{
name = topleft;
pos = (100,700);
}
);
layerId = "3B8883BF-F483-4B97-AC7C-CABF8B821093";
shapes = (
{
closed = 1;
nodes = (
(520,0,l),
(644,700,l),
(574,700,l),
(450,0,l)
);
},
{
closed = 1;
nodes = (
(71,0,l),
(195,700,l),
(125,700,l),
(1,0,l)
);
},
{
closed = 1;
nodes = (
(528,328,l),
(538,386,l),
(123,386,l),
(113,328,l)
);
}
);
width = 609;
},
{
anchors = (
{
name = bottom;
pos = (239,0);
},
{
name = center;
pos = (301,350);
},
{
name = top;
pos = (363,700);
},
{
name = topleft;
pos = (100,700);
}
);
layerId = "5D382461-81E1-4DF2-8677-8A6F02AD5363";
shapes = (
{
closed = 1;
nodes = (
(477,0,l),
(601,700,l),
(581,700,l),
(457,0,l)
);
},
{
closed = 1;
nodes = (
(21,0,l),
(145,700,l),
(125,700,l),
(1,0,l)
);
},
{
closed = 1;
nodes = (
(535,348,l),
(538,366,l),
(72,366,l),
(69,348,l)
);
}
);
width = 566;
},
{
anchors = (
{
name = bottom;
pos = (284,0);
},
{
name = center;
pos = (407,350);
},
{
name = top;
pos = (531,700);
},
{
name = topleft;
pos = (175,700);
}
);
layerId = "1615C59E-33DE-4B88-B2CC-A48C7D56A125";
shapes = (
{
closed = 1;
nodes = (
(634,0,l),
(758,700,l),
(587,700,l),
(463,0,l)
);
},
{
closed = 1;
nodes = (
(197,0,l),
(321,700,l),
(150,700,l),
(26,0,l)
);
},
{
closed = 1;
nodes = (
(538,289,l),
(563,427,l),
(253,427,l),
(228,289,l)
);
}
);
width = 753;
},
{
anchors = (
{
name = bottom;
pos = (313,0);
},
{
name = center;
pos = (374,350);
},
{
name = top;
pos = (436,700);
},
{
name = topleft;
pos = (113,700);
}
);
layerId = "A6F5E7A4-47EF-4F55-BF18-0ACACB57A720";
shapes = (
{
closed = 1;
nodes = (
(562,0,l),
(686,700,l),
(602,700,l),
(478,0,l)
);
},
{
closed = 1;
nodes = (
(115,0,l),
(239,700,l),
(155,700,l),
(31,0,l)
);
},
{
closed = 1;
nodes = (
(556,322,l),
(568,391,l),
(168,391,l),
(156,322,l)
);
}
);
width = 686;
},
{
anchors = (
{
name = bottom;
pos = (298,0);
},
{
name = center;
pos = (359,350);
},
{
name = top;
pos = (421,700);
},
{
name = topleft;
pos = (97,700);
}
);
layerId = "2D111E5E-352D-4630-9162-BCEF010D26CF";
shapes = (
{
closed = 1;
nodes = (
(557,0,l),
(681,700,l),
(611,700,l),
(487,0,l)
);
},
{
closed = 1;
nodes = (
(108,0,l),
(232,700,l),
(162,700,l),
(38,0,l)
);
},
{
closed = 1;
nodes = (
(565,328,l),
(575,386,l),
(160,386,l),
(150,328,l)
);
}
);
width = 688;
},
{
anchors = (
{
name = bottom;
pos = (270,0);
},
{
name = center;
pos = (331,350);
},
{
name = top;
pos = (393,700);
},
{
name = topleft;
pos = (97,700);
}
);
layerId = "EB62C368-BB48-47C0-A466-DA94204A0DE4";
shapes = (
{
closed = 1;
nodes = (
(508,0,l),
(632,700,l),
(612,700,l),
(488,0,l)
);
},
{
closed = 1;
nodes = (
(52,0,l),
(176,700,l),
(156,700,l),
(32,0,l)
);
},
{
closed = 1;
nodes = (
(566,348,l),
(569,366,l),
(103,366,l),
(100,348,l)
);
}
);
width = 632;
},
{
anchors = (
{
name = bottom;
pos = (322,0);
},
{
name = center;
pos = (384,350);
},
{
name = top;
pos = (446,700);
},
{
name = topleft;
pos = (100,700);
}
);
layerId = "66953C5E-8AEB-4AF5-804F-512B0A9BA4E6";
shapes = (
{
closed = 1;
nodes = (
(626,0,l),
(750,700,l),
(579,700,l),
(455,0,l)
);
},
{
closed = 1;
nodes = (
(189,0,l),
(313,700,l),
(142,700,l),
(18,0,l)
);
},
{
closed = 1;
nodes = (
(530,291,l),
(554,426,l),
(244,426,l),
(220,291,l)
);
}
);
width = 732;
},
{
anchors = (
{
name = bottom;
pos = (290,0);
},
{
name = center;
pos = (352,350);
},
{
name = top;
pos = (414,700);
},
{
name = topleft;
pos = (120,700);
}
);
layerId = "90D50F69-F6F7-4633-9462-ED0440D3064F";
shapes = (
{
closed = 1;
nodes = (
(510,0,l),
(634,700,l),
(614,700,l),
(490,0,l)
);
},
{
closed = 1;
nodes = (
(54,0,l),
(178,700,l),
(158,700,l),
(34,0,l)
);
},
{
closed = 1;
nodes = (
(568,348,l),
(571,366,l),
(105,366,l),
(102,348,l)
);
}
);
width = 631;
},
{
anchors = (
{
name = bottom;
pos = (292,0);
},
{
name = center;
pos = (354,350);
},
{
name = top;
pos = (416,700);
},
{
name = topleft;
pos = (100,700);
}
);
layerId = "973C19EE-3504-4BDF-BF6D-4817D3AD4E7D";
shapes = (
{
closed = 1;
nodes = (
(552,0,l),
(676,700,l),
(606,700,l),
(482,0,l)
);
},
{
closed = 1;
nodes = (
(103,0,l),
(226,700,l),
(156,700,l),
(33,0,l)
);
},
{
closed = 1;
nodes = (
(560,329,l),
(570,384,l),
(155,384,l),
(145,329,l)
);
}
);
width = 672;
},
{
anchors = (
{
name = bottom;
pos = (296,0);
},
{
name = center;
pos = (358,350);
},
{
name = top;
pos = (420,700);
},
{
name = topleft;
pos = (100,700);
}
);
layerId = "8231B9DE-059C-4C71-A8C4-ABDA89A7D05C";
shapes = (
{
closed = 1;
nodes = (
(562,0,l),
(686,700,l),
(602,700,l),
(478,0,l)
);
},
{
closed = 1;
nodes = (
(115,0,l),
(238,700,l),
(154,700,l),
(31,0,l)
);
},
{
closed = 1;
nodes = (
(556,324,l),
(568,390,l),
(167,390,l),
(155,324,l)
);
}
);
width = 680;
}
);
unicode = 72;
userData = {
com.schriftgestaltung.Glyphs.ColorIndex = 4;
com.typesupply.AccentFactory.yCoordinates = {
bottom = {
name = origin;
type = glyphMetric;
};
top = {
name = capHeight;
type = fontInfo;
};
};
};
},
{
glyphname = Hbar;
lastChange = "2023-05-19 14:03:36 +0000";
layers = (
{
guides = (
{
angle = 260;
pos = (697,524);
}
);
layerId = "EB62C368-BB48-47C0-A466-DA94204A0DE4";
shapes = (
{
closed = 1;
nodes = (
(697,524,l),
(700,542,l),
(99,542,l),
(96,524,l)
);
},
{
pos = (34,0);
ref = H;
}
);
width = 701;
},
{
guides = (
{
angle = 260;
pos = (736,500);
}
);
layerId = "2D111E5E-352D-4630-9162-BCEF010D26CF";
shapes = (
{
closed = 1;
nodes = (
(736,500,l),
(748,565,l),
(89,565,l),
(77,500,l)
);
},
{
pos = (21,0);
ref = H;
}
);
width = 730;
},
{
layerId = "A6F5E7A4-47EF-4F55-BF18-0ACACB57A720";
shapes = (
{
closed = 1;
nodes = (
(750,495,l),
(764,571,l),
(95,571,l),
(81,495,l)
);
},
{
pos = (31,0);
ref = H;
}
);
width = 750;
},
{
layerId = "1615C59E-33DE-4B88-B2CC-A48C7D56A125";
shapes = (
{
closed = 1;
nodes = (
(810,492,l),
(832,622,l),
(83,622,l),
(61,492,l)
);
},
{
pos = (18,0);
ref = H;
}
);
width = 790;
},
{
layerId = "90D50F69-F6F7-4633-9462-ED0440D3064F";
shapes = (
{
closed = 1;
nodes = (
(700,524,l),
(703,542,l),
(102,542,l),
(99,524,l)
);
},
{
pos = (34,0);
ref = H;
}
);
width = 701;
},
{
layerId = "973C19EE-3504-4BDF-BF6D-4817D3AD4E7D";
shapes = (
{
closed = 1;
nodes = (
(738,500,l),
(750,565,l),
(91,565,l),
(79,500,l)
);
},
{
pos = (31,0);
ref = H;
}
);
width = 729;
},
{
layerId = "8231B9DE-059C-4C71-A8C4-ABDA89A7D05C";
shapes = (
{
closed = 1;
nodes = (
(753,495,l),
(767,571,l),
(98,571,l),
(84,495,l)
);
},
{
pos = (35,0);
ref = H;
}
);
width = 750;
},
{
layerId = "66953C5E-8AEB-4AF5-804F-512B0A9BA4E6";
shapes = (
{
closed = 1;
nodes = (
(813,492,l),
(835,622,l),
(86,622,l),
(64,492,l)
);
},
{
pos = (29,0);
ref = H;
}
);
width = 790;
},
{
layerId = "5D382461-81E1-4DF2-8677-8A6F02AD5363";
shapes = (
{
closed = 1;
nodes = (
(660,524,l),
(663,542,l),
(62,542,l),
(59,524,l)
);
},
{
pos = (27,0);
ref = H;
}
);
width = 621;
},
{
layerId = "3B8883BF-F483-4B97-AC7C-CABF8B821093";
shapes = (
{
closed = 1;
nodes = (
(713,500,l),
(725,565,l),
(66,565,l),
(54,500,l)
);
},
{
pos = (35,0);
ref = H;
}
);
width = 679;
},
{
layerId = "F5F01D5B-AEA3-4AC3-B3D8-92550D1582D7";
shapes = (
{
closed = 1;
nodes = (
(753,495,l),
(767,571,l),
(98,571,l),
(84,495,l)
);
},
{
pos = (65,0);
ref = H;
}
);
width = 750;
},
{
layerId = "A390C1A2-E540-434D-BB9E-4BCEE875BA63";
shapes = (
{
closed = 1;
nodes = (
(813,492,l),
(835,622,l),
(86,622,l),
(64,492,l)
);
},
{
pos = (46,0);
ref = H;
}
);
width = 790;
}
);
unicode = 294;
},
{
glyphname = I;
kernLeft = H;
kernRight = H;
lastChange = "2023-05-19 14:03:36 +0000";
layers = (
{
anchors = (
{
name = bottom;
pos = (87,0);
},
{
name = ogonek;
pos = (172,0);
},
{
name = top;
pos = (211,700);
},
{
name = topleft;
pos = (100,700);
}
);
layerId = "A390C1A2-E540-434D-BB9E-4BCEE875BA63";
shapes = (
{
closed = 1;
nodes = (
(172,0,l),
(296,700,l),
(125,700,l),
(1,0,l)
);
}
);
width = 261;
},
{
anchors = (
{
name = bottom;
pos = (43,0);
},
{
name = ogonek;
pos = (85,0);
},
{
name = top;
pos = (167,700);
},
{
name = topleft;
pos = (100,700);
}
);
layerId = "F5F01D5B-AEA3-4AC3-B3D8-92550D1582D7";
shapes = (
{
closed = 1;
nodes = (
(85,0,l),
(209,700,l),
(125,700,l),
(1,0,l)
);
}
);
width = 174;
},
{
anchors = (
{
name = bottom;
pos = (36,0);
},
{
name = ogonek;
pos = (71,0);
},
{
name = top;
pos = (160,700);
},
{
name = topleft;
pos = (100,700);
}
);
layerId = "3B8883BF-F483-4B97-AC7C-CABF8B821093";
shapes = (
{
closed = 1;
nodes = (
(71,0,l),
(195,700,l),
(125,700,l),
(1,0,l)
);
}
);
width = 160;
},
{
anchors = (
{
name = bottom;
pos = (11,0);
},
{
name = ogonek;
pos = (21,0);
},
{
name = top;
pos = (135,700);
},
{
name = topleft;
pos = (100,700);
}
);
layerId = "5D382461-81E1-4DF2-8677-8A6F02AD5363";
shapes = (
{
closed = 1;
nodes = (
(21,0,l),
(145,700,l),
(125,700,l),
(1,0,l)
);
}
);
width = 110;
},
{
anchors = (
{
name = bottom;
pos = (66,0);
},
{
name = ogonek;
pos = (197,0);
},
{
name = top;
pos = (236,700);
},
{
name = topleft;
pos = (175,700);
}
);
layerId = "1615C59E-33DE-4B88-B2CC-A48C7D56A125";
shapes = (
{
closed = 1;
nodes = (
(197,0,l),
(321,700,l),
(150,700,l),
(26,0,l)
);
}
);
width = 316;
},
{
anchors = (
{
name = bottom;
pos = (74,0);
},
{
name = ogonek;
pos = (115,0);
},
{
name = top;
pos = (196,700);
},
{
name = topleft;
pos = (113,700);
}
);
layerId = "A6F5E7A4-47EF-4F55-BF18-0ACACB57A720";
shapes = (
{
closed = 1;
nodes = (
(115,0,l),
(239,700,l),
(155,700,l),
(31,0,l)
);
}
);
width = 239;
},
{
anchors = (
{
name = bottom;
pos = (74,0);
},
{
name = ogonek;
pos = (108,0);
},
{
name = top;
pos = (197,700);
},
{
name = topleft;
pos = (97,700);
}
);
layerId = "2D111E5E-352D-4630-9162-BCEF010D26CF";
shapes = (
{
closed = 1;
nodes = (
(108,0,l),
(232,700,l),
(162,700,l),
(38,0,l)
);
}
);
width = 239;
},
{
anchors = (
{
name = bottom;
pos = (42,0);
},
{
name = ogonek;
pos = (52,0);
},
{
name = top;
pos = (165,700);
},
{
name = topleft;
pos = (97,700);
}
);
layerId = "EB62C368-BB48-47C0-A466-DA94204A0DE4";
shapes = (
{
closed = 1;
nodes = (
(52,0,l),
(176,700,l),
(156,700,l),
(32,0,l)
);
}
);
width = 176;
},
{
anchors = (
{
name = bottom;
pos = (104,0);
},
{
name = ogonek;
pos = (189,0);
},
{
name = top;
pos = (228,700);
},
{
name = topleft;
pos = (100,700);
}
);
layerId = "66953C5E-8AEB-4AF5-804F-512B0A9BA4E6";
shapes = (
{
closed = 1;
nodes = (
(189,0,l),
(313,700,l),
(142,700,l),
(18,0,l)
);
}
);
width = 295;
},
{
anchors = (
{
name = bottom;
pos = (44,0);
},
{
name = ogonek;
pos = (54,0);
},
{
name = top;
pos = (168,700);
},
{
name = topleft;
pos = (120,700);
}
);
layerId = "90D50F69-F6F7-4633-9462-ED0440D3064F";
shapes = (
{
closed = 1;
nodes = (
(54,0,l),
(178,700,l),
(158,700,l),
(34,0,l)
);
}
);
width = 175;
},
{
anchors = (
{
name = bottom;
pos = (68,0);
},
{
name = ogonek;
pos = (103,0);
},
{
name = top;
pos = (192,700);
},
{
name = topleft;
pos = (100,700);
}
);
layerId = "973C19EE-3504-4BDF-BF6D-4817D3AD4E7D";
shapes = (
{
closed = 1;
nodes = (
(103,0,l),
(226,700,l),
(156,700,l),
(33,0,l)
);
}
);
width = 223;
},
{
anchors = (
{
name = bottom;
pos = (73,0);
},
{
name = ogonek;
pos = (115,0);
},
{
name = top;
pos = (197,700);
},
{
name = topleft;
pos = (100,700);
}
);
layerId = "8231B9DE-059C-4C71-A8C4-ABDA89A7D05C";
shapes = (
{
closed = 1;
nodes = (
(115,0,l),
(238,700,l),
(154,700,l),
(31,0,l)
);
}
);
width = 233;
}
);
metricLeft = H;
metricRight = H;
unicode = 73;
userData = {
com.schriftgestaltung.Glyphs.ColorIndex = 4;
com.typemytype.robofont.guides = (
{
angle = 0;
isGlobal = 0;
magnetic = 5;
x = 83;
y = 684;
}
);
com.typesupply.AccentFactory.yCoordinates = {
bottom = {
name = origin;
type = glyphMetric;
};
top = {
name = capHeight;
type = fontInfo;
};
};
};
},
{
glyphname = J;
lastChange = "2023-05-19 14:03:36 +0000";
layers = (
{
anchors = (
{
name = bottom;
pos = (227,0);
},
{
name = top;
pos = (351,700);
}
);
layerId = "A390C1A2-E540-434D-BB9E-4BCEE875BA63";
shapes = (
{
closed = 1;
nodes = (
(358,-12,o),
(464,68,o),
(491,219,cs),
(576,700,l),
(405,700,l),
(320,219,ls),
(311,167,o),
(282,141,o),
(241,141,cs),
(197,141,o),
(176,170,o),
(187,230,c),
(17,230,l),
(-11,72,o),
(75,-12,o),
(219,-12,cs)
);
}
);
width = 541;
},
{
anchors = (
{
name = bottom;
pos = (188,0);
},
{
name = top;
pos = (312,700);
}
);
layerId = "F5F01D5B-AEA3-4AC3-B3D8-92550D1582D7";
shapes = (
{
closed = 1;
nodes = (
(299,-12,o),
(385,60,o),
(407,185,cs),
(498,700,l),
(414,700,l),
(323,185,ls),
(311,115,o),
(273,63,o),
(189,63,cs),
(99,63,o),
(78,117,o),
(90,188,c),
(9,188,l),
(-13,63,o),
(51,-12,o),
(177,-12,cs)
);
}
);
width = 463;
},
{
anchors = (
{
name = bottom;
pos = (182,0);
},
{
name = top;
pos = (306,700);
}
);
layerId = "3B8883BF-F483-4B97-AC7C-CABF8B821093";
shapes = (
{
closed = 1;
nodes = (
(290,-12,o),
(373,59,o),
(394,180,cs),
(486,700,l),
(416,700,l),
(324,180,ls),
(311,107,o),
(272,50,o),
(181,50,cs),
(88,50,o),
(68,109,o),
(79,181,c),
(8,181,l),
(-13,61,o),
(47,-12,o),
(170,-12,cs)
);
}
);
width = 451;
},
{
anchors = (
{
name = bottom;
pos = (160,0);
},
{
name = top;
pos = (284,700);
}
);
layerId = "5D382461-81E1-4DF2-8677-8A6F02AD5363";
shapes = (
{
closed = 1;
nodes = (
(257,-12,o),
(328,46,o),
(348,162,cs),
(443,700,l),
(423,700,l),
(329,169,ls),
(314,86,o),
(268,8,o),
(148,8,cs),
(34,8,o),
(13,79,o),
(24,156,c),
(4,156,l),
(-14,54,o),
(34,-12,o),
(145,-12,cs)
);
}
);
width = 408;
},
{
anchors = (
{
name = bottom;
pos = (200,0);
},
{
name = top;
pos = (447,700);
}
);
layerId = "1615C59E-33DE-4B88-B2CC-A48C7D56A125";
shapes = (
{
closed = 1;
nodes = (
(373,-12,o),
(479,68,o),
(506,219,cs),
(591,700,l),
(420,700,l),
(335,219,ls),
(326,167,o),
(297,141,o),
(256,141,cs),
(212,141,o),
(191,170,o),
(202,230,c),
(32,230,l),
(4,72,o),
(90,-12,o),
(234,-12,cs)
);
}
);
width = 586;
},
{
anchors = (
{
name = bottom;
pos = (223,0);
},
{
name = top;
pos = (346,700);
}
);
layerId = "A6F5E7A4-47EF-4F55-BF18-0ACACB57A720";
shapes = (
{
closed = 1;
nodes = (
(309,-12,o),
(395,60,o),
(417,185,cs),
(508,700,l),
(424,700,l),
(333,185,ls),
(321,115,o),
(283,63,o),
(199,63,cs),
(113,63,o),
(92,117,o),
(104,188,c),
(19,188,l),
(-3,63,o),
(61,-12,o),
(187,-12,cs)
);
}
);
width = 508;
},
{
anchors = (
{
name = bottom;
pos = (208,0);
},
{
name = top;
pos = (331,700);
}
);
layerId = "2D111E5E-352D-4630-9162-BCEF010D26CF";
shapes = (
{
closed = 1;
nodes = (
(305,-12,o),
(387,57,o),
(409,180,cs),
(501,700,l),
(431,700,l),
(339,180,ls),
(326,107,o),
(287,51,o),
(196,51,cs),
(103,51,o),
(83,109,o),
(94,181,c),
(23,181,l),
(2,61,o),
(62,-12,o),
(185,-12,cs)
);
}
);
width = 508;
},
{
anchors = (
{
name = bottom;
pos = (176,0);
},
{
name = top;
pos = (299,700);
}
);
layerId = "EB62C368-BB48-47C0-A466-DA94204A0DE4";
shapes = (
{
closed = 1;
nodes = (
(264,-12,o),
(328,46,o),
(351,174,cs),
(444,700,l),
(424,700,l),
(332,180,ls),
(314,78,o),
(268,8,o),
(157,8,cs),
(34,8,o),
(14,79,o),
(25,156,c),
(5,156,l),
(-13,54,o),
(42,-12,o),
(153,-12,cs)
);
}
);
width = 444;
},
{
anchors = (
{
name = bottom;
pos = (242,0);
},
{
name = top;
pos = (366,700);
}
);
layerId = "66953C5E-8AEB-4AF5-804F-512B0A9BA4E6";
shapes = (
{
closed = 1;
nodes = (
(364,-12,o),
(470,68,o),
(497,219,cs),
(582,700,l),
(411,700,l),
(326,219,ls),
(317,167,o),
(288,141,o),
(247,141,cs),
(203,141,o),
(182,170,o),
(193,230,c),
(23,230,l),
(-5,72,o),
(81,-12,o),
(225,-12,cs)
);
}
);
width = 564;
},
{
anchors = (
{
name = bottom;
pos = (194,0);
},
{
name = top;
pos = (318,700);
}
);
layerId = "90D50F69-F6F7-4633-9462-ED0440D3064F";
shapes = (
{
closed = 1;
nodes = (
(261,-12,o),
(332,46,o),
(352,162,cs),
(447,700,l),
(427,700,l),
(332,162,ls),
(317,79,o),
(265,8,o),
(151,8,cs),
(33,8,o),
(17,79,o),
(28,156,c),
(8,156,l),
(-10,54,o),
(38,-12,o),
(149,-12,cs)
);
}
);
width = 444;
},
{
anchors = (
{
name = bottom;
pos = (189,0);
},
{
name = top;
pos = (313,700);
}
);
layerId = "973C19EE-3504-4BDF-BF6D-4817D3AD4E7D";
shapes = (
{
closed = 1;
nodes = (
(277,-12,o),
(361,59,o),
(379,165,cs),
(472,700,l),
(402,700,l),
(309,165,ls),
(299,107,o),
(259,50,o),
(178,50,cs),
(95,50,o),
(74,109,o),
(86,179,c),
(15,179,l),
(-6,61,o),
(54,-12,o),
(167,-12,cs)
);
}
);
width = 470;
},
{
anchors = (
{
name = bottom;
pos = (196,0);
},
{
name = top;
pos = (320,700);
}
);
layerId = "8231B9DE-059C-4C71-A8C4-ABDA89A7D05C";
shapes = (
{
closed = 1;
nodes = (
(289,-12,o),
(376,60,o),
(396,172,cs),
(488,700,l),
(404,700,l),
(312,172,ls),
(302,115,o),
(263,63,o),
(188,63,cs),
(110,63,o),
(89,117,o),
(101,186,c),
(16,186,l),
(-6,63,o),
(58,-12,o),
(175,-12,cs)
);
}
);
width = 483;
}
);
metricRight = H;
unicode = 74;
userData = {
com.schriftgestaltung.Glyphs.ColorIndex = 4;
com.typesupply.AccentFactory.yCoordinates = {
bottom = {
name = origin;
type = glyphMetric;
};
top = {
name = capHeight;
type = fontInfo;
};
};
};
},
{
glyphname = K;
kernLeft = H;
kernRight = K;
lastChange = "2023-05-19 14:03:36 +0000";
layers = (
{
anchors = (
{
name = bottom;
pos = (289,0);
},
{
name = top;
pos = (413,700);
}
);
layerId = "A390C1A2-E540-434D-BB9E-4BCEE875BA63";
shapes = (
{
closed = 1;
nodes = (
(172,0,l),
(228,314,l),
(228,314,l),
(408,0,l),
(617,0,l),
(393,394,l),
(731,700,l),
(522,700,l),
(252,451,l),
(296,700,l),
(125,700,l),
(1,0,l)
);
}
);
width = 666;
},
{
anchors = (
{
name = bottom;
pos = (224,0);
},
{
name = top;
pos = (348,700);
}
);
layerId = "F5F01D5B-AEA3-4AC3-B3D8-92550D1582D7";
shapes = (
{
closed = 1;
nodes = (
(85,0,l),
(142,324,l),
(142,324,l),
(380,0,l),
(487,0,l),
(221,359,l),
(607,700,l),
(501,700,l),
(154,390,l),
(209,700,l),
(125,700,l),
(1,0,l)
);
}
);
width = 536;
},
{
anchors = (
{
name = bottom;
pos = (214,0);
},
{
name = top;
pos = (338,700);
}
);
layerId = "3B8883BF-F483-4B97-AC7C-CABF8B821093";
shapes = (
{
closed = 1;
nodes = (
(71,0,l),
(131,339,l),
(131,339,l),
(377,0,l),
(467,0,l),
(201,355,l),
(583,700,l),
(498,700,l),
(137,372,l),
(195,700,l),
(125,700,l),
(1,0,l)
);
}
);
width = 516;
},
{
anchors = (
{
name = bottom;
pos = (177,0);
},
{
name = top;
pos = (301,700);
}
);
layerId = "5D382461-81E1-4DF2-8677-8A6F02AD5363";
shapes = (
{
closed = 1;
nodes = (
(21,0,l),
(81,339,l),
(81,339,l),
(361,0,l),
(388,0,l),
(100,348,l),
(512,700,l),
(481,700,l),
(85,362,l),
(145,700,l),
(125,700,l),
(1,0,l)
);
}
);
width = 437;
},
{
anchors = (
{
name = bottom;
pos = (311,0);
},
{
name = top;
pos = (435,700);
}
);
layerId = "1615C59E-33DE-4B88-B2CC-A48C7D56A125";
shapes = (
{
closed = 1;
nodes = (
(197,0,l),
(238,230,l),
(306,292,l),
(433,0,l),
(642,0,l),
(451,424,l),
(756,700,l),
(547,700,l),
(277,451,l),
(321,700,l),
(150,700,l),
(26,0,l)
);
}
);
width = 717;
},
{
anchors = (
{
name = bottom;
pos = (265,0);
},
{
name = top;
pos = (388,700);
}
);
layerId = "A6F5E7A4-47EF-4F55-BF18-0ACACB57A720";
shapes = (
{
closed = 1;
nodes = (
(115,0,l),
(163,273,l),
(263,362,l),
(425,0,l),
(518,0,l),
(329,421,l),
(637,700,l),
(531,700,l),
(183,383,l),
(239,700,l),
(155,700,l),
(31,0,l)
);
}
);
width = 590;
},
{
anchors = (
{
name = bottom;
pos = (244,0);
},
{
name = top;
pos = (367,700);
}
);
layerId = "2D111E5E-352D-4630-9162-BCEF010D26CF";
shapes = (
{
closed = 1;
nodes = (
(108,0,l),
(158,280,l),
(254,366,l),
(418,0,l),
(503,0,l),
(314,421,l),
(624,700,l),
(534,700,l),
(174,372,l),
(232,700,l),
(162,700,l),
(38,0,l)
);
}
);
width = 579;
},
{
anchors = (
{
name = bottom;
pos = (199,0);
},
{
name = top;
pos = (322,700);
}
);
layerId = "EB62C368-BB48-47C0-A466-DA94204A0DE4";
shapes = (
{
closed = 1;
nodes = (
(52,0,l),
(106,305,l),
(217,403,l),
(401,0,l),
(422,0,l),
(233,419,l),
(547,700,l),
(516,700,l),
(111,333,l),
(176,700,l),
(156,700,l),
(32,0,l)
);
}
);
width = 490;
},
{
anchors = (
{
name = bottom;
pos = (303,0);
},
{
name = top;
pos = (428,700);
}
);
layerId = "66953C5E-8AEB-4AF5-804F-512B0A9BA4E6";
shapes = (
{
closed = 1;
nodes = (
(190,0,l),
(231,230,l),
(301,295,l),
(430,0,l),
(635,0,l),
(444,424,l),
(748,700,l),
(539,700,l),
(270,451,l),
(313,700,l),
(142,700,l),
(19,0,l)
);
}
);
width = 698;
},
{
anchors = (
{
name = bottom;
pos = (203,0);
},
{
name = top;
pos = (327,700);
}
);
layerId = "90D50F69-F6F7-4633-9462-ED0440D3064F";
shapes = (
{
closed = 1;
nodes = (
(54,0,l),
(114,339,l),
(114,339,l),
(394,0,l),
(422,0,l),
(132,350,l),
(545,700,l),
(517,700,l),
(118,362,l),
(178,700,l),
(158,700,l),
(34,0,l)
);
}
);
width = 486;
},
{
anchors = (
{
name = bottom;
pos = (241,0);
},
{
name = top;
pos = (363,700);
}
);
layerId = "973C19EE-3504-4BDF-BF6D-4817D3AD4E7D";
shapes = (
{
closed = 1;
nodes = (
(103,0,l),
(152,280,l),
(252,370,l),
(418,0,l),
(498,0,l),
(308,420,l),
(618,700,l),
(529,700,l),
(169,372,l),
(226,700,l),
(156,700,l),
(33,0,l)
);
}
);
width = 565;
},
{
anchors = (
{
name = bottom;
pos = (250,0);
},
{
name = top;
pos = (372.01,700);
}
);
layerId = "8231B9DE-059C-4C71-A8C4-ABDA89A7D05C";
shapes = (
{
closed = 1;
nodes = (
(115,0,l),
(163,273,l),
(259,360,l),
(420,0,l),
(517,0,l),
(327,421,l),
(636,700,l),
(530,700,l),
(183,383,l),
(238,700,l),
(154,700,l),
(31,0,l)
);
}
);
width = 583;
}
);
metricLeft = H;
unicode = 75;
userData = {
com.schriftgestaltung.Glyphs.ColorIndex = 4;
com.typesupply.AccentFactory.yCoordinates = {
bottom = {
name = origin;
type = glyphMetric;
};
top = {
name = capHeight;
type = fontInfo;
};
};
};
},
{
glyphname = L;
kernLeft = H;
kernRight = L;
lastChange = "2023-05-19 14:03:36 +0000";
layers = (
{
anchors = (
{
name = bottom;
pos = (219,0);
},
{
name = center;
pos = (281,350);
},
{
name = top;
pos = (212,700);
},
{
name = topright;
pos = (301,526);
}
);
guides = (
{
pos = (201,350);
}
);
layerId = "A390C1A2-E540-434D-BB9E-4BCEE875BA63";
shapes = (
{
closed = 1;
nodes = (
(466,0,l),
(490,132,l),
(196,132,l),
(296,700,l),
(125,700,l),
(1,0,l)
);
}
);
width = 525;
},
{
anchors = (
{
name = bottom;
pos = (191,0);
},
{
name = center;
pos = (253,350);
},
{
name = top;
pos = (169,700);
},
{
name = topright;
pos = (214,526);
}
);
layerId = "F5F01D5B-AEA3-4AC3-B3D8-92550D1582D7";
shapes = (
{
closed = 1;
nodes = (
(411,0,l),
(423,67,l),
(97,67,l),
(209,700,l),
(125,700,l),
(1,0,l)
);
}
);
width = 470;
},
{
anchors = (
{
name = bottom;
pos = (187,0);
},
{
name = center;
pos = (239,350);
},
{
name = top;
pos = (158,700);
},
{
name = topright;
pos = (200,526);
}
);
layerId = "3B8883BF-F483-4B97-AC7C-CABF8B821093";
shapes = (
{
closed = 1;
nodes = (
(402,0,l),
(412,57,l),
(81,57,l),
(195,700,l),
(125,700,l),
(1,0,l)
);
}
);
width = 461;
},
{
anchors = (
{
name = bottom;
pos = (189,0);
},
{
name = center;
pos = (195,350);
},
{
name = top;
pos = (135,700);
},
{
name = topright;
pos = (150,526);
}
);
layerId = "5D382461-81E1-4DF2-8677-8A6F02AD5363";
shapes = (
{
closed = 1;
nodes = (
(370,0,l),
(373,18,l),
(24,18,l),
(145,700,l),
(125,700,l),
(1,0,l)
);
}
);
width = 429;
},
{
anchors = (
{
name = bottom;
pos = (281,0);
},
{
name = center;
pos = (315,350);
},
{
name = top;
pos = (237,700);
},
{
name = topright;
pos = (326,526);
}
);
layerId = "1615C59E-33DE-4B88-B2CC-A48C7D56A125";
shapes = (
{
closed = 1;
nodes = (
(491,0,l),
(515,132,l),
(221,132,l),
(321,700,l),
(150,700,l),
(26,0,l)
);
}
);
width = 594;
},
{
anchors = (
{
name = bottom;
pos = (236,0);
},
{
name = center;
pos = (246,350);
},
{
name = top;
pos = (195,700);
},
{
name = topright;
pos = (244,526);
}
);
layerId = "A6F5E7A4-47EF-4F55-BF18-0ACACB57A720";
shapes = (
{
closed = 1;
nodes = (
(441,0,l),
(453,67,l),
(127,67,l),
(239,700,l),
(155,700,l),
(31,0,l)
);
}
);
width = 532;
},
{
anchors = (
{
name = bottom;
pos = (219,0);
},
{
name = center;
pos = (280,350);
},
{
name = top;
pos = (196,700);
},
{
name = topright;
pos = (237,526);
}
);
layerId = "2D111E5E-352D-4630-9162-BCEF010D26CF";
shapes = (
{
closed = 1;
nodes = (
(439,0,l),
(449,56,l),
(118,56,l),
(232,700,l),
(162,700,l),
(38,0,l)
);
}
);
width = 530;
},
{
anchors = (
{
name = bottom;
pos = (194,0);
},
{
name = center;
pos = (255,350);
},
{
name = top;
pos = (166,700);
},
{
name = topright;
pos = (181,526);
}
);
layerId = "EB62C368-BB48-47C0-A466-DA94204A0DE4";
shapes = (
{
closed = 1;
nodes = (
(401,0,l),
(404,18,l),
(55,18,l),
(176,700,l),
(156,700,l),
(32,0,l)
);
}
);
width = 480;
},
{
anchors = (
{
name = bottom;
pos = (245,0);
},
{
name = center;
pos = (307,350);
},
{
name = top;
pos = (229,700);
},
{
name = topright;
pos = (318,526);
}
);
layerId = "66953C5E-8AEB-4AF5-804F-512B0A9BA4E6";
shapes = (
{
closed = 1;
nodes = (
(484,0,l),
(507,132,l),
(213,132,l),
(313,700,l),
(142,700,l),
(19,0,l)
);
}
);
width = 578;
},
{
anchors = (
{
name = bottom;
pos = (201,0);
},
{
name = center;
pos = (263,350);
},
{
name = top;
pos = (170,700);
},
{
name = topright;
pos = (183,526);
}
);
layerId = "90D50F69-F6F7-4633-9462-ED0440D3064F";
shapes = (
{
closed = 1;
nodes = (
(403,0,l),
(406,18,l),
(57,18,l),
(178,700,l),
(158,700,l),
(34,0,l)
);
}
);
width = 480;
},
{
anchors = (
{
name = bottom;
pos = (215,0);
},
{
name = center;
pos = (277,350);
},
{
name = top;
pos = (194,700);
},
{
name = topright;
pos = (231,526);
}
);
layerId = "973C19EE-3504-4BDF-BF6D-4817D3AD4E7D";
shapes = (
{
closed = 1;
nodes = (
(434,0,l),
(444,57,l),
(113,57,l),
(226,700,l),
(156,700,l),
(33,0,l)
);
}
);
width = 518;
},
{
anchors = (
{
name = bottom;
pos = (219,0);
},
{
name = center;
pos = (281,350);
},
{
name = top;
pos = (195,700);
},
{
name = topright;
pos = (243,526);
}
);
layerId = "8231B9DE-059C-4C71-A8C4-ABDA89A7D05C";
shapes = (
{
closed = 1;
nodes = (
(441,0,l),
(453,67,l),
(127,67,l),
(238,700,l),
(154,700,l),
(31,0,l)
);
}
);
width = 526;
}
);
metricLeft = H;
unicode = 76;
userData = {
com.schriftgestaltung.Glyphs.ColorIndex = 4;
com.typesupply.AccentFactory.yCoordinates = {
bottom = {
name = origin;
type = glyphMetric;
};
top = {
name = capHeight;
type = fontInfo;
};
};
};
},
{
glyphname = Lslash;
kernRight = L;
lastChange = "2023-05-19 14:03:36 +0000";
layers = (
{
layerId = "A390C1A2-E540-434D-BB9E-4BCEE875BA63";
shapes = (
{
closed = 1;
nodes = (
(361,348,l),
(386,492,l),
(50,397,l),
(25,253,l)
);
},
{
alignment = -1;
pos = (49,0);
ref = L;
}
);
width = 574;
},
{
layerId = "F5F01D5B-AEA3-4AC3-B3D8-92550D1582D7";
shapes = (
{
closed = 1;
nodes = (
(328,392,l),
(339,459,l),
(34,351,l),
(23,284,l)
);
},
{
alignment = -1;
pos = (44,0);
ref = L;
}
);
width = 514;
},
{
layerId = "3B8883BF-F483-4B97-AC7C-CABF8B821093";
shapes = (
{
closed = 1;
nodes = (
(323,399,l),
(333,454,l),
(32,344,l),
(22,289,l)
);
},
{
alignment = -1;
pos = (43,0);
ref = L;
}
);
width = 504;
},
{
layerId = "5D382461-81E1-4DF2-8677-8A6F02AD5363";
shapes = (
{
closed = 1;
nodes = (
(303,415,l),
(306,435,l),
(23,317,l),
(20,298,l)
);
},
{
alignment = -1;
pos = (40,0);
ref = L;
}
);
width = 469;
},
{
layerId = "1615C59E-33DE-4B88-B2CC-A48C7D56A125";
shapes = (
{
closed = 1;
nodes = (
(377,348,l),
(402,492,l),
(66,397,l),
(41,253,l)
);
},
{
alignment = -1;
pos = (47,0);
ref = L;
}
);
width = 641;
},
{
layerId = "A6F5E7A4-47EF-4F55-BF18-0ACACB57A720";
shapes = (
{
closed = 1;
nodes = (
(326,392,l),
(337,459,l),
(32,351,l),
(21,284,l)
);
},
{
alignment = -1;
pos = (42,0);
ref = L;
}
);
width = 574;
},
{
layerId = "2D111E5E-352D-4630-9162-BCEF010D26CF";
shapes = (
{
closed = 1;
nodes = (
(320,399,l),
(330,454,l),
(29,344,l),
(19,289,l)
);
},
{
alignment = -1;
pos = (40,0);
ref = L;
}
);
width = 570;
},
{
layerId = "EB62C368-BB48-47C0-A466-DA94204A0DE4";
shapes = (
{
closed = 1;
nodes = (
(301,415,l),
(304,435,l),
(21,317,l),
(18,298,l)
);
},
{
alignment = -1;
pos = (38,0);
ref = L;
}
);
width = 518;
},
{
layerId = "66953C5E-8AEB-4AF5-804F-512B0A9BA4E6";
shapes = (
{
closed = 1;
nodes = (
(356,335,l),
(385,500,l),
(48,404,l),
(19,241,l)
);
},
{
pos = (23,0);
ref = L;
}
);
width = 601;
},
{
layerId = "90D50F69-F6F7-4633-9462-ED0440D3064F";
shapes = (
{
closed = 1;
nodes = (
(303,415,l),
(306,435,l),
(23,317,l),
(20,298,l)
);
},
{
alignment = -1;
pos = (40,0);
ref = L;
}
);
width = 520;
},
{
layerId = "973C19EE-3504-4BDF-BF6D-4817D3AD4E7D";
shapes = (
{
closed = 1;
nodes = (
(327,396,l),
(339,462,l),
(39,352,l),
(27,286,l)
);
},
{
pos = (26,0);
ref = L;
}
);
width = 544;
},
{
layerId = "8231B9DE-059C-4C71-A8C4-ABDA89A7D05C";
shapes = (
{
closed = 1;
nodes = (
(331,388,l),
(345,467,l),
(40,359,l),
(26,280,l)
);
},
{
alignment = -1;
pos = (26,0);
ref = L;
}
);
width = 552;
}
);
metricRight = L;
unicode = 321;
userData = {
com.schriftgestaltung.Glyphs.ColorIndex = 4;
};
},
{
glyphname = M;
kernLeft = H;
kernRight = H;
lastChange = "2023-05-19 14:03:36 +0000";
layers = (
{
anchors = (
{
name = bottom;
pos = (399,0);
},
{
name = top;
pos = (523,700);
}
);
guides = (
{
angle = 180;
pos = (236,408);
}
);
layerId = "A390C1A2-E540-434D-BB9E-4BCEE875BA63";
shapes = (
{
closed = 1;
nodes = (
(172,0,l),
(248,428,l),
(252,428,l),
(338,100,l),
(491,100,l),
(697,428,l),
(701,428,l),
(625,0,l),
(796,0,l),
(920,700,l),
(705,700,l),
(453,283,l),
(449,283,l),
(341,700,l),
(125,700,l),
(1,0,l)
);
}
);
width = 885;
},
{
anchors = (
{
name = bottom;
pos = (351,0);
},
{
name = top;
pos = (475,700);
}
);
guides = (
{
angle = 180;
pos = (151,573);
}
);
layerId = "F5F01D5B-AEA3-4AC3-B3D8-92550D1582D7";
shapes = (
{
closed = 1;
nodes = (
(85,0,l),
(186,573,l),
(190,573,l),
(310,100,l),
(428,100,l),
(713,573,l),
(717,573,l),
(616,0,l),
(700,0,l),
(824,700,l),
(700,700,l),
(383,170,l),
(379,170,l),
(249,700,l),
(125,700,l),
(1,0,l)
);
}
);
width = 789;
},
{
anchors = (
{
name = bottom;
pos = (343,0);
},
{
name = top;
pos = (467,700);
}
);
layerId = "3B8883BF-F483-4B97-AC7C-CABF8B821093";
shapes = (
{
closed = 1;
nodes = (
(71,0,l),
(181,620,l),
(185,620,l),
(311,100,l),
(401,100,l),
(720,620,l),
(724,620,l),
(614,0,l),
(684,0,l),
(808,700,l),
(692,700,l),
(371,164,l),
(367,164,l),
(236,700,l),
(125,700,l),
(1,0,l)
);
}
);
width = 773;
},
{
anchors = (
{
name = bottom;
pos = (315,0);
},
{
name = top;
pos = (439,700);
}
);
guides = (
{
angle = 180;
pos = (87,686);
}
);
layerId = "5D382461-81E1-4DF2-8677-8A6F02AD5363";
shapes = (
{
closed = 1;
nodes = (
(21,0,l),
(136,653,l),
(140,653,l),
(321,100,l),
(345,100,l),
(720,652,l),
(724,652,l),
(609,0,l),
(629,0,l),
(753,700,l),
(728,700,l),
(338,124,l),
(334,124,l),
(147,700,l),
(125,700,l),
(1,0,l)
);
}
);
width = 718;
},
{
anchors = (
{
name = bottom;
pos = (364,0);
},
{
name = top;
pos = (611,700);
}
);
layerId = "1615C59E-33DE-4B88-B2CC-A48C7D56A125";
shapes = (
{
closed = 1;
nodes = (
(197,0,l),
(270,410,l),
(270,410,l),
(358,92,l),
(496,92,l),
(695,410,l),
(695,410,l),
(622,0,l),
(793,0,l),
(917,700,l),
(712,700,l),
(465,299,l),
(465,299,l),
(356,700,l),
(150,700,l),
(26,0,l)
);
}
);
width = 912;
},
{
anchors = (
{
name = bottom;
pos = (383,0);
},
{
name = top;
pos = (506,700);
}
);
layerId = "A6F5E7A4-47EF-4F55-BF18-0ACACB57A720";
shapes = (
{
closed = 1;
nodes = (
(115,0,l),
(211,545,l),
(211,545,l),
(352,92,l),
(415,92,l),
(715,549,l),
(715,549,l),
(618,0,l),
(702,0,l),
(826,700,l),
(727,700,l),
(404,207,l),
(404,207,l),
(253,700,l),
(155,700,l),
(31,0,l)
);
}
);
width = 826;
},
{
anchors = (
{
name = bottom;
pos = (366,0);
},
{
name = top;
pos = (489,700);
}
);
layerId = "2D111E5E-352D-4630-9162-BCEF010D26CF";
shapes = (
{
closed = 1;
nodes = (
(108,0,l),
(209,572,l),
(209,572,l),
(355,92,l),
(410,92,l),
(724,574,l),
(724,574,l),
(623,0,l),
(693,0,l),
(817,700,l),
(735,700,l),
(398,185,l),
(398,185,l),
(243,700,l),
(162,700,l),
(38,0,l)
);
}
);
width = 824;
},
{
anchors = (
{
name = bottom;
pos = (332,0);
},
{
name = top;
pos = (455,700);
}
);
layerId = "EB62C368-BB48-47C0-A466-DA94204A0DE4";
shapes = (
{
closed = 1;
nodes = (
(52,0,l),
(168,656,l),
(168,656,l),
(336,92,l),
(360,92,l),
(729,660,l),
(729,660,l),
(612,0,l),
(632,0,l),
(756,700,l),
(733,700,l),
(351,113,l),
(351,113,l),
(177,700,l),
(156,700,l),
(32,0,l)
);
}
);
width = 756;
},
{
anchors = (
{
name = bottom;
pos = (416,0);
},
{
name = top;
pos = (540,700);
}
);
guides = (
{
angle = 79.9827;
pos = (832,351);
},
{
angle = 79.9827;
pos = (-25,0);
}
);
layerId = "66953C5E-8AEB-4AF5-804F-512B0A9BA4E6";
shapes = (
{
closed = 1;
nodes = (
(190,0,l),
(263,417,l),
(263,417,l),
(366,100,l),
(504,100,l),
(716,416,l),
(716,416,l),
(643,0,l),
(814,0,l),
(937,700,l),
(732,700,l),
(472,301,l),
(472,301,l),
(348,700,l),
(142,700,l),
(19,0,l)
);
}
);
width = 920;
},
{
anchors = (
{
name = bottom;
pos = (366,0);
},
{
name = top;
pos = (490,700);
}
);
guides = (
{
angle = 180;
pos = (120,686);
}
);
layerId = "90D50F69-F6F7-4633-9462-ED0440D3064F";
shapes = (
{
closed = 1;
nodes = (
(54,0,l),
(171,660,l),
(171,660,l),
(354,100,l),
(378,100,l),
(759,660,l),
(759,660,l),
(642,0,l),
(662,0,l),
(786,700,l),
(762,700,l),
(370,120,l),
(370,120,l),
(181,700,l),
(158,700,l),
(34,0,l)
);
}
);
width = 783;
},
{
anchors = (
{
name = bottom;
pos = (374,0);
},
{
name = top;
pos = (498,700);
}
);
guides = (
{
angle = 79.9731;
pos = (732,345);
},
{
angle = 79.9731;
pos = (26,210);
}
);
layerId = "973C19EE-3504-4BDF-BF6D-4817D3AD4E7D";
shapes = (
{
closed = 1;
nodes = (
(103,0,l),
(203,569,l),
(203,569,l),
(367,100,l),
(418,100,l),
(746,571,l),
(746,571,l),
(646,0,l),
(716,0,l),
(839,700,l),
(758,700,l),
(409,198,l),
(409,198,l),
(236,700,l),
(156,700,l),
(33,0,l)
);
}
);
width = 836;
},
{
anchors = (
{
name = bottom;
pos = (380,0);
},
{
name = top;
pos = (504,700);
}
);
layerId = "8231B9DE-059C-4C71-A8C4-ABDA89A7D05C";
shapes = (
{
closed = 1;
nodes = (
(115,0,l),
(212,549,l),
(212,549,l),
(367,100,l),
(430,100,l),
(743,550,l),
(743,550,l),
(646,0,l),
(730,0,l),
(853,700,l),
(754,700,l),
(418,212,l),
(418,212,l),
(252,700,l),
(154,700,l),
(31,0,l)
);
}
);
width = 848;
}
);
metricLeft = H;
metricRight = H;
unicode = 77;
userData = {
com.schriftgestaltung.Glyphs.ColorIndex = 4;
com.typesupply.AccentFactory.yCoordinates = {
bottom = {
name = origin;
type = glyphMetric;
};
top = {
name = capHeight;
type = fontInfo;
};
};
};
},
{
glyphname = N;
kernLeft = H;
kernRight = H;
lastChange = "2023-05-19 14:03:36 +0000";
layers = (
{
anchors = (
{
name = bottom;
pos = (315,0);
},
{
name = top;
pos = (439,700);
}
);
layerId = "A390C1A2-E540-434D-BB9E-4BCEE875BA63";
shapes = (
{
closed = 1;
nodes = (
(172,0,l),
(253,456,l),
(257,456,l),
(428,0,l),
(629,0,l),
(753,700,l),
(582,700,l),
(501,243,l),
(497,243,l),
(326,700,l),
(125,700,l),
(1,0,l)
);
}
);
width = 718;
},
{
anchors = (
{
name = bottom;
pos = (272,0);
},
{
name = top;
pos = (396,700);
}
);
guides = (
{
pos = (649,121);
}
);
layerId = "F5F01D5B-AEA3-4AC3-B3D8-92550D1582D7";
shapes = (
{
closed = 1;
nodes = (
(85,0,l),
(192,606,l),
(196,606,l),
(422,0,l),
(542,0,l),
(666,700,l),
(582,700,l),
(475,94,l),
(471,94,l),
(245,700,l),
(125,700,l),
(1,0,l)
);
}
);
width = 631;
},
{
anchors = (
{
name = bottom;
pos = (265,0);
},
{
name = top;
pos = (389,700);
}
);
layerId = "3B8883BF-F483-4B97-AC7C-CABF8B821093";
shapes = (
{
closed = 1;
nodes = (
(71,0,l),
(183,632,l),
(187,632,l),
(422,0,l),
(528,0,l),
(652,700,l),
(582,700,l),
(471,73,l),
(467,73,l),
(235,700,l),
(125,700,l),
(1,0,l)
);
}
);
width = 617;
},
{
anchors = (
{
name = bottom;
pos = (240,0);
},
{
name = top;
pos = (364,700);
}
);
layerId = "5D382461-81E1-4DF2-8677-8A6F02AD5363";
shapes = (
{
closed = 1;
nodes = (
(21,0,l),
(139,667,l),
(143,667,l),
(454,0,l),
(478,0,l),
(602,700,l),
(582,700,l),
(464,35,l),
(460,35,l),
(150,700,l),
(125,700,l),
(1,0,l)
);
}
);
width = 567;
},
{
anchors = (
{
name = bottom;
pos = (340,0);
},
{
name = top;
pos = (464,700);
}
);
layerId = "1615C59E-33DE-4B88-B2CC-A48C7D56A125";
shapes = (
{
closed = 1;
nodes = (
(197,0,l),
(273,427,l),
(273,427,l),
(483,0,l),
(654,0,l),
(778,700,l),
(607,700,l),
(531,271,l),
(531,271,l),
(321,700,l),
(150,700,l),
(26,0,l)
);
}
);
width = 773;
},
{
anchors = (
{
name = bottom;
pos = (318,0);
},
{
name = top;
pos = (441,700);
}
);
layerId = "A6F5E7A4-47EF-4F55-BF18-0ACACB57A720";
shapes = (
{
closed = 1;
nodes = (
(115,0,l),
(214,562,l),
(214,562,l),
(488,0,l),
(572,0,l),
(696,700,l),
(612,700,l),
(513,138,l),
(513,138,l),
(239,700,l),
(155,700,l),
(31,0,l)
);
}
);
width = 696;
},
{
anchors = (
{
name = bottom;
pos = (302,0);
},
{
name = top;
pos = (425,700);
}
);
layerId = "2D111E5E-352D-4630-9162-BCEF010D26CF";
shapes = (
{
closed = 1;
nodes = (
(108,0,l),
(212,586,l),
(212,586,l),
(494,0,l),
(565,0,l),
(689,700,l),
(619,700,l),
(515,114,l),
(515,114,l),
(233,700,l),
(162,700,l),
(38,0,l)
);
}
);
width = 696;
},
{
anchors = (
{
name = bottom;
pos = (271,0);
},
{
name = top;
pos = (394,700);
}
);
layerId = "EB62C368-BB48-47C0-A466-DA94204A0DE4";
shapes = (
{
closed = 1;
nodes = (
(52,0,l),
(171,673,l),
(171,673,l),
(486,0,l),
(509,0,l),
(633,700,l),
(613,700,l),
(495,30,l),
(495,30,l),
(181,700,l),
(156,700,l),
(32,0,l)
);
}
);
width = 633;
},
{
anchors = (
{
name = bottom;
pos = (332,0);
},
{
name = top;
pos = (456,700);
}
);
layerId = "66953C5E-8AEB-4AF5-804F-512B0A9BA4E6";
shapes = (
{
closed = 1;
nodes = (
(189,0,l),
(266,433,l),
(266,433,l),
(475,0,l),
(646,0,l),
(770,700,l),
(599,700,l),
(522,267,l),
(522,267,l),
(315,700,l),
(142,700,l),
(18,0,l)
);
}
);
width = 752;
},
{
anchors = (
{
name = bottom;
pos = (273,0);
},
{
name = top;
pos = (397,700);
}
);
layerId = "90D50F69-F6F7-4633-9462-ED0440D3064F";
shapes = (
{
closed = 1;
nodes = (
(54,0,l),
(173,673,l),
(173,673,l),
(489,0,l),
(511,0,l),
(635,700,l),
(615,700,l),
(497,32,l),
(497,32,l),
(183,700,l),
(158,700,l),
(34,0,l)
);
}
);
width = 632;
},
{
anchors = (
{
name = bottom;
pos = (297,0);
},
{
name = top;
pos = (419,700);
}
);
layerId = "973C19EE-3504-4BDF-BF6D-4817D3AD4E7D";
shapes = (
{
closed = 1;
nodes = (
(103,0,l),
(207,589,l),
(207,589,l),
(490,0,l),
(560,0,l),
(683,700,l),
(613,700,l),
(510,112,l),
(510,112,l),
(225,700,l),
(156,700,l),
(33,0,l)
);
}
);
width = 680;
},
{
anchors = (
{
name = bottom;
pos = (302,0);
},
{
name = top;
pos = (424,700);
}
);
layerId = "8231B9DE-059C-4C71-A8C4-ABDA89A7D05C";
shapes = (
{
closed = 1;
nodes = (
(115,0,l),
(215,567,l),
(215,567,l),
(488,0,l),
(572,0,l),
(695,700,l),
(611,700,l),
(512,133,l),
(512,133,l),
(237,700,l),
(154,700,l),
(31,0,l)
);
}
);
width = 690;
}
);
metricLeft = H;
metricRight = H;
unicode = 78;
userData = {
com.schriftgestaltung.Glyphs.ColorIndex = 4;
com.typesupply.AccentFactory.yCoordinates = {
bottom = {
name = origin;
type = glyphMetric;
};
top = {
name = capHeight;
type = fontInfo;
};
};
};
},
{
glyphname = Eng;
lastChange = "2023-05-19 14:03:36 +0000";
layers = (
{
anchors = (
{
name = bottom;
pos = (313,0);
},
{
name = top;
pos = (313,700);
}
);
layerId = "EB62C368-BB48-47C0-A466-DA94204A0DE4";
shapes = (
{
closed = 1;
nodes = (
(52,0,l),
(170,673,l),
(170,673,l),
(489,0,l),
(468,-118,ls),
(457,-178,o),
(431,-201,o),
(370,-201,cs),
(333,-201,l),
(330,-220,l),
(371,-220,ls),
(445,-220,o),
(476,-183,o),
(487,-123,cs),
(632,700,l),
(612,700,l),
(495,37,l),
(495,37,l),
(181,700,l),
(155,700,l),
(32,0,l)
);
}
);
width = 632;
},
{
anchors = (
{
name = bottom;
pos = (344,0);
},
{
name = top;
pos = (344,700);
}
);
layerId = "2D111E5E-352D-4630-9162-BCEF010D26CF";
shapes = (
{
closed = 1;
nodes = (
(108,0,l),
(211,586,l),
(211,586,l),
(495,0,l),
(479,-89,ls),
(470,-141,o),
(445,-160,o),
(393,-160,cs),
(354,-160,l),
(344,-220,l),
(394,-220,ls),
(482,-220,o),
(533,-179,o),
(549,-91,cs),
(688,700,l),
(618,700,l),
(515,114,l),
(515,114,l),
(232,700,l),
(161,700,l),
(38,0,l)
);
}
);
width = 695;
},
{
anchors = (
{
name = bottom;
pos = (344,0);
},
{
name = top;
pos = (344,700);
}
);
layerId = "A6F5E7A4-47EF-4F55-BF18-0ACACB57A720";
shapes = (
{
closed = 1;
nodes = (
(115,0,l),
(214,562,l),
(214,562,l),
(488,0,l),
(474,-80,ls),
(465,-130,o),
(442,-148,o),
(392,-148,cs),
(353,-148,l),
(340,-220,l),
(392,-220,ls),
(484,-220,o),
(540,-178,o),
(557,-82,cs),
(695,700,l),
(611,700,l),
(512,138,l),
(512,138,l),
(238,700,l),
(154,700,l),
(31,0,l)
);
}
);
width = 695;
},
{
anchors = (
{
name = bottom;
pos = (382,0);
},
{
name = top;
pos = (382,700);
}
);
layerId = "1615C59E-33DE-4B88-B2CC-A48C7D56A125";
shapes = (
{
closed = 1;
nodes = (
(197,0,l),
(272,427,l),
(272,427,l),
(484,0,l),
(479,-28,ls),
(473,-61,o),
(456,-75,o),
(418,-75,cs),
(376,-75,l),
(351,-220,l),
(419,-220,ls),
(535,-220,o),
(624,-171,o),
(649,-26,cs),
(777,700,l),
(606,700,l),
(530,271,l),
(530,271,l),
(320,700,l),
(149,700,l),
(26,0,l)
);
}
);
width = 772;
},
{
anchors = (
{
name = bottom;
pos = (316,0);
},
{
name = top;
pos = (316,700);
}
);
layerId = "90D50F69-F6F7-4633-9462-ED0440D3064F";
shapes = (
{
closed = 1;
nodes = (
(55,0,l),
(173,673,l),
(173,673,l),
(492,0,l),
(471,-116,ls),
(461,-173,o),
(438,-200,o),
(373,-200,cs),
(337,-200,l),
(334,-220,l),
(373,-220,ls),
(448,-220,o),
(480,-182,o),
(490,-123,cs),
(635,700,l),
(615,700,l),
(498,38,l),
(498,38,l),
(184,700,l),
(158,700,l),
(35,0,l)
);
}
);
width = 632;
},
{
anchors = (
{
name = bottom;
pos = (339,0);
},
{
name = top;
pos = (339,700);
}
);
layerId = "973C19EE-3504-4BDF-BF6D-4817D3AD4E7D";
shapes = (
{
closed = 1;
nodes = (
(103,0,l),
(205,583,l),
(205,583,l),
(490,0,l),
(474,-88,ls),
(465,-141,o),
(440,-160,o),
(388,-160,cs),
(350,-160,l),
(340,-220,l),
(389,-220,ls),
(477,-220,o),
(528,-179,o),
(544,-91,cs),
(683,700,l),
(613,700,l),
(510,118,l),
(510,118,l),
(226,700,l),
(156,700,l),
(33,0,l)
);
}
);
width = 680;
},
{
anchors = (
{
name = bottom;
pos = (344,0);
},
{
name = top;
pos = (344,700);
}
);
layerId = "8231B9DE-059C-4C71-A8C4-ABDA89A7D05C";
shapes = (
{
closed = 1;
nodes = (
(115,0,l),
(214,561,l),
(214,561,l),
(488,0,l),
(474,-80,ls),
(465,-130,o),
(442,-148,o),
(392,-148,cs),
(353,-148,l),
(340,-220,l),
(392,-220,ls),
(484,-220,o),
(540,-178,o),
(557,-82,cs),
(695,700,l),
(611,700,l),
(512,139,l),
(512,139,l),
(238,700,l),
(154,700,l),
(31,0,l)
);
}
);
width = 689;
},
{
anchors = (
{
name = bottom;
pos = (375,0);
},
{
name = top;
pos = (375,700);
}
);
layerId = "66953C5E-8AEB-4AF5-804F-512B0A9BA4E6";
shapes = (
{
closed = 1;
nodes = (
(190,0,l),
(265,425,l),
(265,425,l),
(476,0,l),
(471,-28,ls),
(465,-61,o),
(448,-75,o),
(410,-75,cs),
(369,-75,l),
(344,-220,l),
(411,-220,ls),
(527,-220,o),
(617,-171,o),
(642,-26,cs),
(770,700,l),
(599,700,l),
(524,273,l),
(524,273,l),
(313,700,l),
(142,700,l),
(19,0,l)
);
}
);
width = 752;
},
{
anchors = (
{
name = bottom;
pos = (285,0);
},
{
name = top;
pos = (285,700);
}
);
layerId = "5D382461-81E1-4DF2-8677-8A6F02AD5363";
shapes = (
{
closed = 1;
nodes = (
(22,0,l),
(140,667,l),
(144,667,l),
(459,0,l),
(442,-96,ls),
(432,-153,o),
(409,-180,o),
(344,-180,cs),
(308,-180,l),
(305,-200,l),
(344,-200,ls),
(419,-200,o),
(450,-162,o),
(461,-103,cs),
(602,700,l),
(582,700,l),
(466,39,l),
(462,39,l),
(151,700,l),
(125,700,l),
(2,0,l)
);
}
);
width = 568;
},
{
anchors = (
{
name = bottom;
pos = (310,0);
},
{
name = top;
pos = (310,700);
}
);
layerId = "3B8883BF-F483-4B97-AC7C-CABF8B821093";
shapes = (
{
closed = 1;
nodes = (
(72,0,l),
(183,632,l),
(187,632,l),
(459,0,l),
(447,-68,ls),
(438,-121,o),
(413,-140,o),
(361,-140,cs),
(323,-140,l),
(313,-200,l),
(362,-200,ls),
(450,-200,o),
(501,-159,o),
(516,-71,cs),
(652,700,l),
(582,700,l),
(482,133,l),
(478,133,l),
(235,700,l),
(125,700,l),
(2,0,l)
);
}
);
width = 617;
},
{
anchors = (
{
name = bottom;
pos = (317,0);
},
{
name = top;
pos = (317,700);
}
);
layerId = "F5F01D5B-AEA3-4AC3-B3D8-92550D1582D7";
shapes = (
{
closed = 1;
nodes = (
(86,0,l),
(193,606,l),
(197,606,l),
(459,0,l),
(448,-60,ls),
(439,-115,o),
(415,-133,o),
(365,-133,cs),
(326,-133,l),
(315,-200,l),
(367,-200,ls),
(459,-200,o),
(515,-158,o),
(532,-62,cs),
(666,700,l),
(582,700,l),
(486,151,l),
(482,151,l),
(245,700,l),
(125,700,l),
(2,0,l)
);
}
);
width = 632;
},
{
anchors = (
{
name = bottom;
pos = (360,0);
},
{
name = top;
pos = (360,700);
}
);
layerId = "A390C1A2-E540-434D-BB9E-4BCEE875BA63";
shapes = (
{
closed = 1;
nodes = (
(173,0,l),
(253,456,l),
(257,456,l),
(459,0,l),
(458,-8,ls),
(452,-41,o),
(435,-55,o),
(397,-55,cs),
(356,-55,l),
(331,-200,l),
(398,-200,ls),
(514,-200,o),
(603,-151,o),
(629,-6,cs),
(753,700,l),
(582,700,l),
(509,283,l),
(505,283,l),
(326,700,l),
(125,700,l),
(2,0,l)
);
}
);
width = 719;
}
);
metricLeft = N;
metricRight = N;
unicode = 330;
},
{
glyphname = O;
kernLeft = O;
kernRight = O;
lastChange = "2023-05-19 14:03:36 +0000";
layers = (
{
anchors = (
{
name = bottom;
pos = (347,0);
},
{
name = center;
pos = (409,350);
},
{
name = ogonek;
pos = (662,10);
},
{
name = top;
pos = (471,700);
},
{
name = topleft;
pos = (100,700);
},
{
name = topright;
pos = (842,700);
}
);
layerId = "A390C1A2-E540-434D-BB9E-4BCEE875BA63";
shapes = (
{
closed = 1;
nodes = (
(555,-12,o),
(727,136,o),
(765,350,cs),
(803,564,o),
(683,712,o),
(473,712,cs),
(263,712,o),
(91,564,o),
(53,350,cs),
(15,136,o),
(135,-12,o),
(345,-12,cs)
);
},
{
closed = 1;
nodes = (
(260,143,o),
(205,223,o),
(227,350,cs),
(249,477,o),
(332,557,o),
(445,557,cs),
(558,557,o),
(613,477,o),
(591,350,cs),
(569,223,o),
(486,143,o),
(373,143,cs)
);
}
);
width = 782;
},
{
anchors = (
{
name = bottom;
pos = (336,0);
},
{
name = center;
pos = (398,350);
},
{
name = ogonek;
pos = (642,10);
},
{
name = top;
pos = (460,700);
},
{
name = topleft;
pos = (100,700);
},
{
name = topright;
pos = (820,700);
}
);
layerId = "F5F01D5B-AEA3-4AC3-B3D8-92550D1582D7";
shapes = (
{
closed = 1;
nodes = (
(542,-12,o),
(705,135,o),
(743,350,cs),
(781,564,o),
(670,712,o),
(462,712,cs),
(256,712,o),
(91,564,o),
(53,350,cs),
(15,135,o),
(128,-12,o),
(334,-12,cs)
);
},
{
closed = 1;
nodes = (
(184,62,o),
(107,170,o),
(139,350,cs),
(171,530,o),
(295,637,o),
(453,637,cs),
(614,637,o),
(689,530,o),
(657,350,cs),
(625,170,o),
(494,62,o),
(347,62,cs)
);
}
);
width = 760;
},
{
anchors = (
{
name = bottom;
pos = (334,0);
},
{
name = center;
pos = (396,350);
},
{
name = ogonek;
pos = (638,10);
},
{
name = top;
pos = (458,700);
},
{
name = topleft;
pos = (100,700);
},
{
name = topright;
pos = (816,700);
}
);
layerId = "3B8883BF-F483-4B97-AC7C-CABF8B821093";
shapes = (
{
closed = 1;
nodes = (
(539,-12,o),
(701,135,o),
(739,350,cs),
(777,564,o),
(667,712,o),
(460,712,cs),
(254,712,o),
(91,564,o),
(53,350,cs),
(15,135,o),
(126,-12,o),
(332,-12,cs)
);
},
{
closed = 1;
nodes = (
(182,49,o),
(92,162,o),
(125,350,cs),
(158,538,o),
(288,650,o),
(449,650,cs),
(610,650,o),
(700,538,o),
(667,350,cs),
(634,162,o),
(504,49,o),
(343,49,cs)
);
}
);
width = 756;
},
{
anchors = (
{
name = bottom;
pos = (328,0);
},
{
name = center;
pos = (390,350);
},
{
name = ogonek;
pos = (627,10);
},
{
name = top;
pos = (452,700);
},
{
name = topleft;
pos = (100,700);
},
{
name = topright;
pos = (803,700);
}
);
layerId = "5D382461-81E1-4DF2-8677-8A6F02AD5363";
shapes = (
{
closed = 1;
nodes = (
(529,-12,o),
(688,135,o),
(726,350,cs),
(764,564,o),
(657,712,o),
(453,712,cs),
(249,712,o),
(91,564,o),
(53,350,cs),
(15,135,o),
(121,-12,o),
(325,-12,cs)
);
},
{
closed = 1;
nodes = (
(144,8,o),
(36,132,o),
(74,350,cs),
(111,561,o),
(276,694,o),
(455,694,cs),
(630,694,o),
(742,568,o),
(704,350,cs),
(666,132,o),
(503,8,o),
(329,8,cs)
);
}
);
width = 743;
},
{
anchors = (
{
name = bottom;
pos = (291,0);
},
{
name = center;
pos = (414,350);
},
{
name = ogonek;
pos = (600,10);
},
{
name = top;
pos = (462,700);
},
{
name = topleft;
pos = (174,700);
},
{
name = topright;
pos = (901,700);
}
);
layerId = "1615C59E-33DE-4B88-B2CC-A48C7D56A125";
shapes = (
{
closed = 1;
nodes = (
(532,-12,o),
(696,136,o),
(734,350,cs),
(772,564,o),
(660,712,o),
(463,712,cs),
(265,712,o),
(101,564,o),
(63,350,cs),
(25,136,o),
(137,-12,o),
(335,-12,cs)
);
},
{
closed = 1;
nodes = (
(262,143,o),
(215,223,o),
(237,350,cs),
(259,477,o),
(334,557,o),
(435,557,cs),
(535,557,o),
(582,477,o),
(560,350,cs),
(538,223,o),
(463,143,o),
(363,143,cs)
);
}
);
width = 767;
},
{
anchors = (
{
name = bottom;
pos = (342,0);
},
{
name = center;
pos = (403,350);
},
{
name = ogonek;
pos = (641,10);
},
{
name = top;
pos = (465,700);
},
{
name = topleft;
pos = (112,700);
},
{
name = topright;
pos = (818,700);
}
);
layerId = "A6F5E7A4-47EF-4F55-BF18-0ACACB57A720";
shapes = (
{
closed = 1;
nodes = (
(520,-12,o),
(674,135,o),
(712,350,cs),
(750,564,o),
(648,712,o),
(452,712,cs),
(259,712,o),
(102,564,o),
(64,350,cs),
(26,135,o),
(131,-12,o),
(324,-12,cs)
);
},
{
closed = 1;
nodes = (
(195,62,o),
(118,170,o),
(150,350,cs),
(182,530,o),
(297,637,o),
(439,637,cs),
(582,637,o),
(658,530,o),
(626,350,cs),
(594,170,o),
(480,62,o),
(337,62,cs)
);
}
);
width = 746;
},
{
anchors = (
{
name = bottom;
pos = (328,0);
},
{
name = center;
pos = (389,350);
},
{
name = ogonek;
pos = (628,10);
},
{
name = top;
pos = (451,700);
},
{
name = topleft;
pos = (97,700);
},
{
name = topright;
pos = (805,700);
}
);
layerId = "2D111E5E-352D-4630-9162-BCEF010D26CF";
shapes = (
{
closed = 1;
nodes = (
(520,-12,o),
(673,135,o),
(711,350,cs),
(749,564,o),
(648,712,o),
(453,712,cs),
(260,712,o),
(105,564,o),
(67,350,cs),
(29,135,o),
(132,-12,o),
(325,-12,cs)
);
},
{
closed = 1;
nodes = (
(189,50,o),
(106,162,o),
(139,350,cs),
(172,538,o),
(295,649,o),
(442,649,cs),
(590,649,o),
(672,538,o),
(639,350,cs),
(606,162,o),
(484,50,o),
(336,50,cs)
);
}
);
width = 748;
},
{
anchors = (
{
name = bottom;
pos = (317,0);
},
{
name = center;
pos = (378,350);
},
{
name = ogonek;
pos = (608,10);
},
{
name = top;
pos = (440,700);
},
{
name = topleft;
pos = (97,700);
},
{
name = topright;
pos = (782,700);
}
);
guides = (
{
angle = 270;
pos = (693,350);
},
{
angle = 270;
pos = (740,350);
}
);
layerId = "EB62C368-BB48-47C0-A466-DA94204A0DE4";
shapes = (
{
closed = 1;
nodes = (
(506,-12,o),
(655,135,o),
(693,350,cs),
(731,564,o),
(634,712,o),
(441,712,cs),
(250,712,o),
(100,564,o),
(62,350,cs),
(24,135,o),
(122,-12,o),
(313,-12,cs)
);
},
{
closed = 1;
nodes = (
(150,8,o),
(45,133,o),
(83,350,cs),
(121,568,o),
(270,692,o),
(446,692,cs),
(605,692,o),
(709,568,o),
(672,358,cs),
(633,133,o),
(485,8,o),
(309,8,cs)
);
}
);
width = 725;
},
{
anchors = (
{
name = bottom;
pos = (363,0);
},
{
name = center;
pos = (425,350);
},
{
name = ogonek;
pos = (690,10);
},
{
name = top;
pos = (487,700);
},
{
name = topleft;
pos = (100,700);
},
{
name = topright;
pos = (873,700);
}
);
layerId = "66953C5E-8AEB-4AF5-804F-512B0A9BA4E6";
shapes = (
{
closed = 1;
nodes = (
(605,-12,o),
(791,173,o),
(791,406,cs),
(791,582,o),
(661,712,o),
(480,712,cs),
(242,712,o),
(58,527,o),
(58,294,cs),
(58,118,o),
(188,-12,o),
(369,-12,cs)
);
},
{
closed = 1;
nodes = (
(288,143,o),
(234,210,o),
(234,310,cs),
(234,450,o),
(336,557,o),
(461,557,cs),
(568,557,o),
(615,490,o),
(615,390,cs),
(615,250,o),
(513,143,o),
(388,143,cs)
);
}
);
width = 813;
},
{
anchors = (
{
name = bottom;
pos = (358,0);
},
{
name = center;
pos = (420,350);
},
{
name = ogonek;
pos = (667,10);
},
{
name = top;
pos = (482,700);
},
{
name = topleft;
pos = (117,700);
},
{
name = topright;
pos = (846,700);
}
);
layerId = "90D50F69-F6F7-4633-9462-ED0440D3064F";
shapes = (
{
closed = 1;
nodes = (
(541,-12,o),
(700,135,o),
(738,350,cs),
(776,564,o),
(669,712,o),
(465,712,cs),
(261,712,o),
(103,564,o),
(65,350,cs),
(27,135,o),
(133,-12,o),
(337,-12,cs)
);
},
{
closed = 1;
nodes = (
(164,8,o),
(49,132,o),
(87,350,cs),
(125,568,o),
(284,692,o),
(461,692,cs),
(638,692,o),
(754,568,o),
(716,350,cs),
(678,132,o),
(518,8,o),
(341,8,cs)
);
}
);
width = 767;
},
{
anchors = (
{
name = bottom;
pos = (352,0);
},
{
name = center;
pos = (414,350);
},
{
name = ogonek;
pos = (671,10);
},
{
name = top;
pos = (476,700);
},
{
name = topleft;
pos = (100,700);
},
{
name = topright;
pos = (852,700);
}
);
layerId = "973C19EE-3504-4BDF-BF6D-4817D3AD4E7D";
shapes = (
{
closed = 1;
nodes = (
(577,-12,o),
(767,179,o),
(767,417,cs),
(767,590,o),
(650,712,o),
(478,712,cs),
(251,712,o),
(61,522,o),
(61,285,cs),
(61,112,o),
(178,-12,o),
(350,-12,cs)
);
},
{
closed = 1;
nodes = (
(229,49,o),
(134,142,o),
(134,288,cs),
(134,490,o),
(283,650,o),
(467,650,cs),
(598,650,o),
(694,561,o),
(694,414,cs),
(694,211,o),
(544,49,o),
(361,49,cs)
);
}
);
width = 792;
},
{
anchors = (
{
name = bottom;
pos = (353,0);
},
{
name = center;
pos = (415,350);
},
{
name = ogonek;
pos = (673,10);
},
{
name = top;
pos = (477,700);
},
{
name = topleft;
pos = (99,700);
},
{
name = topright;
pos = (854,700);
}
);
layerId = "8231B9DE-059C-4C71-A8C4-ABDA89A7D05C";
shapes = (
{
closed = 1;
nodes = (
(580,-12,o),
(769,178,o),
(769,415,cs),
(769,589,o),
(651,712,o),
(477,712,cs),
(249,712,o),
(60,523,o),
(60,286,cs),
(60,113,o),
(178,-12,o),
(352,-12,cs)
);
},
{
closed = 1;
nodes = (
(236,62,o),
(147,151,o),
(147,291,cs),
(147,484,o),
(289,637,o),
(465,637,cs),
(593,637,o),
(682,551,o),
(682,411,cs),
(682,216,o),
(539,62,o),
(364,62,cs)
);
}
);
width = 793;
}
);
unicode = 79;
userData = {
com.schriftgestaltung.Glyphs.ColorIndex = 4;
com.typemytype.robofont.layerData = {
b = {
anchors = (
{
name = top;
x = 407;
y = 683;
}
);
components = (
);
contours = (
{
points = (
{
segmentType = curve;
smooth = 1;
x = 60;
y = 341;
},
{
smooth = 0;
x = 60;
y = 138;
},
{
smooth = 0;
x = 214;
y = -7;
},
{
segmentType = curve;
smooth = 1;
x = 407;
y = -7;
},
{
smooth = 0;
x = 601;
y = -7;
},
{
smooth = 0;
x = 754;
y = 138;
},
{
segmentType = curve;
smooth = 1;
x = 754;
y = 341;
},
{
smooth = 0;
x = 754;
y = 546;
},
{
smooth = 0;
x = 601;
y = 690;
},
{
segmentType = curve;
smooth = 1;
x = 407;
y = 690;
},
{
smooth = 0;
x = 214;
y = 690;
},
{
smooth = 0;
x = 60;
y = 546;
}
);
},
{
points = (
{
segmentType = curve;
smooth = 1;
x = 733;
y = 341;
},
{
smooth = 0;
x = 733;
y = 137;
},
{
smooth = 0;
x = 588;
y = 4;
},
{
segmentType = curve;
smooth = 1;
x = 407;
y = 4;
},
{
smooth = 0;
x = 226;
y = 4;
},
{
smooth = 0;
x = 80;
y = 137;
},
{
segmentType = curve;
smooth = 1;
x = 80;
y = 341;
},
{
smooth = 0;
x = 80;
y = 547;
},
{
smooth = 0;
x = 226;
y = 677;
},
{
segmentType = curve;
smooth = 1;
x = 407;
y = 677;
},
{
smooth = 0;
x = 588;
y = 677;
},
{
smooth = 0;
x = 733;
y = 547;
}
);
}
);
lib = {
};
name = O;
unicodes = (
);
width = 792;
};
};
com.typesupply.AccentFactory.yCoordinates = {
bottom = {
name = origin;
type = glyphMetric;
};
top = {
name = capHeight;
type = fontInfo;
};
};
};
},
{
glyphname = Oslash;
lastChange = "2023-05-19 14:03:36 +0000";
layers = (
{
layerId = "A390C1A2-E540-434D-BB9E-4BCEE875BA63";
shapes = (
{
closed = 1;
nodes = (
(121,0,l),
(829,700,l),
(685,700,l),
(-23,0,l)
);
},
{
alignment = -1;
pos = (-6,0);
ref = O;
}
);
width = 772;
},
{
layerId = "F5F01D5B-AEA3-4AC3-B3D8-92550D1582D7";
shapes = (
{
closed = 1;
nodes = (
(72,0,l),
(814,700,l),
(725,700,l),
(-18,0,l)
);
},
{
alignment = -1;
pos = (18,0);
ref = O;
}
);
width = 768;
},
{
layerId = "3B8883BF-F483-4B97-AC7C-CABF8B821093";
shapes = (
{
closed = 1;
nodes = (
(61,0,l),
(809,700,l),
(730,700,l),
(-18,0,l)
);
},
{
alignment = -1;
pos = (18,0);
ref = O;
}
);
width = 766;
},
{
layerId = "5D382461-81E1-4DF2-8677-8A6F02AD5363";
shapes = (
{
closed = 1;
nodes = (
(20,0,l),
(788,700,l),
(759,700,l),
(-9,0,l)
);
},
{
alignment = -1;
pos = (17,0);
ref = O;
}
);
width = 760;
},
{
layerId = "1615C59E-33DE-4B88-B2CC-A48C7D56A125";
shapes = (
{
closed = 1;
nodes = (
(110,0,l),
(818,700,l),
(677,700,l),
(-31,0,l)
);
},
{
alignment = -1;
pos = (-5,0);
ref = O;
}
);
width = 755;
},
{
layerId = "A6F5E7A4-47EF-4F55-BF18-0ACACB57A720";
shapes = (
{
closed = 1;
nodes = (
(64,0,l),
(806,700,l),
(717,700,l),
(-26,0,l)
);
},
{
alignment = -1;
pos = (16,0);
ref = O;
}
);
width = 748;
},
{
layerId = "2D111E5E-352D-4630-9162-BCEF010D26CF";
shapes = (
{
closed = 1;
nodes = (
(55,0,l),
(803,700,l),
(724,700,l),
(-24,0,l)
);
},
{
alignment = -1;
pos = (16,0);
ref = O;
}
);
width = 749;
},
{
guides = (
{
angle = 270;
pos = (695,350);
},
{
angle = 270;
pos = (742,350);
}
);
layerId = "EB62C368-BB48-47C0-A466-DA94204A0DE4";
shapes = (
{
closed = 1;
nodes = (
(10,0,l),
(778,700,l),
(749,700,l),
(-19,0,l)
);
},
{
alignment = -1;
pos = (17,0);
ref = O;
}
);
width = 727;
},
{
layerId = "66953C5E-8AEB-4AF5-804F-512B0A9BA4E6";
shapes = (
{
closed = 1;
nodes = (
(132,0,l),
(840,700,l),
(686,700,l),
(-22,0,l)
);
},
{
alignment = -1;
pos = (-6,0);
ref = O;
}
);
width = 786;
},
{
layerId = "90D50F69-F6F7-4633-9462-ED0440D3064F";
shapes = (
{
closed = 1;
nodes = (
(45,0,l),
(689,700,l),
(660,700,l),
(16,0,l)
);
},
{
alignment = -1;
pos = (-20,0);
ref = O;
}
);
width = 726;
},
{
layerId = "973C19EE-3504-4BDF-BF6D-4817D3AD4E7D";
shapes = (
{
closed = 1;
nodes = (
(78,0,l),
(825,700,l),
(746,700,l),
(-2,0,l)
);
},
{
alignment = -1;
pos = (-3,0);
ref = O;
}
);
width = 787;
},
{
layerId = "8231B9DE-059C-4C71-A8C4-ABDA89A7D05C";
shapes = (
{
closed = 1;
nodes = (
(85,0,l),
(827,700,l),
(738,700,l),
(-5,0,l)
);
},
{
alignment = -1;
pos = (-3,0);
ref = O;
}
);
width = 786;
}
);
unicode = 216;
userData = {
com.schriftgestaltung.Glyphs.ColorIndex = 4;
};
},
{
glyphname = OE;
kernLeft = O;
kernRight = E;
lastChange = "2023-05-19 14:03:36 +0000";
layers = (
{
anchors = (
{
name = bottom;
pos = (833,0);
},
{
name = top;
pos = (409,700);
}
);
layerId = "A390C1A2-E540-434D-BB9E-4BCEE875BA63";
shapes = (
{
closed = 1;
nodes = (
(412,-12,o),
(478,5,o),
(538,43,c),
(530,0,l),
(1010,0,l),
(1034,137,l),
(725,137,l),
(753,291,l),
(1032,291,l),
(1055,423,l),
(776,423,l),
(801,563,l),
(1110,563,l),
(1134,700,l),
(654,700,l),
(647,660,l),
(601,698,o),
(540,712,o),
(465,712,cs),
(263,712,o),
(91,564,o),
(53,350,cs),
(15,136,o),
(135,-12,o),
(336,-12,cs)
);
},
{
closed = 1;
nodes = (
(260,143,o),
(205,223,o),
(227,350,cs),
(249,477,o),
(332,557,o),
(445,557,cs),
(558,557,o),
(613,477,o),
(591,350,cs),
(569,223,o),
(486,143,o),
(373,143,cs)
);
}
);
width = 1084;
},
{
anchors = (
{
name = bottom;
pos = (882,0);
},
{
name = top;
pos = (398,700);
}
);
layerId = "F5F01D5B-AEA3-4AC3-B3D8-92550D1582D7";
shapes = (
{
closed = 1;
nodes = (
(444,-12,o),
(541,28,o),
(616,105,c),
(597,0,l),
(1030,0,l),
(1042,69,l),
(693,69,l),
(738,319,l),
(1057,319,l),
(1069,387,l),
(750,387,l),
(793,631,l),
(1142,631,l),
(1154,700,l),
(721,700,l),
(702,593,l),
(655,673,o),
(572,712,o),
(462,712,cs),
(256,712,o),
(91,564,o),
(53,350,cs),
(15,135,o),
(128,-12,o),
(334,-12,cs)
);
},
{
closed = 1;
nodes = (
(193,62,o),
(107,170,o),
(139,350,cs),
(171,530,o),
(295,637,o),
(449,637,cs),
(603,637,o),
(689,530,o),
(657,350,cs),
(625,170,o),
(501,62,o),
(347,62,cs)
);
}
);
width = 1104;
},
{
anchors = (
{
name = bottom;
pos = (883,0);
},
{
name = top;
pos = (396,700);
}
);
layerId = "3B8883BF-F483-4B97-AC7C-CABF8B821093";
shapes = (
{
closed = 1;
nodes = (
(448,-12,o),
(560,38,o),
(629,122,c),
(607,0,l),
(1032,0,l),
(1043,58,l),
(688,58,l),
(734,323,l),
(1059,323,l),
(1069,381,l),
(744,381,l),
(790,642,l),
(1145,642,l),
(1156,700,l),
(731,700,l),
(709,578,l),
(670,662,o),
(576,712,o),
(460,712,cs),
(254,712,o),
(91,564,o),
(53,350,cs),
(15,135,o),
(126,-12,o),
(332,-12,cs)
);
},
{
closed = 1;
nodes = (
(182,49,o),
(92,162,o),
(125,350,cs),
(158,538,o),
(288,650,o),
(449,650,cs),
(613,650,o),
(703,538,o),
(670,350,cs),
(637,162,o),
(507,49,o),
(343,49,cs)
);
}
);
width = 1107;
},
{
anchors = (
{
name = bottom;
pos = (860,0);
},
{
name = top;
pos = (637,700);
}
);
layerId = "5D382461-81E1-4DF2-8677-8A6F02AD5363";
shapes = (
{
closed = 1;
nodes = (
(480,-12,o),
(618,76,o),
(683,225,c),
(643,0,l),
(1040,0,l),
(1043,18,l),
(666,18,l),
(723,339,l),
(1070,339,l),
(1073,358,l),
(726,358,l),
(784,682,l),
(1161,682,l),
(1164,700,l),
(767,700,l),
(729,485,l),
(709,623,o),
(609,712,o),
(453,712,cs),
(249,712,o),
(91,564,o),
(53,350,cs),
(15,135,o),
(121,-12,o),
(325,-12,cs)
);
},
{
closed = 1;
nodes = (
(152,8,o),
(37,132,o),
(75,350,cs),
(113,568,o),
(272,692,o),
(449,692,cs),
(626,692,o),
(742,568,o),
(704,350,cs),
(665,129,o),
(506,8,o),
(329,8,cs)
);
}
);
width = 1114;
},
{
anchors = (
{
name = bottom;
pos = (739,0);
},
{
name = top;
pos = (462,700);
}
);
layerId = "1615C59E-33DE-4B88-B2CC-A48C7D56A125";
shapes = (
{
closed = 1;
nodes = (
(385,-12,o),
(462,-1,o),
(506,46,c),
(498,0,l),
(978,0,l),
(1002,137,l),
(693,137,l),
(721,291,l),
(1000,291,l),
(1023,423,l),
(744,423,l),
(769,563,l),
(1078,563,l),
(1102,700,l),
(622,700,l),
(614,654,l),
(583,691,o),
(523,712,o),
(456,712,cs),
(265,712,o),
(101,564,o),
(63,350,cs),
(25,136,o),
(137,-12,o),
(335,-12,cs)
);
},
{
closed = 1;
nodes = (
(262,143,o),
(215,223,o),
(237,350,cs),
(259,477,o),
(334,557,o),
(435,557,cs),
(535,557,o),
(582,477,o),
(560,350,cs),
(538,223,o),
(463,143,o),
(363,143,cs)
);
}
);
width = 1080;
},
{
anchors = (
{
name = bottom;
pos = (521,0);
},
{
name = top;
pos = (644,700);
}
);
layerId = "A6F5E7A4-47EF-4F55-BF18-0ACACB57A720";
shapes = (
{
closed = 1;
nodes = (
(424,-12,o),
(513,26,o),
(581,92,c),
(564,0,l),
(997,0,l),
(1009,69,l),
(660,69,l),
(705,319,l),
(1024,319,l),
(1036,387,l),
(717,387,l),
(760,631,l),
(1109,631,l),
(1121,700,l),
(688,700,l),
(671,607,l),
(627,673,o),
(552,712,o),
(452,712,cs),
(259,712,o),
(102,564,o),
(64,350,cs),
(26,135,o),
(131,-12,o),
(324,-12,cs)
);
},
{
closed = 1;
nodes = (
(195,62,o),
(118,170,o),
(150,350,cs),
(182,530,o),
(297,637,o),
(439,637,cs),
(582,637,o),
(658,530,o),
(626,350,cs),
(594,170,o),
(480,62,o),
(337,62,cs)
);
}
);
width = 1103;
},
{
anchors = (
{
name = bottom;
pos = (794,0);
},
{
name = top;
pos = (451,700);
}
);
layerId = "2D111E5E-352D-4630-9162-BCEF010D26CF";
shapes = (
{
closed = 1;
nodes = (
(433,-12,o),
(528,33,o),
(598,109,c),
(578,0,l),
(1003,0,l),
(1014,58,l),
(659,58,l),
(705,323,l),
(1030,323,l),
(1040,381,l),
(715,381,l),
(761,642,l),
(1116,642,l),
(1127,700,l),
(702,700,l),
(682,590,l),
(640,667,o),
(561,712,o),
(453,712,cs),
(260,712,o),
(105,564,o),
(67,350,cs),
(29,135,o),
(132,-12,o),
(325,-12,cs)
);
},
{
closed = 1;
nodes = (
(189,50,o),
(106,162,o),
(139,350,cs),
(172,538,o),
(295,649,o),
(442,649,cs),
(590,649,o),
(672,538,o),
(639,350,cs),
(606,162,o),
(484,50,o),
(336,50,cs)
);
}
);
width = 1111;
},
{
anchors = (
{
name = bottom;
pos = (807,0);
},
{
name = top;
pos = (467,700);
}
);
layerId = "EB62C368-BB48-47C0-A466-DA94204A0DE4";
shapes = (
{
closed = 1;
nodes = (
(455,-12,o),
(577,66,o),
(647,215,c),
(609,0,l),
(1006,0,l),
(1009,18,l),
(632,18,l),
(689,339,l),
(1036,339,l),
(1039,358,l),
(692,358,l),
(750,682,l),
(1127,682,l),
(1130,700,l),
(733,700,l),
(696,490,l),
(679,630,o),
(584,712,o),
(441,712,cs),
(250,712,o),
(100,564,o),
(62,350,cs),
(24,135,o),
(122,-12,o),
(313,-12,cs)
);
},
{
closed = 1;
nodes = (
(150,8,o),
(46,133,o),
(84,350,cs),
(122,568,o),
(270,692,o),
(437,692,cs),
(605,692,o),
(708,573,o),
(669,350,cs),
(631,133,o),
(485,8,o),
(317,8,cs)
);
}
);
width = 1110;
},
{
anchors = (
{
name = bottom;
pos = (506,0);
},
{
name = top;
pos = (630,700);
}
);
layerId = "66953C5E-8AEB-4AF5-804F-512B0A9BA4E6";
shapes = (
{
closed = 1;
nodes = (
(416,-12,o),
(509,19,o),
(561,69,c),
(549,0,l),
(999,0,l),
(1023,137,l),
(744,137,l),
(772,291,l),
(1021,291,l),
(1044,423,l),
(795,423,l),
(819,563,l),
(1098,563,l),
(1123,700,l),
(673,700,l),
(660,627,l),
(624,677,o),
(537,712,o),
(455,712,cs),
(238,712,o),
(58,533,o),
(58,294,cs),
(58,122,o),
(171,-12,o),
(343,-12,cs)
);
},
{
closed = 1;
nodes = (
(299,143,o),
(235,208,o),
(235,308,cs),
(235,446,o),
(336,557,o),
(459,557,cs),
(549,557,o),
(615,496,o),
(615,396,cs),
(615,259,o),
(512,143,o),
(388,143,cs)
);
}
);
width = 1093;
},
{
anchors = (
{
name = bottom;
pos = (533,0);
},
{
name = top;
pos = (657,700);
}
);
layerId = "90D50F69-F6F7-4633-9462-ED0440D3064F";
shapes = (
{
closed = 1;
nodes = (
(492,-12,o),
(630,76,o),
(695,225,c),
(655,0,l),
(1052,0,l),
(1055,18,l),
(678,18,l),
(735,339,l),
(1082,339,l),
(1085,358,l),
(738,358,l),
(796,682,l),
(1173,682,l),
(1176,700,l),
(779,700,l),
(741,485,l),
(721,623,o),
(621,712,o),
(465,712,cs),
(261,712,o),
(103,564,o),
(65,350,cs),
(27,135,o),
(133,-12,o),
(337,-12,cs)
);
},
{
closed = 1;
nodes = (
(158,8,o),
(47,132,o),
(85,350,cs),
(123,568,o),
(287,693,o),
(464,693,cs),
(641,693,o),
(754,568,o),
(716,350,cs),
(677,129,o),
(512,8,o),
(335,8,cs)
);
}
);
width = 1153;
},
{
anchors = (
{
name = bottom;
pos = (515,0);
},
{
name = top;
pos = (639,700);
}
);
layerId = "973C19EE-3504-4BDF-BF6D-4817D3AD4E7D";
shapes = (
{
closed = 1;
nodes = (
(456,-12,o),
(559,38,o),
(638,133,c),
(614,0,l),
(1009,0,l),
(1019,58,l),
(694,58,l),
(741,323,l),
(1036,323,l),
(1046,381,l),
(751,381,l),
(797,642,l),
(1122,642,l),
(1133,700,l),
(738,700,l),
(714,567,l),
(669,661,o),
(578,712,o),
(464,712,cs),
(253,712,o),
(63,526,o),
(63,299,cs),
(63,116,o),
(180,-12,o),
(342,-12,cs)
);
},
{
closed = 1;
nodes = (
(231,49,o),
(136,146,o),
(136,302,cs),
(136,494,o),
(285,650,o),
(453,650,cs),
(584,650,o),
(680,565,o),
(680,418,cs),
(680,215,o),
(536,49,o),
(353,49,cs)
);
}
);
width = 1111;
},
{
anchors = (
{
name = bottom;
pos = (513,0);
},
{
name = top;
pos = (637,700);
}
);
layerId = "8231B9DE-059C-4C71-A8C4-ABDA89A7D05C";
shapes = (
{
closed = 1;
nodes = (
(450,-12,o),
(552,35,o),
(627,124,c),
(605,0,l),
(1008,0,l),
(1020,69,l),
(701,69,l),
(745,319,l),
(1034,319,l),
(1046,387,l),
(757,387,l),
(800,631,l),
(1119,631,l),
(1132,700,l),
(729,700,l),
(707,575,l),
(663,663,o),
(572,712,o),
(463,712,cs),
(251,712,o),
(62,527,o),
(62,298,cs),
(62,117,o),
(179,-12,o),
(342,-12,cs)
);
},
{
closed = 1;
nodes = (
(240,62,o),
(150,155,o),
(150,303,cs),
(150,487,o),
(292,637,o),
(454,637,cs),
(579,637,o),
(671,555,o),
(671,415,cs),
(671,221,o),
(533,62,o),
(358,62,cs)
);
}
);
width = 1109;
}
);
metricLeft = O;
metricRight = E;
unicode = 338;
userData = {
com.schriftgestaltung.Glyphs.ColorIndex = 4;
com.typesupply.AccentFactory.yCoordinates = {
bottom = {
name = origin;
type = glyphMetric;
};
top = {
name = capHeight;
type = fontInfo;
};
};
};
},
{
glyphname = P;
kernLeft = H;
lastChange = "2023-05-19 14:03:36 +0000";
layers = (
{
anchors = (
{
name = bottom;
pos = (261,0);
},
{
name = top;
pos = (385,700);
}
);
layerId = "A390C1A2-E540-434D-BB9E-4BCEE875BA63";
shapes = (
{
closed = 1;
nodes = (
(172,0,l),
(216,250,l),
(332,250,ls),
(511,250,o),
(609,358,o),
(630,474,cs),
(653,603,o),
(584,700,o),
(412,700,cs),
(125,700,l),
(1,0,l)
);
},
{
closed = 1;
nodes = (
(271,562,l),
(374,562,ls),
(442,562,o),
(465,528,o),
(456,474,cs),
(446,420,o),
(411,386,o),
(343,386,cs),
(240,386,l)
);
}
);
width = 610;
},
{
anchors = (
{
name = bottom;
pos = (223,0);
},
{
name = top;
pos = (347,700);
}
);
layerId = "F5F01D5B-AEA3-4AC3-B3D8-92550D1582D7";
shapes = (
{
closed = 1;
nodes = (
(85,0,l),
(137,292,l),
(283,292,ls),
(449,292,o),
(538,382,o),
(558,496,cs),
(578,612,o),
(519,700,o),
(355,700,cs),
(125,700,l),
(1,0,l)
);
},
{
closed = 1;
nodes = (
(196,630,l),
(340,630,ls),
(451,630,o),
(487,581,o),
(472,496,cs),
(457,414,o),
(404,363,o),
(293,363,cs),
(149,363,l)
);
}
);
width = 534;
},
{
anchors = (
{
name = bottom;
pos = (217,0);
},
{
name = top;
pos = (341,700);
}
);
layerId = "3B8883BF-F483-4B97-AC7C-CABF8B821093";
shapes = (
{
closed = 1;
nodes = (
(71,0,l),
(124,299,l),
(275,299,ls),
(439,299,o),
(526,386,o),
(546,499,cs),
(567,614,o),
(508,700,o),
(346,700,cs),
(125,700,l),
(1,0,l)
);
},
{
closed = 1;
nodes = (
(184,641,l),
(335,641,ls),
(453,641,o),
(490,589,o),
(474,499,cs),
(459,413,o),
(404,359,o),
(286,359,cs),
(135,359,l)
);
}
);
width = 522;
},
{
anchors = (
{
name = bottom;
pos = (196,0);
},
{
name = top;
pos = (320,700);
}
);
layerId = "5D382461-81E1-4DF2-8677-8A6F02AD5363";
shapes = (
{
closed = 1;
nodes = (
(22,0,l),
(79,324,l),
(246,324,ls),
(406,324,o),
(486,399,o),
(505,511,cs),
(525,623,o),
(473,700,o),
(310,700,cs),
(125,700,l),
(1,0,l)
);
},
{
closed = 1;
nodes = (
(142,682,l),
(312,682,ls),
(440,682,o),
(506,633,o),
(485,513,cs),
(465,401,o),
(380,342,o),
(252,342,cs),
(82,342,l)
);
}
);
width = 479;
},
{
anchors = (
{
name = bottom;
pos = (234,0);
},
{
name = top;
pos = (481,700);
}
);
layerId = "1615C59E-33DE-4B88-B2CC-A48C7D56A125";
shapes = (
{
closed = 1;
nodes = (
(197,0,l),
(239,236,l),
(350,236,ls),
(533,236,o),
(632,347,o),
(654,467,cs),
(677,600,o),
(608,700,o),
(432,700,cs),
(150,700,l),
(26,0,l)
);
},
{
closed = 1;
nodes = (
(296,562,l),
(394,562,ls),
(466,562,o),
(490,525,o),
(480,467,cs),
(469,409,o),
(433,372,o),
(361,372,cs),
(263,372,l)
);
}
);
width = 652;
},
{
anchors = (
{
name = bottom;
pos = (262,0);
},
{
name = top;
pos = (385,700);
}
);
layerId = "A6F5E7A4-47EF-4F55-BF18-0ACACB57A720";
shapes = (
{
closed = 1;
nodes = (
(115,0,l),
(164,278,l),
(305,278,ls),
(474,278,o),
(566,371,o),
(587,489,cs),
(607,608,o),
(547,700,o),
(380,700,cs),
(155,700,l),
(31,0,l)
);
},
{
closed = 1;
nodes = (
(226,630,l),
(366,630,ls),
(483,630,o),
(516,577,o),
(501,489,cs),
(486,405,o),
(434,349,o),
(317,349,cs),
(177,349,l)
);
}
);
width = 585;
},
{
anchors = (
{
name = bottom;
pos = (246,0);
},
{
name = top;
pos = (369,700);
}
);
layerId = "2D111E5E-352D-4630-9162-BCEF010D26CF";
shapes = (
{
closed = 1;
nodes = (
(108,0,l),
(159,285,l),
(305,285,ls),
(473,285,o),
(561,375,o),
(582,493,cs),
(603,611,o),
(544,700,o),
(378,700,cs),
(162,700,l),
(38,0,l)
);
},
{
closed = 1;
nodes = (
(221,641,l),
(366,641,ls),
(486,641,o),
(527,587,o),
(510,493,cs),
(494,401,o),
(434,344,o),
(314,344,cs),
(169,344,l)
);
}
);
width = 584;
},
{
anchors = (
{
name = bottom;
pos = (219,0);
},
{
name = top;
pos = (342,700);
}
);
layerId = "EB62C368-BB48-47C0-A466-DA94204A0DE4";
shapes = (
{
closed = 1;
nodes = (
(52,0,l),
(107,309,l),
(270,309,ls),
(433,309,o),
(514,388,o),
(534,505,cs),
(554,618,o),
(503,700,o),
(339,700,cs),
(156,700,l),
(32,0,l)
);
},
{
closed = 1;
nodes = (
(172,682,l),
(343,682,ls),
(478,682,o),
(534,621,o),
(513,505,cs),
(493,389,o),
(414,327,o),
(276,327,cs),
(110,327,l)
);
}
);
width = 530;
},
{
anchors = (
{
name = bottom;
pos = (275,0);
},
{
name = top;
pos = (399,700);
}
);
layerId = "66953C5E-8AEB-4AF5-804F-512B0A9BA4E6";
shapes = (
{
closed = 1;
nodes = (
(190,0,l),
(234,250,l),
(350,250,ls),
(525,250,o),
(652,348,o),
(652,505,cs),
(652,610,o),
(580,700,o),
(429,700,cs),
(142,700,l),
(19,0,l)
);
},
{
closed = 1;
nodes = (
(289,562,l),
(392,562,ls),
(450,562,o),
(476,538,o),
(476,491,cs),
(476,429,o),
(432,386,o),
(361,386,cs),
(258,386,l)
);
}
);
width = 638;
},
{
anchors = (
{
name = bottom;
pos = (240,0);
},
{
name = top;
pos = (364,700);
}
);
layerId = "90D50F69-F6F7-4633-9462-ED0440D3064F";
shapes = (
{
closed = 1;
nodes = (
(54,0,l),
(111,324,l),
(279,324,ls),
(442,324,o),
(519,399,o),
(538,511,cs),
(558,623,o),
(509,700,o),
(346,700,cs),
(158,700,l),
(34,0,l)
);
},
{
closed = 1;
nodes = (
(175,682,l),
(345,682,ls),
(473,682,o),
(538,627,o),
(517,511,cs),
(497,395,o),
(413,342,o),
(285,342,cs),
(115,342,l)
);
}
);
width = 531;
},
{
anchors = (
{
name = bottom;
pos = (243,0);
},
{
name = top;
pos = (367,700);
}
);
layerId = "973C19EE-3504-4BDF-BF6D-4817D3AD4E7D";
shapes = (
{
closed = 1;
nodes = (
(103,0,l),
(156,299,l),
(307,299,ls),
(471,299,o),
(582,383,o),
(582,528,cs),
(582,621,o),
(519,700,o),
(377,700,cs),
(156,700,l),
(33,0,l)
);
},
{
closed = 1;
nodes = (
(216,641,l),
(367,641,ls),
(467,641,o),
(509,590,o),
(509,523,cs),
(509,411,o),
(439,359,o),
(317,359,cs),
(166,359,l)
);
}
);
width = 574;
},
{
anchors = (
{
name = bottom;
pos = (248,0);
},
{
name = top;
pos = (372,700);
}
);
layerId = "8231B9DE-059C-4C71-A8C4-ABDA89A7D05C";
shapes = (
{
closed = 1;
nodes = (
(115,0,l),
(167,292,l),
(313,292,ls),
(478,292,o),
(592,378,o),
(592,525,cs),
(592,619,o),
(527,700,o),
(384,700,cs),
(154,700,l),
(31,0,l)
);
},
{
closed = 1;
nodes = (
(226,630,l),
(370,630,ls),
(465,630,o),
(504,583,o),
(504,519,cs),
(504,413,o),
(438,363,o),
(323,363,cs),
(179,363,l)
);
}
);
width = 583;
}
);
metricLeft = H;
unicode = 80;
userData = {
com.schriftgestaltung.Glyphs.ColorIndex = 4;
com.typesupply.AccentFactory.yCoordinates = {
bottom = {
name = origin;
type = glyphMetric;
};
top = {
name = capHeight;
type = fontInfo;
};
};
};
},
{
glyphname = Thorn;
kernLeft = H;
lastChange = "2023-05-19 14:03:36 +0000";
layers = (
{
layerId = "A390C1A2-E540-434D-BB9E-4BCEE875BA63";
shapes = (
{
closed = 1;
nodes = (
(172,0,l),
(194,125,l),
(310,125,ls),
(489,125,o),
(587,233,o),
(608,349,cs),
(631,478,o),
(562,575,o),
(390,575,cs),
(274,575,l),
(296,700,l),
(125,700,l),
(1,0,l)
);
},
{
closed = 1;
nodes = (
(249,437,l),
(352,437,ls),
(420,437,o),
(443,403,o),
(434,349,cs),
(424,295,o),
(389,261,o),
(321,261,cs),
(218,261,l)
);
}
);
width = 610;
},
{
layerId = "F5F01D5B-AEA3-4AC3-B3D8-92550D1582D7";
shapes = (
{
closed = 1;
nodes = (
(85,0,l),
(111,147,l),
(257,147,ls),
(423,147,o),
(512,236,o),
(532,350,cs),
(553,467,o),
(493,554,o),
(329,554,cs),
(183,554,l),
(209,700,l),
(125,700,l),
(1,0,l)
);
},
{
closed = 1;
nodes = (
(171,484,l),
(315,484,ls),
(426,484,o),
(461,435,o),
(446,350,cs),
(432,268,o),
(379,217,o),
(268,217,cs),
(124,217,l)
);
}
);
width = 534;
},
{
layerId = "3B8883BF-F483-4B97-AC7C-CABF8B821093";
shapes = (
{
closed = 1;
nodes = (
(71,0,l),
(98,151,l),
(249,151,ls),
(413,151,o),
(500,236,o),
(520,350,cs),
(540,465,o),
(481,551,o),
(319,551,cs),
(168,551,l),
(195,700,l),
(125,700,l),
(1,0,l)
);
},
{
closed = 1;
nodes = (
(158,492,l),
(309,492,ls),
(427,492,o),
(464,440,o),
(448,350,cs),
(433,264,o),
(377,210,o),
(259,210,cs),
(108,210,l)
);
}
);
width = 522;
},
{
layerId = "5D382461-81E1-4DF2-8677-8A6F02AD5363";
shapes = (
{
closed = 1;
nodes = (
(21,0,l),
(50,163,l),
(218,163,ls),
(374,163,o),
(456,238,o),
(476,351,cs),
(495,459,o),
(449,539,o),
(284,539,cs),
(116,539,l),
(145,700,l),
(125,700,l),
(1,0,l)
);
},
{
closed = 1;
nodes = (
(113,521,l),
(275,521,ls),
(421,521,o),
(475,460,o),
(456,351,cs),
(437,243,o),
(361,181,o),
(218,181,cs),
(53,181,l)
);
}
);
width = 478;
},
{
layerId = "1615C59E-33DE-4B88-B2CC-A48C7D56A125";
shapes = (
{
closed = 1;
nodes = (
(197,0,l),
(219,125,l),
(335,125,ls),
(514,125,o),
(612,233,o),
(633,349,cs),
(656,478,o),
(587,575,o),
(415,575,cs),
(299,575,l),
(321,700,l),
(150,700,l),
(26,0,l)
);
},
{
closed = 1;
nodes = (
(274,437,l),
(377,437,ls),
(445,437,o),
(468,403,o),
(459,349,cs),
(449,295,o),
(414,261,o),
(346,261,cs),
(243,261,l)
);
}
);
width = 652;
},
{
layerId = "A6F5E7A4-47EF-4F55-BF18-0ACACB57A720";
shapes = (
{
closed = 1;
nodes = (
(115,0,l),
(141,147,l),
(287,147,ls),
(453,147,o),
(542,236,o),
(562,350,cs),
(583,467,o),
(523,554,o),
(359,554,cs),
(213,554,l),
(239,700,l),
(155,700,l),
(31,0,l)
);
},
{
closed = 1;
nodes = (
(201,484,l),
(345,484,ls),
(456,484,o),
(491,435,o),
(476,350,cs),
(462,268,o),
(409,217,o),
(298,217,cs),
(154,217,l)
);
}
);
width = 585;
},
{
layerId = "2D111E5E-352D-4630-9162-BCEF010D26CF";
shapes = (
{
closed = 1;
nodes = (
(108,0,l),
(135,151,l),
(286,151,ls),
(450,151,o),
(537,236,o),
(557,350,cs),
(577,465,o),
(518,551,o),
(356,551,cs),
(205,551,l),
(232,700,l),
(162,700,l),
(38,0,l)
);
},
{
closed = 1;
nodes = (
(195,492,l),
(346,492,ls),
(464,492,o),
(501,440,o),
(485,350,cs),
(470,264,o),
(414,210,o),
(296,210,cs),
(145,210,l)
);
}
);
width = 585;
},
{
layerId = "EB62C368-BB48-47C0-A466-DA94204A0DE4";
shapes = (
{
closed = 1;
nodes = (
(52,0,l),
(81,163,l),
(249,163,ls),
(405,163,o),
(487,238,o),
(507,351,cs),
(526,459,o),
(480,539,o),
(315,539,cs),
(147,539,l),
(176,700,l),
(156,700,l),
(32,0,l)
);
},
{
closed = 1;
nodes = (
(144,521,l),
(306,521,ls),
(452,521,o),
(506,460,o),
(487,351,cs),
(468,243,o),
(392,181,o),
(249,181,cs),
(84,181,l)
);
}
);
width = 530;
},
{
layerId = "66953C5E-8AEB-4AF5-804F-512B0A9BA4E6";
shapes = (
{
closed = 1;
nodes = (
(190,0,l),
(212,125,l),
(328,125,ls),
(503,125,o),
(630,224,o),
(630,381,cs),
(630,486,o),
(558,575,o),
(407,575,cs),
(291,575,l),
(313,700,l),
(142,700,l),
(19,0,l)
);
},
{
closed = 1;
nodes = (
(267,437,l),
(370,437,ls),
(428,437,o),
(454,412,o),
(454,371,cs),
(454,303,o),
(410,261,o),
(339,261,cs),
(236,261,l)
);
}
);
width = 638;
},
{
layerId = "90D50F69-F6F7-4633-9462-ED0440D3064F";
shapes = (
{
closed = 1;
nodes = (
(54,0,l),
(83,163,l),
(251,163,ls),
(407,163,o),
(489,238,o),
(509,351,cs),
(528,459,o),
(482,539,o),
(317,539,cs),
(149,539,l),
(178,700,l),
(158,700,l),
(34,0,l)
);
},
{
closed = 1;
nodes = (
(146,521,l),
(308,521,ls),
(454,521,o),
(508,460,o),
(489,351,cs),
(470,243,o),
(394,181,o),
(251,181,cs),
(86,181,l)
);
}
);
width = 530;
},
{
layerId = "973C19EE-3504-4BDF-BF6D-4817D3AD4E7D";
shapes = (
{
closed = 1;
nodes = (
(103,0,l),
(129,150,l),
(280,150,ls),
(445,150,o),
(556,241,o),
(556,383,cs),
(556,479,o),
(493,551,o),
(351,551,cs),
(200,551,l),
(226,700,l),
(156,700,l),
(33,0,l)
);
},
{
closed = 1;
nodes = (
(190,492,l),
(341,492,ls),
(441,492,o),
(483,454,o),
(483,384,cs),
(483,275,o),
(413,210,o),
(291,210,cs),
(140,210,l)
);
}
);
width = 573;
},
{
layerId = "8231B9DE-059C-4C71-A8C4-ABDA89A7D05C";
shapes = (
{
closed = 1;
nodes = (
(115,0,l),
(141,147,l),
(287,147,ls),
(453,147,o),
(566,239,o),
(566,383,cs),
(566,480,o),
(502,554,o),
(359,554,cs),
(213,554,l),
(238,700,l),
(154,700,l),
(31,0,l)
);
},
{
closed = 1;
nodes = (
(201,484,l),
(345,484,ls),
(439,484,o),
(479,448,o),
(479,382,cs),
(479,279,o),
(413,217,o),
(298,217,cs),
(153,217,l)
);
}
);
width = 582;
}
);
metricLeft = H;
metricRight = P;
unicode = 222;
userData = {
com.schriftgestaltung.Glyphs.ColorIndex = 4;
};
},
{
glyphname = Q;
kernLeft = O;
lastChange = "2023-05-19 14:03:36 +0000";
layers = (
{
layerId = "EB62C368-BB48-47C0-A466-DA94204A0DE4";
shapes = (
{
closed = 1;
nodes = (
(537,-86,l),
(388,266,l),
(366,266,l),
(515,-86,l)
);
},
{
alignment = -1;
ref = O;
}
);
width = 725;
},
{
layerId = "2D111E5E-352D-4630-9162-BCEF010D26CF";
shapes = (
{
closed = 1;
nodes = (
(568,-93,l),
(415,271,l),
(337,271,l),
(489,-93,l)
);
},
{
alignment = -1;
ref = O;
}
);
width = 748;
},
{
layerId = "A6F5E7A4-47EF-4F55-BF18-0ACACB57A720";
shapes = (
{
closed = 1;
nodes = (
(601,-95,l),
(446,273,l),
(350,273,l),
(506,-95,l)
);
},
{
alignment = -1;
ref = O;
}
);
width = 746;
},
{
layerId = "1615C59E-33DE-4B88-B2CC-A48C7D56A125";
shapes = (
{
closed = 1;
nodes = (
(632,-120,l),
(473,305,l),
(291,305,l),
(450,-120,l)
);
},
{
alignment = -1;
ref = O;
}
);
width = 767;
},
{
layerId = "90D50F69-F6F7-4633-9462-ED0440D3064F";
shapes = (
{
closed = 1;
nodes = (
(558,-86,l),
(409,266,l),
(387,266,l),
(536,-86,l)
);
},
{
alignment = -1;
ref = O;
}
);
width = 767;
},
{
layerId = "973C19EE-3504-4BDF-BF6D-4817D3AD4E7D";
shapes = (
{
closed = 1;
nodes = (
(590,-93,l),
(437,271,l),
(359,271,l),
(511,-93,l)
);
},
{
alignment = -1;
ref = O;
}
);
width = 792;
},
{
layerId = "8231B9DE-059C-4C71-A8C4-ABDA89A7D05C";
shapes = (
{
closed = 1;
nodes = (
(624,-95,l),
(469,273,l),
(373,273,l),
(529,-95,l)
);
},
{
ref = O;
}
);
width = 793;
},
{
layerId = "66953C5E-8AEB-4AF5-804F-512B0A9BA4E6";
shapes = (
{
closed = 1;
nodes = (
(653,-120,l),
(494,305,l),
(312,305,l),
(471,-120,l)
);
},
{
alignment = -1;
ref = O;
}
);
width = 813;
},
{
layerId = "5D382461-81E1-4DF2-8677-8A6F02AD5363";
shapes = (
{
closed = 1;
nodes = (
(547,-86,l),
(398,266,l),
(376,266,l),
(525,-86,l)
);
},
{
alignment = -1;
ref = O;
}
);
width = 743;
},
{
layerId = "3B8883BF-F483-4B97-AC7C-CABF8B821093";
shapes = (
{
closed = 1;
nodes = (
(573,-93,l),
(420,271,l),
(342,271,l),
(494,-93,l)
);
},
{
alignment = -1;
ref = O;
}
);
width = 756;
},
{
layerId = "F5F01D5B-AEA3-4AC3-B3D8-92550D1582D7";
shapes = (
{
closed = 1;
nodes = (
(608,-95,l),
(453,273,l),
(357,273,l),
(513,-95,l)
);
},
{
ref = O;
}
);
width = 760;
},
{
layerId = "A390C1A2-E540-434D-BB9E-4BCEE875BA63";
shapes = (
{
closed = 1;
nodes = (
(639,-120,l),
(480,305,l),
(298,305,l),
(457,-120,l)
);
},
{
alignment = -1;
ref = O;
}
);
width = 782;
}
);
metricLeft = O;
metricRight = O;
unicode = 81;
},
{
glyphname = R;
kernLeft = H;
kernRight = R;
lastChange = "2023-05-19 14:03:36 +0000";
layers = (
{
anchors = (
{
name = bottom;
pos = (262,0);
},
{
name = top;
pos = (386,700);
}
);
layerId = "A390C1A2-E540-434D-BB9E-4BCEE875BA63";
shapes = (
{
closed = 1;
nodes = (
(172,0,l),
(219,263,l),
(335,263,ls),
(515,263,o),
(611,367,o),
(631,479,cs),
(652,601,o),
(584,700,o),
(412,700,cs),
(125,700,l),
(1,0,l)
);
},
{
closed = 1;
nodes = (
(552,0,l),
(459,304,l),
(276,304,l),
(359,0,l)
);
},
{
closed = 1;
nodes = (
(271,558,l),
(377,558,ls),
(441,558,o),
(465,524,o),
(456,472,cs),
(446,417,o),
(410,384,o),
(346,384,cs),
(240,384,l)
);
}
);
width = 621;
},
{
anchors = (
{
name = bottom;
pos = (221,0);
},
{
name = top;
pos = (345,700);
}
);
layerId = "F5F01D5B-AEA3-4AC3-B3D8-92550D1582D7";
shapes = (
{
closed = 1;
nodes = (
(85,0,l),
(136,289,l),
(274,289,ls),
(440,289,o),
(531,383,o),
(551,495,cs),
(571,610,o),
(514,700,o),
(351,700,cs),
(125,700,l),
(1,0,l)
);
},
{
closed = 1;
nodes = (
(470,0,l),
(366,313,l),
(279,313,l),
(378,0,l)
);
},
{
closed = 1;
nodes = (
(196,629,l),
(331,629,ls),
(442,629,o),
(478,577,o),
(463,494,cs),
(449,413,o),
(391,355,o),
(284,355,cs),
(148,355,l)
);
}
);
width = 539;
},
{
anchors = (
{
name = bottom;
pos = (214,0);
},
{
name = top;
pos = (338,700);
}
);
layerId = "3B8883BF-F483-4B97-AC7C-CABF8B821093";
shapes = (
{
closed = 1;
nodes = (
(71,0,l),
(123,293,l),
(264,293,ls),
(428,293,o),
(517,385,o),
(537,497,cs),
(557,612,o),
(503,700,o),
(341,700,cs),
(125,700,l),
(1,0,l)
);
},
{
closed = 1;
nodes = (
(457,0,l),
(352,315,l),
(275,315,l),
(376,0,l)
);
},
{
closed = 1;
nodes = (
(184,641,l),
(324,641,ls),
(442,641,o),
(480,585,o),
(465,497,cs),
(450,412,o),
(388,350,o),
(274,350,cs),
(133,350,l)
);
}
);
width = 526;
},
{
anchors = (
{
name = bottom;
pos = (191,0);
},
{
name = top;
pos = (315,700);
}
);
layerId = "5D382461-81E1-4DF2-8677-8A6F02AD5363";
shapes = (
{
closed = 1;
nodes = (
(21,0,l),
(76,309,l),
(231,309,ls),
(394,309,o),
(470,384,o),
(492,506,cs),
(511,618,o),
(463,700,o),
(300,700,cs),
(125,700,l),
(1,0,l)
);
},
{
closed = 1;
nodes = (
(409,0,l),
(299,322,l),
(277,322,l),
(387,0,l)
);
},
{
closed = 1;
nodes = (
(142,682,l),
(299,682,ls),
(427,682,o),
(491,622,o),
(471,506,cs),
(448,380,o),
(364,327,o),
(236,327,cs),
(79,327,l)
);
}
);
width = 478;
},
{
anchors = (
{
name = bottom;
pos = (244,0);
},
{
name = top;
pos = (368,700);
}
);
layerId = "1615C59E-33DE-4B88-B2CC-A48C7D56A125";
shapes = (
{
closed = 1;
nodes = (
(197,0,l),
(244,263,l),
(360,263,ls),
(540,263,o),
(636,367,o),
(656,479,cs),
(677,601,o),
(609,700,o),
(437,700,cs),
(150,700,l),
(26,0,l)
);
},
{
closed = 1;
nodes = (
(577,0,l),
(484,304,l),
(301,304,l),
(384,0,l)
);
},
{
closed = 1;
nodes = (
(296,558,l),
(402,558,ls),
(466,558,o),
(490,524,o),
(481,472,cs),
(471,417,o),
(435,384,o),
(371,384,cs),
(265,384,l)
);
}
);
width = 669;
},
{
anchors = (
{
name = bottom;
pos = (269,0);
},
{
name = top;
pos = (392,700);
}
);
layerId = "A6F5E7A4-47EF-4F55-BF18-0ACACB57A720";
shapes = (
{
closed = 1;
nodes = (
(115,0,l),
(166,289,l),
(304,289,ls),
(470,289,o),
(561,383,o),
(581,495,cs),
(601,610,o),
(544,700,o),
(381,700,cs),
(155,700,l),
(31,0,l)
);
},
{
closed = 1;
nodes = (
(500,0,l),
(396,313,l),
(307,313,l),
(406,0,l)
);
},
{
closed = 1;
nodes = (
(226,629,l),
(361,629,ls),
(472,629,o),
(508,577,o),
(493,494,cs),
(479,413,o),
(421,355,o),
(314,355,cs),
(178,355,l)
);
}
);
width = 598;
},
{
anchors = (
{
name = bottom;
pos = (253,0);
},
{
name = top;
pos = (376,700);
}
);
layerId = "2D111E5E-352D-4630-9162-BCEF010D26CF";
shapes = (
{
closed = 1;
nodes = (
(108,0,l),
(160,293,l),
(302,293,ls),
(467,293,o),
(554,383,o),
(574,497,cs),
(594,612,o),
(540,700,o),
(377,700,cs),
(162,700,l),
(38,0,l)
);
},
{
closed = 1;
nodes = (
(494,0,l),
(389,315,l),
(314,315,l),
(415,0,l)
);
},
{
closed = 1;
nodes = (
(221,641,l),
(361,641,ls),
(475,641,o),
(518,587,o),
(502,497,cs),
(486,406,o),
(422,349,o),
(310,349,cs),
(170,349,l)
);
}
);
width = 597;
},
{
anchors = (
{
name = bottom;
pos = (224,0);
},
{
name = top;
pos = (347,700);
}
);
layerId = "EB62C368-BB48-47C0-A466-DA94204A0DE4";
shapes = (
{
closed = 1;
nodes = (
(52,0,l),
(107,309,l),
(262,309,ls),
(425,309,o),
(501,384,o),
(523,506,cs),
(542,618,o),
(494,700,o),
(331,700,cs),
(156,700,l),
(32,0,l)
);
},
{
closed = 1;
nodes = (
(440,0,l),
(330,322,l),
(308,322,l),
(418,0,l)
);
},
{
closed = 1;
nodes = (
(173,682,l),
(329,682,ls),
(458,682,o),
(523,622,o),
(502,506,cs),
(481,389,o),
(395,327,o),
(266,327,cs),
(110,327,l)
);
}
);
width = 540;
},
{
anchors = (
{
name = bottom;
pos = (278,0);
},
{
name = top;
pos = (371,700);
}
);
layerId = "66953C5E-8AEB-4AF5-804F-512B0A9BA4E6";
shapes = (
{
closed = 1;
nodes = (
(190,0,l),
(236,263,l),
(352,263,ls),
(527,263,o),
(652,358,o),
(652,508,cs),
(652,610,o),
(575,700,o),
(423,700,cs),
(142,700,l),
(19,0,l)
);
},
{
closed = 1;
nodes = (
(570,0,l),
(477,304,l),
(300,304,l),
(383,0,l)
);
},
{
closed = 1;
nodes = (
(288,558,l),
(394,558,ls),
(450,558,o),
(475,532,o),
(475,489,cs),
(475,426,o),
(431,384,o),
(364,384,cs),
(258,384,l)
);
}
);
width = 653;
},
{
anchors = (
{
name = bottom;
pos = (226,0);
},
{
name = top;
pos = (350,700);
}
);
layerId = "90D50F69-F6F7-4633-9462-ED0440D3064F";
shapes = (
{
closed = 1;
nodes = (
(54,0,l),
(109,309,l),
(264,309,ls),
(427,309,o),
(503,384,o),
(525,506,cs),
(544,618,o),
(496,700,o),
(333,700,cs),
(158,700,l),
(34,0,l)
);
},
{
closed = 1;
nodes = (
(443,0,l),
(333,322,l),
(310,322,l),
(420,0,l)
);
},
{
closed = 1;
nodes = (
(175,682,l),
(332,682,ls),
(460,682,o),
(524,622,o),
(504,506,cs),
(481,380,o),
(397,327,o),
(269,327,cs),
(112,327,l)
);
}
);
width = 541;
},
{
anchors = (
{
name = bottom;
pos = (260,0);
},
{
name = top;
pos = (343,700);
}
);
layerId = "973C19EE-3504-4BDF-BF6D-4817D3AD4E7D";
shapes = (
{
closed = 1;
nodes = (
(103,0,l),
(155,293,l),
(296,293,ls),
(459,293,o),
(572,382,o),
(572,526,cs),
(572,620,o),
(514,700,o),
(372,700,cs),
(156,700,l),
(33,0,l)
);
},
{
closed = 1;
nodes = (
(489,0,l),
(384,315,l),
(312,315,l),
(413,0,l)
);
},
{
closed = 1;
nodes = (
(216,641,l),
(356,641,ls),
(458,641,o),
(500,587,o),
(500,520,cs),
(500,410,o),
(423,350,o),
(306,350,cs),
(165,350,l)
);
}
);
width = 584;
},
{
anchors = (
{
name = bottom;
pos = (262,0);
},
{
name = top;
pos = (347,700);
}
);
layerId = "8231B9DE-059C-4C71-A8C4-ABDA89A7D05C";
shapes = (
{
closed = 1;
nodes = (
(115,0,l),
(166,289,l),
(304,289,ls),
(468,289,o),
(583,379,o),
(583,524,cs),
(583,619,o),
(522,700,o),
(379,700,cs),
(154,700,l),
(31,0,l)
);
},
{
closed = 1;
nodes = (
(500,0,l),
(397,313,l),
(310,313,l),
(409,0,l)
);
},
{
closed = 1;
nodes = (
(226,629,l),
(361,629,ls),
(457,629,o),
(497,579,o),
(497,516,cs),
(497,412,o),
(424,355,o),
(314,355,cs),
(178,355,l)
);
}
);
width = 594;
}
);
metricLeft = H;
unicode = 82;
userData = {
com.schriftgestaltung.Glyphs.ColorIndex = 4;
com.typesupply.AccentFactory.yCoordinates = {
bottom = {
name = origin;
type = glyphMetric;
};
top = {
name = capHeight;
type = fontInfo;
};
};
};
},
{
glyphname = S;
kernLeft = S;
kernRight = S;
lastChange = "2023-05-19 14:03:36 +0000";
layers = (
{
anchors = (
{
name = bottom;
pos = (246,0);
},
{
name = top;
pos = (370,700);
}
);
layerId = "A390C1A2-E540-434D-BB9E-4BCEE875BA63";
shapes = (
{
closed = 1;
nodes = (
(417,-12,o),
(526,86,o),
(547,204,cs),
(571,337,o),
(482,382,o),
(381,418,cs),
(310,443,o),
(254,463,o),
(263,515,cs),
(270,552,o),
(304,570,o),
(341,569,cs),
(378,568,o),
(406,542,o),
(402,502,c),
(587,502,l),
(603,636,o),
(514,712,o),
(367,712,cs),
(226,712,o),
(104,638,o),
(80,505,cs),
(61,398,o),
(116,341,o),
(218,305,cs),
(300,276,o),
(373,253,o),
(362,192,cs),
(355,150,o),
(318,131,o),
(277,131,cs),
(227,131,o),
(196,162,o),
(201,212,c),
(19,212,l),
(-3,63,o),
(102,-12,o),
(253,-12,cs)
);
}
);
width = 580;
},
{
anchors = (
{
name = bottom;
pos = (225,0);
},
{
name = top;
pos = (349,700);
}
);
layerId = "F5F01D5B-AEA3-4AC3-B3D8-92550D1582D7";
shapes = (
{
closed = 1;
nodes = (
(390,-12,o),
(480,71,o),
(500,176,cs),
(523,299,o),
(452,347,o),
(358,384,cs),
(236,432,o),
(166,448,o),
(180,530,cs),
(194,609,o),
(262,644,o),
(337,644,cs),
(430,643,o),
(464,592,o),
(451,518,c),
(539,518,l),
(558,631,o),
(484,712,o),
(351,712,cs),
(215,712,o),
(117,634,o),
(98,528,cs),
(83,439,o),
(126,386,o),
(241,344,cs),
(336,310,o),
(437,280,o),
(420,186,cs),
(405,98,o),
(334,59,o),
(238,59,cs),
(127,59,o),
(87,128,o),
(101,210,c),
(18,210,l),
(-5,77,o),
(78,-12,o),
(232,-12,cs)
);
}
);
width = 538;
},
{
anchors = (
{
name = bottom;
pos = (223,0);
},
{
name = top;
pos = (347,700);
}
);
layerId = "3B8883BF-F483-4B97-AC7C-CABF8B821093";
shapes = (
{
closed = 1;
nodes = (
(385,-12,o),
(479,83,o),
(496,180,cs),
(516,295,o),
(454,344,o),
(360,378,cs),
(241,421,o),
(157,440,o),
(172,530,cs),
(185,603,o),
(252,652,o),
(334,652,cs),
(435,652,o),
(470,582,o),
(459,520,c),
(531,520,l),
(550,630,o),
(480,712,o),
(349,712,cs),
(214,712,o),
(118,632,o),
(99,522,cs),
(85,436,o),
(124,387,o),
(226,350,cs),
(338,309,o),
(444,296,o),
(426,192,cs),
(411,105,o),
(343,47,o),
(240,47,cs),
(123,47,o),
(76,122,o),
(91,210,c),
(18,210,l),
(-5,79,o),
(74,-12,o),
(229,-12,cs)
);
}
);
width = 533;
},
{
anchors = (
{
name = bottom;
pos = (212,0);
},
{
name = top;
pos = (336,700);
}
);
layerId = "5D382461-81E1-4DF2-8677-8A6F02AD5363";
shapes = (
{
closed = 1;
nodes = (
(368,-12,o),
(455,71,o),
(474,179,cs),
(491,274,o),
(443,321,o),
(379,352,cs),
(269,405,o),
(111,416,o),
(133,544,cs),
(147,623,o),
(210,692,o),
(333,692,cs),
(433,692,o),
(504,650,o),
(482,528,c),
(504,528,l),
(527,658,o),
(448,712,o),
(337,712,cs),
(206,712,o),
(128,637,o),
(112,550,cs),
(98,467,o),
(143,424,o),
(216,393,cs),
(321,348,o),
(479,330,o),
(454,186,cs),
(435,81,o),
(361,8,o),
(220,8,cs),
(64,8,o),
(17,100,o),
(40,210,c),
(18,210,l),
(-5,87,o),
(51,-12,o),
(217,-12,cs)
);
}
);
width = 511;
},
{
anchors = (
{
name = bottom;
pos = (276,0);
},
{
name = top;
pos = (392,700);
}
);
layerId = "1615C59E-33DE-4B88-B2CC-A48C7D56A125";
shapes = (
{
closed = 1;
nodes = (
(440,-12,o),
(549,86,o),
(570,204,cs),
(594,337,o),
(505,382,o),
(404,418,cs),
(333,443,o),
(277,463,o),
(286,515,cs),
(293,552,o),
(327,570,o),
(364,569,cs),
(401,568,o),
(429,542,o),
(425,502,c),
(610,502,l),
(626,636,o),
(537,712,o),
(390,712,cs),
(249,712,o),
(127,638,o),
(103,505,cs),
(84,398,o),
(138,337,o),
(254,302,cs),
(337,276,o),
(393,238,o),
(385,192,cs),
(378,150,o),
(341,131,o),
(300,131,cs),
(250,131,o),
(219,162,o),
(224,212,c),
(42,212,l),
(20,63,o),
(125,-12,o),
(276,-12,cs)
);
}
);
width = 633;
},
{
anchors = (
{
name = bottom;
pos = (263,0);
},
{
name = top;
pos = (386,700);
}
);
layerId = "A6F5E7A4-47EF-4F55-BF18-0ACACB57A720";
shapes = (
{
closed = 1;
nodes = (
(410,-12,o),
(506,83,o),
(524,183,cs),
(544,301,o),
(479,349,o),
(384,384,cs),
(271,424,o),
(191,438,o),
(206,528,cs),
(219,599,o),
(280,641,o),
(356,640,cs),
(448,640,o),
(482,576,o),
(472,518,c),
(560,518,l),
(579,631,o),
(505,712,o),
(372,712,cs),
(236,712,o),
(137,633,o),
(118,520,cs),
(102,431,o),
(152,381,o),
(262,344,cs),
(372,307,o),
(465,284,o),
(438,178,cs),
(421,110,o),
(360,59,o),
(266,59,cs),
(158,59,o),
(113,128,o),
(127,210,c),
(39,210,l),
(16,77,o),
(99,-12,o),
(253,-12,cs)
);
}
);
width = 587;
},
{
anchors = (
{
name = bottom;
pos = (247,0);
},
{
name = top;
pos = (370,700);
}
);
layerId = "2D111E5E-352D-4630-9162-BCEF010D26CF";
shapes = (
{
closed = 1;
nodes = (
(409,-12,o),
(502,80,o),
(520,182,cs),
(540,295,o),
(479,343,o),
(391,377,cs),
(279,421,o),
(181,433,o),
(198,533,cs),
(211,604,o),
(272,652,o),
(359,651,cs),
(453,651,o),
(495,592,o),
(482,520,c),
(555,520,l),
(576,637,o),
(500,712,o),
(372,712,cs),
(237,712,o),
(143,634,o),
(124,527,cs),
(109,439,o),
(151,387,o),
(255,351,cs),
(363,313,o),
(466,289,o),
(447,178,cs),
(434,104,o),
(368,48,o),
(264,48,cs),
(145,48,o),
(100,122,o),
(116,210,c),
(42,210,l),
(19,79,o),
(96,-12,o),
(253,-12,cs)
);
}
);
width = 586;
},
{
anchors = (
{
name = bottom;
pos = (226,0);
},
{
name = top;
pos = (349,700);
}
);
layerId = "EB62C368-BB48-47C0-A466-DA94204A0DE4";
shapes = (
{
closed = 1;
nodes = (
(382,-12,o),
(469,71,o),
(488,179,cs),
(505,274,o),
(457,322,o),
(393,354,cs),
(283,408,o),
(125,416,o),
(147,544,cs),
(161,623,o),
(226,692,o),
(347,692,cs),
(447,692,o),
(519,650,o),
(497,528,c),
(518,528,l),
(541,658,o),
(462,712,o),
(351,712,cs),
(220,712,o),
(142,637,o),
(126,550,cs),
(112,467,o),
(157,425,o),
(230,394,cs),
(335,349,o),
(497,335,o),
(466,178,cs),
(447,81,o),
(375,8,o),
(234,8,cs),
(78,8,o),
(30,98,o),
(53,210,c),
(32,210,l),
(9,87,o),
(65,-12,o),
(231,-12,cs)
);
}
);
width = 544;
},
{
anchors = (
{
name = bottom;
pos = (267,0);
},
{
name = top;
pos = (391,700);
}
);
layerId = "66953C5E-8AEB-4AF5-804F-512B0A9BA4E6";
shapes = (
{
closed = 1;
nodes = (
(441,-12,o),
(568,81,o),
(568,227,cs),
(568,329,o),
(488,386,o),
(398,418,cs),
(333,441,o),
(279,461,o),
(279,507,cs),
(279,542,o),
(307,569,o),
(353,569,cs),
(395,569,o),
(427,548,o),
(419,502,c),
(604,502,l),
(617,643,o),
(527,712,o),
(384,712,cs),
(217,712,o),
(94,617,o),
(94,474,cs),
(94,393,o),
(147,336,o),
(235,305,cs),
(309,279,o),
(381,257,o),
(381,204,cs),
(381,161,o),
(345,131,o),
(295,131,cs),
(247,131,o),
(212,159,o),
(219,212,c),
(36,212,l),
(14,67,o),
(119,-12,o),
(273,-12,cs)
);
}
);
width = 619;
},
{
anchors = (
{
name = bottom;
pos = (228,0);
},
{
name = top;
pos = (352,700);
}
);
layerId = "90D50F69-F6F7-4633-9462-ED0440D3064F";
shapes = (
{
closed = 1;
nodes = (
(384,-12,o),
(471,71,o),
(490,179,cs),
(507,274,o),
(459,322,o),
(395,354,cs),
(285,408,o),
(127,416,o),
(150,550,cs),
(163,623,o),
(222,692,o),
(349,692,cs),
(449,692,o),
(520,650,o),
(498,528,c),
(520,528,l),
(543,658,o),
(464,712,o),
(353,712,cs),
(222,712,o),
(144,637,o),
(128,550,cs),
(114,467,o),
(159,424,o),
(232,393,cs),
(337,348,o),
(495,333,o),
(468,179,cs),
(451,84,o),
(377,8,o),
(236,8,cs),
(80,8,o),
(35,102,o),
(56,210,c),
(34,210,l),
(11,87,o),
(67,-12,o),
(233,-12,cs)
);
}
);
width = 543;
},
{
anchors = (
{
name = bottom;
pos = (212,0);
},
{
name = top;
pos = (360,700);
}
);
layerId = "973C19EE-3504-4BDF-BF6D-4817D3AD4E7D";
shapes = (
{
closed = 1;
nodes = (
(417,-12,o),
(519,76,o),
(519,209,cs),
(519,296,o),
(459,349,o),
(379,378,cs),
(274,416,o),
(189,435,o),
(189,516,cs),
(189,595,o),
(252,652,o),
(348,652,cs),
(429,652,o),
(490,602,o),
(478,520,c),
(550,520,l),
(570,632,o),
(482,712,o),
(356,712,cs),
(212,712,o),
(115,629,o),
(115,507,cs),
(115,437,o),
(156,380,o),
(244,348,cs),
(342,312,o),
(445,295,o),
(445,200,cs),
(445,108,o),
(385,47,o),
(269,47,cs),
(164,47,o),
(90,112,o),
(110,210,c),
(37,210,l),
(16,66,o),
(115,-12,o),
(262,-12,cs)
);
}
);
width = 575;
},
{
anchors = (
{
name = bottom;
pos = (246,0);
},
{
name = top;
pos = (370,700);
}
);
layerId = "8231B9DE-059C-4C71-A8C4-ABDA89A7D05C";
shapes = (
{
closed = 1;
nodes = (
(420,-12,o),
(526,77,o),
(526,211,cs),
(526,301,o),
(463,354,o),
(381,384,cs),
(282,419,o),
(201,439,o),
(201,515,cs),
(201,588,o),
(259,640,o),
(348,640,cs),
(427,640,o),
(482,588,o),
(470,518,c),
(557,518,l),
(578,632,o),
(489,712,o),
(360,712,cs),
(212,712,o),
(112,627,o),
(112,502,cs),
(112,431,o),
(155,374,o),
(243,342,cs),
(337,307,o),
(436,290,o),
(436,201,cs),
(436,115,o),
(379,59,o),
(272,59,cs),
(174,59,o),
(105,122,o),
(125,210,c),
(37,210,l),
(16,66,o),
(115,-12,o),
(263,-12,cs)
);
}
);
width = 581;
}
);
unicode = 83;
userData = {
com.schriftgestaltung.Glyphs.ColorIndex = 4;
com.typesupply.AccentFactory.yCoordinates = {
bottom = {
name = origin;
type = glyphMetric;
};
top = {
name = capHeight;
type = fontInfo;
};
};
};
},
{
glyphname = Germandbls;
lastChange = "2023-05-19 14:03:36 +0000";
layers = (
{
guides = (
{
pos = (214,191);
}
);
layerId = "EB62C368-BB48-47C0-A466-DA94204A0DE4";
shapes = (
{
closed = 1;
nodes = (
(449,-5,o),
(548,87,o),
(571,219,cs),
(595,354,o),
(531,433,o),
(392,433,cs),
(346,433,l),
(617,682,l),
(620,700,l),
(264,700,ls),
(180,700,o),
(148,664,o),
(136,593,cs),
(32,0,l),
(52,0,l),
(155,588,ls),
(168,661,o),
(196,682,o),
(266,682,cs),
(592,682,l),
(322,433,l),
(319,415,l),
(389,415,ls),
(511,415,o),
(574,349,o),
(550,219,cs),
(526,91,o),
(427,16,o),
(338,16,cs),
(215,16,o),
(177,82,o),
(196,191,c),
(175,191,l),
(154,68,o),
(202,-5,o),
(334,-5,cs)
);
}
);
width = 620;
},
{
layerId = "2D111E5E-352D-4630-9162-BCEF010D26CF";
shapes = (
{
closed = 1;
nodes = (
(510,-6,o),
(590,82,o),
(614,216,cs),
(638,353,o),
(574,433,o),
(417,433,cs),
(401,433,l),
(647,646,l),
(656,700,l),
(293,700,ls),
(205,700,o),
(153,659,o),
(138,571,cs),
(38,0,l),
(108,0,l),
(208,568,ls),
(217,621,o),
(243,641,o),
(296,641,cs),
(560,641,l),
(317,429,l),
(309,379,l),
(417,379,ls),
(533,379,o),
(563,323,o),
(544,215,cs),
(525,108,o),
(464,55,o),
(380,55,cs),
(291,55,o),
(259,111,o),
(276,204,c),
(207,204,l),
(183,68,o),
(246,-6,o),
(372,-6,cs)
);
}
);
width = 674;
},
{
layerId = "A6F5E7A4-47EF-4F55-BF18-0ACACB57A720";
shapes = (
{
closed = 1;
nodes = (
(519,-5,o),
(602,80,o),
(626,215,cs),
(650,353,o),
(576,433,o),
(430,433,cs),
(411,433,l),
(653,636,l),
(664,700,l),
(295,700,ls),
(203,700,o),
(147,658,o),
(130,562,cs),
(31,0,l),
(115,0,l),
(213,559,ls),
(222,610,o),
(246,629,o),
(297,629,cs),
(548,629,l),
(310,428,l),
(300,369,l),
(425,369,ls),
(522,369,o),
(561,312,o),
(543,209,cs),
(529,132,o),
(484,65,o),
(397,65,cs),
(294,65,o),
(278,127,o),
(292,208,c),
(209,208,l),
(185,68,o),
(252,-5,o),
(389,-5,cs)
);
}
);
width = 683;
},
{
layerId = "1615C59E-33DE-4B88-B2CC-A48C7D56A125";
shapes = (
{
closed = 1;
nodes = (
(604,-6,o),
(701,75,o),
(728,226,cs),
(746,337,o),
(702,430,o),
(580,430,cs),
(568,430,l),
(730,571,l),
(753,700,l),
(346,700,ls),
(230,700,o),
(141,651,o),
(115,506,cs),
(26,0,l),
(197,0,l),
(286,507,ls),
(292,540,o),
(308,554,o),
(346,554,cs),
(531,554,l),
(400,436,l),
(380,325,l),
(479,325,ls),
(549,325,o),
(579,299,o),
(567,226,cs),
(557,171,o),
(534,136,o),
(487,136,cs),
(440,136,o),
(429,171,o),
(439,226,c),
(272,226,l),
(245,75,o),
(314,-6,o),
(459,-6,cs)
);
}
);
width = 788;
},
{
layerId = "90D50F69-F6F7-4633-9462-ED0440D3064F";
shapes = (
{
closed = 1;
nodes = (
(452,-5,o),
(551,87,o),
(574,219,cs),
(598,354,o),
(534,433,o),
(395,433,cs),
(349,433,l),
(620,682,l),
(623,700,l),
(267,700,ls),
(183,700,o),
(151,664,o),
(139,593,cs),
(35,0,l),
(55,0,l),
(158,588,ls),
(171,661,o),
(199,682,o),
(269,682,cs),
(595,682,l),
(325,433,l),
(322,415,l),
(392,415,ls),
(514,415,o),
(577,349,o),
(553,219,cs),
(529,91,o),
(430,16,o),
(341,16,cs),
(218,16,o),
(180,82,o),
(199,191,c),
(178,191,l),
(157,68,o),
(205,-5,o),
(337,-5,cs)
);
}
);
width = 620;
},
{
layerId = "973C19EE-3504-4BDF-BF6D-4817D3AD4E7D";
shapes = (
{
closed = 1;
nodes = (
(505,-6,o),
(585,82,o),
(609,216,cs),
(633,353,o),
(569,433,o),
(412,433,cs),
(396,433,l),
(642,646,l),
(651,700,l),
(288,700,ls),
(200,700,o),
(148,659,o),
(133,571,cs),
(33,0,l),
(103,0,l),
(203,568,ls),
(212,621,o),
(238,641,o),
(291,641,cs),
(555,641,l),
(312,429,l),
(304,379,l),
(412,379,ls),
(528,379,o),
(558,323,o),
(539,215,cs),
(520,108,o),
(459,55,o),
(375,55,cs),
(286,55,o),
(254,111,o),
(271,204,c),
(202,204,l),
(178,68,o),
(241,-6,o),
(367,-6,cs)
);
}
);
width = 660;
},
{
layerId = "8231B9DE-059C-4C71-A8C4-ABDA89A7D05C";
shapes = (
{
closed = 1;
nodes = (
(518,-5,o),
(601,80,o),
(625,215,cs),
(649,353,o),
(575,433,o),
(429,433,cs),
(410,433,l),
(652,636,l),
(663,700,l),
(294,700,ls),
(202,700,o),
(146,658,o),
(129,562,cs),
(30,0,l),
(114,0,l),
(212,559,ls),
(221,610,o),
(245,629,o),
(296,629,cs),
(547,629,l),
(309,428,l),
(299,369,l),
(424,369,ls),
(521,369,o),
(560,312,o),
(542,209,cs),
(528,132,o),
(483,65,o),
(396,65,cs),
(293,65,o),
(277,127,o),
(291,208,c),
(208,208,l),
(184,68,o),
(251,-5,o),
(388,-5,cs)
);
}
);
width = 676;
},
{
layerId = "66953C5E-8AEB-4AF5-804F-512B0A9BA4E6";
shapes = (
{
closed = 1;
nodes = (
(596,-6,o),
(693,75,o),
(720,226,cs),
(738,337,o),
(694,430,o),
(572,430,cs),
(560,430,l),
(722,571,l),
(745,700,l),
(338,700,ls),
(222,700,o),
(133,651,o),
(107,506,cs),
(18,0,l),
(189,0,l),
(278,507,ls),
(284,540,o),
(300,554,o),
(338,554,cs),
(523,554,l),
(392,436,l),
(372,325,l),
(471,325,ls),
(541,325,o),
(571,299,o),
(559,226,cs),
(549,171,o),
(526,136,o),
(479,136,cs),
(432,136,o),
(421,171,o),
(431,226,c),
(264,226,l),
(237,75,o),
(306,-6,o),
(451,-6,cs)
);
}
);
width = 768;
},
{
layerId = "5D382461-81E1-4DF2-8677-8A6F02AD5363";
shapes = (
{
closed = 1;
nodes = (
(419,-5,o),
(518,87,o),
(541,219,cs),
(565,354,o),
(501,433,o),
(362,433,cs),
(316,433,l),
(587,682,l),
(590,700,l),
(234,700,ls),
(150,700,o),
(118,664,o),
(106,593,cs),
(2,0,l),
(22,0,l),
(125,588,ls),
(138,661,o),
(166,682,o),
(236,682,cs),
(562,682,l),
(292,433,l),
(289,415,l),
(359,415,ls),
(481,415,o),
(544,349,o),
(520,219,cs),
(496,91,o),
(397,16,o),
(308,16,cs),
(185,16,o),
(147,82,o),
(166,191,c),
(145,191,l),
(124,68,o),
(172,-5,o),
(304,-5,cs)
);
}
);
width = 571;
},
{
layerId = "3B8883BF-F483-4B97-AC7C-CABF8B821093";
shapes = (
{
closed = 1;
nodes = (
(474,-6,o),
(554,82,o),
(578,216,cs),
(602,353,o),
(538,433,o),
(381,433,cs),
(365,433,l),
(611,646,l),
(620,700,l),
(257,700,ls),
(169,700,o),
(117,659,o),
(102,571,cs),
(2,0,l),
(72,0,l),
(172,568,ls),
(181,621,o),
(207,641,o),
(260,641,cs),
(524,641,l),
(281,429,l),
(273,379,l),
(381,379,ls),
(497,379,o),
(527,323,o),
(508,215,cs),
(489,108,o),
(428,55,o),
(344,55,cs),
(255,55,o),
(223,111,o),
(240,204,c),
(171,204,l),
(147,68,o),
(210,-6,o),
(336,-6,cs)
);
}
);
width = 609;
},
{
layerId = "F5F01D5B-AEA3-4AC3-B3D8-92550D1582D7";
shapes = (
{
closed = 1;
nodes = (
(489,-5,o),
(572,80,o),
(596,215,cs),
(620,353,o),
(546,433,o),
(400,433,cs),
(381,433,l),
(623,636,l),
(634,700,l),
(265,700,ls),
(173,700,o),
(117,658,o),
(100,562,cs),
(1,0,l),
(85,0,l),
(183,559,ls),
(192,610,o),
(216,629,o),
(267,629,cs),
(518,629,l),
(280,428,l),
(270,369,l),
(395,369,ls),
(492,369,o),
(531,312,o),
(513,209,cs),
(499,132,o),
(454,65,o),
(367,65,cs),
(264,65,o),
(248,127,o),
(262,208,c),
(179,208,l),
(155,68,o),
(222,-5,o),
(359,-5,cs)
);
}
);
width = 627;
},
{
layerId = "A390C1A2-E540-434D-BB9E-4BCEE875BA63";
shapes = (
{
closed = 1;
nodes = (
(579,-6,o),
(676,75,o),
(703,226,cs),
(721,337,o),
(677,430,o),
(555,430,cs),
(543,430,l),
(705,571,l),
(728,700,l),
(321,700,ls),
(205,700,o),
(116,651,o),
(90,506,cs),
(1,0,l),
(172,0,l),
(261,507,ls),
(267,540,o),
(283,554,o),
(321,554,cs),
(506,554,l),
(375,436,l),
(355,325,l),
(454,325,ls),
(524,325,o),
(554,299,o),
(542,226,cs),
(532,171,o),
(509,136,o),
(462,136,cs),
(415,136,o),
(404,171,o),
(414,226,c),
(247,226,l),
(220,75,o),
(289,-6,o),
(434,-6,cs)
);
}
);
width = 732;
}
);
metricLeft = F;
metricRight = S;
unicode = 7838;
},
{
glyphname = T;
kernLeft = T;
kernRight = T;
lastChange = "2023-05-19 14:03:36 +0000";
layers = (
{
anchors = (
{
name = bottom;
pos = (248,0);
},
{
name = center;
pos = (310,350);
},
{
name = top;
pos = (372,700);
}
);
layerId = "A390C1A2-E540-434D-BB9E-4BCEE875BA63";
shapes = (
{
closed = 1;
nodes = (
(333,0,l),
(433,563,l),
(634,563,l),
(658,700,l),
(85,700,l),
(61,563,l),
(262,563,l),
(162,0,l)
);
}
);
width = 583;
},
{
anchors = (
{
name = bottom;
pos = (212,0);
},
{
name = center;
pos = (274,350);
},
{
name = top;
pos = (336,700);
}
);
layerId = "F5F01D5B-AEA3-4AC3-B3D8-92550D1582D7";
shapes = (
{
closed = 1;
nodes = (
(254,0,l),
(366,631,l),
(575,631,l),
(587,700,l),
(85,700,l),
(73,631,l),
(282,631,l),
(170,0,l)
);
}
);
width = 512;
},
{
anchors = (
{
name = bottom;
pos = (206,0);
},
{
name = center;
pos = (268,350);
},
{
name = top;
pos = (330,700);
}
);
layerId = "3B8883BF-F483-4B97-AC7C-CABF8B821093";
shapes = (
{
closed = 1;
nodes = (
(241,0,l),
(354,642,l),
(564,642,l),
(575,700,l),
(85,700,l),
(74,642,l),
(284,642,l),
(171,0,l)
);
}
);
width = 500;
},
{
anchors = (
{
name = bottom;
pos = (184,0);
},
{
name = center;
pos = (247,350);
},
{
name = top;
pos = (308,700);
}
);
layerId = "5D382461-81E1-4DF2-8677-8A6F02AD5363";
shapes = (
{
closed = 1;
nodes = (
(194,0,l),
(315,682,l),
(528,682,l),
(531,700,l),
(85,700,l),
(82,682,l),
(295,682,l),
(174,0,l)
);
}
);
width = 458;
},
{
anchors = (
{
name = bottom;
pos = (268,0);
},
{
name = center;
pos = (345,350);
},
{
name = top;
pos = (392,700);
}
);
layerId = "1615C59E-33DE-4B88-B2CC-A48C7D56A125";
shapes = (
{
closed = 1;
nodes = (
(353,0,l),
(453,563,l),
(654,563,l),
(678,700,l),
(106,700,l),
(82,563,l),
(283,563,l),
(183,0,l)
);
}
);
width = 630;
},
{
anchors = (
{
name = bottom;
pos = (251,0);
},
{
name = center;
pos = (312,350);
},
{
name = top;
pos = (374,700);
}
);
layerId = "A6F5E7A4-47EF-4F55-BF18-0ACACB57A720";
shapes = (
{
closed = 1;
nodes = (
(277,0,l),
(389,631,l),
(598,631,l),
(610,700,l),
(108,700,l),
(96,631,l),
(305,631,l),
(193,0,l)
);
}
);
width = 564;
},
{
anchors = (
{
name = bottom;
pos = (233,0);
},
{
name = center;
pos = (294,350);
},
{
name = top;
pos = (356,700);
}
);
layerId = "2D111E5E-352D-4630-9162-BCEF010D26CF";
shapes = (
{
closed = 1;
nodes = (
(267,0,l),
(380,642,l),
(590,642,l),
(601,700,l),
(111,700,l),
(100,642,l),
(310,642,l),
(197,0,l)
);
}
);
width = 557;
},
{
anchors = (
{
name = bottom;
pos = (205,0);
},
{
name = center;
pos = (266,350);
},
{
name = top;
pos = (328,700);
}
);
layerId = "EB62C368-BB48-47C0-A466-DA94204A0DE4";
shapes = (
{
closed = 1;
nodes = (
(214,0,l),
(335,682,l),
(548,682,l),
(551,700,l),
(105,700,l),
(102,682,l),
(315,682,l),
(194,0,l)
);
}
);
width = 502;
},
{
anchors = (
{
name = bottom;
pos = (268,0);
},
{
name = center;
pos = (330,350);
},
{
name = top;
pos = (392,700);
}
);
layerId = "66953C5E-8AEB-4AF5-804F-512B0A9BA4E6";
shapes = (
{
closed = 1;
nodes = (
(353,0,l),
(453,566,l),
(655,566,l),
(678,700,l),
(104,700,l),
(80,566,l),
(282,566,l),
(182,0,l)
);
}
);
width = 623;
},
{
anchors = (
{
name = bottom;
pos = (206,0);
},
{
name = center;
pos = (268,350);
},
{
name = top;
pos = (330,700);
}
);
layerId = "90D50F69-F6F7-4633-9462-ED0440D3064F";
shapes = (
{
closed = 1;
nodes = (
(217,0,l),
(338,682,l),
(551,682,l),
(554,700,l),
(108,700,l),
(105,682,l),
(318,682,l),
(197,0,l)
);
}
);
width = 502;
},
{
anchors = (
{
name = bottom;
pos = (231,0);
},
{
name = center;
pos = (293,350);
},
{
name = top;
pos = (355,700);
}
);
layerId = "973C19EE-3504-4BDF-BF6D-4817D3AD4E7D";
shapes = (
{
closed = 1;
nodes = (
(266,0,l),
(379,644,l),
(589,644,l),
(599,700,l),
(110,700,l),
(100,644,l),
(309,644,l),
(196,0,l)
);
}
);
width = 549;
},
{
anchors = (
{
name = bottom;
pos = (236,0);
},
{
name = center;
pos = (298,350);
},
{
name = top;
pos = (360,700);
}
);
layerId = "8231B9DE-059C-4C71-A8C4-ABDA89A7D05C";
shapes = (
{
closed = 1;
nodes = (
(278,0,l),
(389,633,l),
(598,633,l),
(610,700,l),
(109,700,l),
(97,633,l),
(305,633,l),
(194,0,l)
);
}
);
width = 559;
}
);
unicode = 84;
userData = {
com.schriftgestaltung.Glyphs.ColorIndex = 4;
com.typesupply.AccentFactory.yCoordinates = {
bottom = {
name = origin;
type = glyphMetric;
};
top = {
name = capHeight;
type = fontInfo;
};
};
};
},
{
glyphname = U;
kernLeft = U;
kernRight = U;
lastChange = "2023-05-19 14:03:36 +0000";
layers = (
{
anchors = (
{
name = bottom;
pos = (290,0);
},
{
name = ogonek;
pos = (414,10);
},
{
name = top;
pos = (414,700);
},
{
name = topright;
pos = (728,700);
}
);
layerId = "A390C1A2-E540-434D-BB9E-4BCEE875BA63";
shapes = (
{
closed = 1;
nodes = (
(446,-12,o),
(599,84,o),
(633,278,cs),
(708,700,l),
(537,700,l),
(462,277,ls),
(447,194,o),
(396,146,o),
(315,146,cs),
(234,146,o),
(201,194,o),
(216,277,cs),
(291,700,l),
(120,700,l),
(45,278,ls),
(11,84,o),
(121,-12,o),
(284,-12,cs)
);
}
);
width = 668;
},
{
anchors = (
{
name = bottom;
pos = (256,0);
},
{
name = ogonek;
pos = (375,10);
},
{
name = top;
pos = (380,700);
},
{
name = topright;
pos = (660,700);
}
);
layerId = "F5F01D5B-AEA3-4AC3-B3D8-92550D1582D7";
shapes = (
{
closed = 1;
nodes = (
(398,-12,o),
(529,72,o),
(562,258,cs),
(640,700,l),
(556,700,l),
(478,257,ls),
(454,121,o),
(373,63,o),
(268,63,cs),
(163,63,o),
(101,115,o),
(125,251,cs),
(204,700,l),
(120,700,l),
(42,258,ls),
(9,72,o),
(109,-12,o),
(253,-12,cs)
);
}
);
width = 600;
},
{
anchors = (
{
name = bottom;
pos = (250,0);
},
{
name = ogonek;
pos = (367,10);
},
{
name = top;
pos = (374,700);
},
{
name = topright;
pos = (648,700);
}
);
layerId = "3B8883BF-F483-4B97-AC7C-CABF8B821093";
shapes = (
{
closed = 1;
nodes = (
(390,-12,o),
(516,70,o),
(549,255,cs),
(628,700,l),
(558,700,l),
(481,263,ls),
(455,118,o),
(369,50,o),
(260,50,cs),
(149,50,o),
(83,109,o),
(109,254,cs),
(190,700,l),
(120,700,l),
(41,255,ls),
(8,70,o),
(106,-12,o),
(248,-12,cs)
);
}
);
width = 588;
},
{
anchors = (
{
name = bottom;
pos = (230,0);
},
{
name = ogonek;
pos = (343,10);
},
{
name = top;
pos = (354,700);
},
{
name = topright;
pos = (608,700);
}
);
layerId = "5D382461-81E1-4DF2-8677-8A6F02AD5363";
shapes = (
{
closed = 1;
nodes = (
(362,-12,o),
(475,63,o),
(507,243,cs),
(588,700,l),
(568,700,l),
(488,250,ls),
(458,80,o),
(357,7,o),
(233,7,cs),
(111,7,o),
(29,73,o),
(59,243,cs),
(140,700,l),
(120,700,l),
(39,243,ls),
(7,63,o),
(98,-12,o),
(230,-12,cs)
);
}
);
width = 548;
},
{
anchors = (
{
name = bottom;
pos = (261,0);
},
{
name = ogonek;
pos = (396,0);
},
{
name = top;
pos = (431,700);
},
{
name = topright;
pos = (840,700);
}
);
layerId = "1615C59E-33DE-4B88-B2CC-A48C7D56A125";
shapes = (
{
closed = 1;
nodes = (
(463,-12,o),
(616,84,o),
(650,278,cs),
(725,700,l),
(554,700,l),
(479,277,ls),
(464,194,o),
(413,146,o),
(332,146,cs),
(251,146,o),
(218,194,o),
(233,277,cs),
(308,700,l),
(137,700,l),
(62,278,ls),
(28,84,o),
(138,-12,o),
(301,-12,cs)
);
}
);
width = 706;
},
{
anchors = (
{
name = bottom;
pos = (295,0);
},
{
name = ogonek;
pos = (398,10);
},
{
name = top;
pos = (418,700);
},
{
name = topright;
pos = (725,700);
}
);
layerId = "A6F5E7A4-47EF-4F55-BF18-0ACACB57A720";
shapes = (
{
closed = 1;
nodes = (
(422,-12,o),
(553,72,o),
(586,258,cs),
(664,700,l),
(580,700,l),
(502,257,ls),
(478,121,o),
(397,63,o),
(292,63,cs),
(187,63,o),
(126,121,o),
(150,257,cs),
(228,700,l),
(144,700,l),
(66,258,ls),
(33,72,o),
(133,-12,o),
(277,-12,cs)
);
}
);
width = 654;
},
{
anchors = (
{
name = bottom;
pos = (278,0);
},
{
name = ogonek;
pos = (395,10);
},
{
name = top;
pos = (401,700);
},
{
name = topright;
pos = (705,700);
}
);
layerId = "2D111E5E-352D-4630-9162-BCEF010D26CF";
shapes = (
{
closed = 1;
nodes = (
(417,-12,o),
(544,70,o),
(577,255,cs),
(656,700,l),
(586,700,l),
(507,255,ls),
(481,111,o),
(397,51,o),
(288,51,cs),
(179,51,o),
(112,111,o),
(138,255,cs),
(217,700,l),
(147,700,l),
(68,255,ls),
(35,70,o),
(134,-12,o),
(275,-12,cs)
);
}
);
width = 648;
},
{
anchors = (
{
name = bottom;
pos = (261,0);
},
{
name = ogonek;
pos = (373,10);
},
{
name = top;
pos = (384,700);
},
{
name = topright;
pos = (671,700);
}
);
layerId = "EB62C368-BB48-47C0-A466-DA94204A0DE4";
shapes = (
{
closed = 1;
nodes = (
(392,-12,o),
(505,63,o),
(537,243,cs),
(618,700,l),
(598,700,l),
(518,246,ls),
(490,87,o),
(387,8,o),
(263,8,cs),
(141,8,o),
(59,70,o),
(89,240,cs),
(170,700,l),
(150,700,l),
(69,243,ls),
(37,63,o),
(128,-12,o),
(260,-12,cs)
);
}
);
width = 614;
},
{
anchors = (
{
name = bottom;
pos = (316,0);
},
{
name = ogonek;
pos = (437,10);
},
{
name = top;
pos = (440,700);
},
{
name = topright;
pos = (772,700);
}
);
layerId = "66953C5E-8AEB-4AF5-804F-512B0A9BA4E6";
shapes = (
{
closed = 1;
nodes = (
(470,-12,o),
(618,81,o),
(653,278,cs),
(727,700,l),
(556,700,l),
(482,278,ls),
(467,195,o),
(416,147,o),
(335,147,cs),
(250,147,o),
(221,195,o),
(236,278,cs),
(310,700,l),
(139,700,l),
(66,278,ls),
(35,98,o),
(127,-12,o),
(305,-12,cs)
);
}
);
width = 706;
},
{
anchors = (
{
name = bottom;
pos = (280,0);
},
{
name = ogonek;
pos = (375,10);
},
{
name = top;
pos = (404,700);
},
{
name = topright;
pos = (688,700);
}
);
layerId = "90D50F69-F6F7-4633-9462-ED0440D3064F";
shapes = (
{
closed = 1;
nodes = (
(395,-12,o),
(508,63,o),
(540,243,cs),
(621,700,l),
(601,700,l),
(521,246,ls),
(491,76,o),
(390,8,o),
(266,8,cs),
(144,8,o),
(63,76,o),
(93,246,cs),
(173,700,l),
(153,700,l),
(72,243,ls),
(40,63,o),
(131,-12,o),
(263,-12,cs)
);
}
);
width = 614;
},
{
anchors = (
{
name = bottom;
pos = (287,0);
},
{
name = ogonek;
pos = (398,10);
},
{
name = top;
pos = (411,700);
},
{
name = topright;
pos = (721,700);
}
);
guides = (
{
angle = 259.925;
pos = (620,480);
}
);
layerId = "973C19EE-3504-4BDF-BF6D-4817D3AD4E7D";
shapes = (
{
closed = 1;
nodes = (
(420,-12,o),
(547,70,o),
(580,255,cs),
(659,700,l),
(589,700,l),
(509,255,ls),
(483,110,o),
(398,51,o),
(290,51,cs),
(164,51,o),
(118,129,o),
(141,255,cs),
(221,700,l),
(151,700,l),
(71,255,ls),
(41,90,o),
(115,-12,o),
(278,-12,cs)
);
}
);
width = 649;
},
{
anchors = (
{
name = bottom;
pos = (291,0);
},
{
name = ogonek;
pos = (401,10);
},
{
name = top;
pos = (415,700);
},
{
name = topright;
pos = (728,700);
}
);
layerId = "8231B9DE-059C-4C71-A8C4-ABDA89A7D05C";
shapes = (
{
closed = 1;
nodes = (
(427,-12,o),
(557,72,o),
(590,258,cs),
(668,700,l),
(584,700,l),
(505,258,ls),
(481,122,o),
(401,64,o),
(296,64,cs),
(177,64,o),
(133,138,o),
(154,258,cs),
(233,700,l),
(149,700,l),
(70,258,ls),
(40,91,o),
(117,-12,o),
(282,-12,cs)
);
}
);
width = 656;
}
);
unicode = 85;
userData = {
com.schriftgestaltung.Glyphs.ColorIndex = 4;
com.typesupply.AccentFactory.yCoordinates = {
bottom = {
name = origin;
type = glyphMetric;
};
top = {
name = capHeight;
type = fontInfo;
};
};
};
},
{
glyphname = V;
kernLeft = V;
kernRight = V;
lastChange = "2023-05-19 14:03:36 +0000";
layers = (
{
anchors = (
{
name = bottom;
pos = (314,0);
},
{
name = top;
pos = (438,700);
}
);
layerId = "A390C1A2-E540-434D-BB9E-4BCEE875BA63";
shapes = (
{
closed = 1;
nodes = (
(457,0,l),
(791,700,l),
(610,700,l),
(334,100,l),
(330,100,l),
(264,700,l),
(85,700,l),
(171,0,l)
);
}
);
width = 716;
},
{
anchors = (
{
name = bottom;
pos = (263,0);
},
{
name = top;
pos = (387,700);
}
);
layerId = "F5F01D5B-AEA3-4AC3-B3D8-92550D1582D7";
shapes = (
{
closed = 1;
nodes = (
(330,0,l),
(689,700,l),
(600,700,l),
(277,62,l),
(273,62,l),
(175,700,l),
(85,700,l),
(200,0,l)
);
}
);
width = 614;
},
{
anchors = (
{
name = bottom;
pos = (266,0);
},
{
name = top;
pos = (390,700);
}
);
layerId = "3B8883BF-F483-4B97-AC7C-CABF8B821093";
shapes = (
{
closed = 1;
nodes = (
(316,0,l),
(695,700,l),
(621,700,l),
(280,62,l),
(276,62,l),
(161,700,l),
(85,700,l),
(216,0,l)
);
}
);
width = 620;
},
{
anchors = (
{
name = bottom;
pos = (252,0);
},
{
name = top;
pos = (376,700);
}
);
layerId = "5D382461-81E1-4DF2-8677-8A6F02AD5363";
shapes = (
{
closed = 1;
nodes = (
(262,0,l),
(666,700,l),
(643,700,l),
(256,30,l),
(252,30,l),
(105,700,l),
(85,700,l),
(239,0,l)
);
}
);
width = 591;
},
{
anchors = (
{
name = bottom;
pos = (276,0);
},
{
name = top;
pos = (523,700);
}
);
layerId = "1615C59E-33DE-4B88-B2CC-A48C7D56A125";
shapes = (
{
closed = 1;
nodes = (
(429,0,l),
(802,700,l),
(621,700,l),
(353,172,l),
(353,172,l),
(272,700,l),
(90,700,l),
(215,0,l)
);
}
);
width = 738;
},
{
anchors = (
{
name = bottom;
pos = (304,0);
},
{
name = top;
pos = (427,700);
}
);
layerId = "A6F5E7A4-47EF-4F55-BF18-0ACACB57A720";
shapes = (
{
closed = 1;
nodes = (
(337,0,l),
(724,700,l),
(635,700,l),
(304,89,l),
(304,89,l),
(191,700,l),
(100,700,l),
(239,0,l)
);
}
);
width = 670;
},
{
anchors = (
{
name = bottom;
pos = (288,0);
},
{
name = top;
pos = (411,700);
}
);
layerId = "2D111E5E-352D-4630-9162-BCEF010D26CF";
shapes = (
{
closed = 1;
nodes = (
(327,0,l),
(718,700,l),
(644,700,l),
(301,75,l),
(301,75,l),
(180,700,l),
(104,700,l),
(246,0,l)
);
}
);
width = 668;
},
{
anchors = (
{
name = bottom;
pos = (271,0);
},
{
name = top;
pos = (394,700);
}
);
layerId = "EB62C368-BB48-47C0-A466-DA94204A0DE4";
shapes = (
{
closed = 1;
nodes = (
(280,0,l),
(684,700,l),
(660,700,l),
(271,24,l),
(271,24,l),
(123,700,l),
(103,700,l),
(257,0,l)
);
}
);
width = 633;
},
{
anchors = (
{
name = bottom;
pos = (321,0);
},
{
name = top;
pos = (445,700);
}
);
layerId = "66953C5E-8AEB-4AF5-804F-512B0A9BA4E6";
shapes = (
{
closed = 1;
nodes = (
(428,0,l),
(800,700,l),
(618,700,l),
(352,172,l),
(352,172,l),
(271,700,l),
(89,700,l),
(214,0,l)
);
}
);
width = 729;
},
{
anchors = (
{
name = bottom;
pos = (291,0);
},
{
name = top;
pos = (415,700);
}
);
layerId = "90D50F69-F6F7-4633-9462-ED0440D3064F";
shapes = (
{
closed = 1;
nodes = (
(283,0,l),
(687,700,l),
(664,700,l),
(277,27,l),
(277,27,l),
(129,700,l),
(106,700,l),
(260,0,l)
);
}
);
width = 633;
},
{
anchors = (
{
name = bottom;
pos = (286,0);
},
{
name = top;
pos = (410,700);
}
);
layerId = "973C19EE-3504-4BDF-BF6D-4817D3AD4E7D";
shapes = (
{
closed = 1;
nodes = (
(325,0,l),
(715,700,l),
(639,700,l),
(299,79,l),
(299,79,l),
(180,700,l),
(104,700,l),
(245,0,l)
);
}
);
width = 659;
},
{
anchors = (
{
name = bottom;
pos = (291,0);
},
{
name = top;
pos = (415,700);
}
);
layerId = "8231B9DE-059C-4C71-A8C4-ABDA89A7D05C";
shapes = (
{
closed = 1;
nodes = (
(339,0,l),
(727,700,l),
(636,700,l),
(306,92,l),
(306,92,l),
(193,700,l),
(102,700,l),
(241,0,l)
);
}
);
width = 669;
}
);
unicode = 86;
userData = {
com.schriftgestaltung.Glyphs.ColorIndex = 4;
com.typesupply.AccentFactory.yCoordinates = {
bottom = {
name = origin;
type = glyphMetric;
};
top = {
name = capHeight;
type = fontInfo;
};
};
};
},
{
glyphname = W;
kernLeft = W;
kernRight = W;
lastChange = "2023-05-19 14:03:36 +0000";
layers = (
{
anchors = (
{
name = bottom;
pos = (463,0);
},
{
name = top;
pos = (587,700);
}
);
guides = (
{
pos = (308,201);
},
{
pos = (308,171);
}
);
layerId = "A390C1A2-E540-434D-BB9E-4BCEE875BA63";
shapes = (
{
closed = 1;
nodes = (
(360,0,l),
(558,555,l),
(562,555,l),
(571,0,l),
(821,0,l),
(1088,700,l),
(904,700,l),
(713,119,l),
(709,119,l),
(699,700,l),
(480,700,l),
(267,119,l),
(262,119,l),
(268,700,l),
(85,700,l),
(109,0,l)
);
}
);
width = 1013;
},
{
anchors = (
{
name = bottom;
pos = (440,0);
},
{
name = top;
pos = (564,700);
}
);
layerId = "F5F01D5B-AEA3-4AC3-B3D8-92550D1582D7";
shapes = (
{
closed = 1;
nodes = (
(272,0,l),
(533,552,l),
(537,552,l),
(604,0,l),
(734,0,l),
(1042,700,l),
(956,700,l),
(684,62,l),
(680,62,l),
(605,700,l),
(519,700,l),
(222,62,l),
(218,62,l),
(171,700,l),
(85,700,l),
(142,0,l)
);
}
);
width = 967;
},
{
anchors = (
{
name = bottom;
pos = (412,0);
},
{
name = top;
pos = (536,700);
}
);
guides = (
{
pos = (252,80);
}
);
layerId = "3B8883BF-F483-4B97-AC7C-CABF8B821093";
shapes = (
{
closed = 1;
nodes = (
(231,0,l),
(523,636,l),
(527,636,l),
(597,0,l),
(675,0,l),
(987,700,l),
(912,700,l),
(656,80,l),
(652,80,l),
(587,700,l),
(489,700,l),
(206,80,l),
(202,80,l),
(160,700,l),
(85,700,l),
(145,0,l)
);
}
);
width = 912;
},
{
anchors = (
{
name = bottom;
pos = (385,0);
},
{
name = top;
pos = (509,700);
}
);
layerId = "5D382461-81E1-4DF2-8677-8A6F02AD5363";
shapes = (
{
closed = 1;
nodes = (
(182,-1,l),
(502,668,l),
(506,668,l),
(587,0,l),
(615,0,l),
(932,700,l),
(910,700,l),
(607,30,l),
(603,30,l),
(523,700,l),
(496,700,l),
(175,30,l),
(171,30,l),
(105,700,l),
(85,700,l),
(155,0,l)
);
}
);
width = 857;
},
{
anchors = (
{
name = bottom;
pos = (483,0);
},
{
name = top;
pos = (607,700);
}
);
layerId = "1615C59E-33DE-4B88-B2CC-A48C7D56A125";
shapes = (
{
closed = 1;
nodes = (
(367,0,l),
(565,461,l),
(565,461,l),
(595,0,l),
(802,0,l),
(1109,700,l),
(925,700,l),
(733,191,l),
(733,191,l),
(703,700,l),
(515,700,l),
(300,190,l),
(300,190,l),
(289,700,l),
(106,700,l),
(160,0,l)
);
}
);
width = 1061;
},
{
anchors = (
{
name = bottom;
pos = (454,0);
},
{
name = top;
pos = (577,700);
}
);
layerId = "A6F5E7A4-47EF-4F55-BF18-0ACACB57A720";
shapes = (
{
closed = 1;
nodes = (
(267,0,l),
(540,579,l),
(540,579,l),
(605,0,l),
(701,0,l),
(1021,700,l),
(931,700,l),
(672,98,l),
(672,98,l),
(611,700,l),
(517,700,l),
(240,100,l),
(240,100,l),
(195,700,l),
(105,700,l),
(173,0,l)
);
}
);
width = 970;
},
{
anchors = (
{
name = bottom;
pos = (435,0);
},
{
name = top;
pos = (558,700);
}
);
layerId = "2D111E5E-352D-4630-9162-BCEF010D26CF";
shapes = (
{
closed = 1;
nodes = (
(255,0,l),
(539,599,l),
(539,599,l),
(608,0,l),
(689,0,l),
(1009,700,l),
(933,700,l),
(664,83,l),
(664,83,l),
(599,700,l),
(520,700,l),
(232,85,l),
(232,85,l),
(183,700,l),
(108,700,l),
(176,0,l)
);
}
);
width = 961;
},
{
anchors = (
{
name = bottom;
pos = (404,0);
},
{
name = top;
pos = (527,700);
}
);
layerId = "EB62C368-BB48-47C0-A466-DA94204A0DE4";
shapes = (
{
closed = 1;
nodes = (
(199,0,l),
(523,671,l),
(523,671,l),
(607,0,l),
(631,0,l),
(950,700,l),
(929,700,l),
(623,28,l),
(623,28,l),
(539,700,l),
(514,700,l),
(191,28,l),
(191,28,l),
(125,700,l),
(104,700,l),
(174,0,l)
);
}
);
width = 900;
},
{
anchors = (
{
name = bottom;
pos = (487,0);
},
{
name = top;
pos = (611,700);
}
);
layerId = "66953C5E-8AEB-4AF5-804F-512B0A9BA4E6";
shapes = (
{
closed = 1;
nodes = (
(364,0,l),
(561,461,l),
(561,461,l),
(592,0,l),
(799,0,l),
(1105,700,l),
(921,700,l),
(731,194,l),
(731,194,l),
(701,700,l),
(511,700,l),
(297,191,l),
(297,191,l),
(286,700,l),
(104,700,l),
(157,0,l)
);
}
);
width = 1049;
},
{
anchors = (
{
name = bottom;
pos = (407,0);
},
{
name = top;
pos = (531,700);
}
);
layerId = "90D50F69-F6F7-4633-9462-ED0440D3064F";
shapes = (
{
closed = 1;
nodes = (
(202,0,l),
(527,670,l),
(527,670,l),
(609,0,l),
(635,0,l),
(954,700,l),
(932,700,l),
(627,30,l),
(627,30,l),
(544,700,l),
(518,700,l),
(194,30,l),
(194,30,l),
(127,700,l),
(107,700,l),
(177,0,l)
);
}
);
width = 901;
},
{
anchors = (
{
name = bottom;
pos = (440,0);
},
{
name = top;
pos = (564,700);
}
);
layerId = "973C19EE-3504-4BDF-BF6D-4817D3AD4E7D";
shapes = (
{
closed = 1;
nodes = (
(253,0,l),
(538,594,l),
(538,594,l),
(608,0,l),
(686,0,l),
(1009,700,l),
(932,700,l),
(664,88,l),
(664,88,l),
(599,700,l),
(520,700,l),
(233,90,l),
(233,90,l),
(182,700,l),
(106,700,l),
(176,-1,l)
);
}
);
width = 955;
},
{
anchors = (
{
name = bottom;
pos = (447,0);
},
{
name = top;
pos = (571,700);
}
);
layerId = "8231B9DE-059C-4C71-A8C4-ABDA89A7D05C";
shapes = (
{
closed = 1;
nodes = (
(269,0,l),
(541,576,l),
(541,576,l),
(606,0,l),
(702,0,l),
(1022,700,l),
(931,700,l),
(673,103,l),
(673,103,l),
(613,700,l),
(519,700,l),
(242,104,l),
(242,104,l),
(197,700,l),
(106,700,l),
(174,-1,l)
);
}
);
width = 967;
}
);
unicode = 87;
userData = {
com.schriftgestaltung.Glyphs.ColorIndex = 4;
com.typemytype.robofont.layerData = {
b = {
anchors = (
);
components = (
);
contours = (
{
points = (
{
segmentType = line;
smooth = 0;
x = 229;
y = -2;
},
{
segmentType = line;
smooth = 0;
x = 245;
y = 0;
},
{
segmentType = line;
smooth = 0;
x = 473;
y = 727;
},
{
segmentType = line;
smooth = 0;
x = 435;
y = 727;
},
{
segmentType = line;
smooth = 0;
x = 638;
y = 0;
},
{
segmentType = line;
smooth = 0;
x = 654;
y = 0;
},
{
segmentType = line;
smooth = 0;
x = 877;
y = 684;
},
{
segmentType = line;
smooth = 0;
x = 860;
y = 684;
},
{
segmentType = line;
smooth = 0;
x = 636;
y = 7;
},
{
segmentType = line;
smooth = 0;
x = 650;
y = 5;
},
{
segmentType = line;
smooth = 0;
x = 459;
y = 684;
},
{
segmentType = line;
smooth = 0;
x = 442;
y = 684;
},
{
segmentType = line;
smooth = 0;
x = 230;
y = 10;
},
{
segmentType = line;
smooth = 0;
x = 239;
y = 10;
},
{
segmentType = line;
smooth = 0;
x = 54;
y = 684;
},
{
segmentType = line;
smooth = 0;
x = 36;
y = 684;
}
);
}
);
lib = {
};
name = W;
unicodes = (
);
width = 904;
};
};
com.typesupply.AccentFactory.yCoordinates = {
bottom = {
name = origin;
type = glyphMetric;
};
top = {
name = capHeight;
type = fontInfo;
};
};
};
},
{
glyphname = X;
lastChange = "2023-05-19 14:03:36 +0000";
layers = (
{
anchors = (
{
name = bottom;
pos = (295,0);
},
{
name = top;
pos = (419,700);
}
);
layerId = "A390C1A2-E540-434D-BB9E-4BCEE875BA63";
shapes = (
{
closed = 1;
nodes = (
(160,0,l),
(322,211,l),
(326,211,l),
(429,0,l),
(628,0,l),
(458,348,l),
(743,700,l),
(549,700,l),
(389,494,l),
(385,494,l),
(284,700,l),
(85,700,l),
(254,356,l),
(-34,0,l)
);
}
);
width = 677;
},
{
anchors = (
{
name = bottom;
pos = (224,0);
},
{
name = top;
pos = (348,700);
}
);
layerId = "F5F01D5B-AEA3-4AC3-B3D8-92550D1582D7";
shapes = (
{
closed = 1;
nodes = (
(56,0,l),
(271,288,l),
(275,288,l),
(397,0,l),
(487,0,l),
(334,350,l),
(610,700,l),
(516,700,l),
(301,413,l),
(297,413,l),
(178,699,l),
(85,700,l),
(238,353,l),
(-39,0,l)
);
}
);
width = 536;
},
{
anchors = (
{
name = bottom;
pos = (213,0);
},
{
name = top;
pos = (337,700);
}
);
layerId = "3B8883BF-F483-4B97-AC7C-CABF8B821093";
shapes = (
{
closed = 1;
nodes = (
(39,0,l),
(257,288,l),
(261,288,l),
(386,0,l),
(464,0,l),
(314,349,l),
(589,700,l),
(511,700,l),
(291,413,l),
(287,413,l),
(163,700,l),
(85,700,l),
(234,352,l),
(-39,0,l)
);
}
);
width = 514;
},
{
anchors = (
{
name = bottom;
pos = (176,0);
},
{
name = top;
pos = (300,700);
}
);
layerId = "5D382461-81E1-4DF2-8677-8A6F02AD5363";
shapes = (
{
closed = 1;
nodes = (
(-16,0,l),
(234,331,l),
(238,331,l),
(369,0,l),
(391,0,l),
(252,349,l),
(516,700,l),
(492,700,l),
(244,369,l),
(240,369,l),
(109,700,l),
(89,700,l),
(226,351,l),
(-39,0,l)
);
}
);
width = 441;
},
{
anchors = (
{
name = bottom;
pos = (269,0);
},
{
name = top;
pos = (516,700);
}
);
layerId = "1615C59E-33DE-4B88-B2CC-A48C7D56A125";
shapes = (
{
closed = 1;
nodes = (
(180,0,l),
(344,215,l),
(344,215,l),
(449,0,l),
(648,0,l),
(478,348,l),
(763,700,l),
(569,700,l),
(408,489,l),
(408,489,l),
(304,700,l),
(105,700,l),
(274,356,l),
(-14,0,l)
);
}
);
width = 722;
},
{
anchors = (
{
name = bottom;
pos = (272,0);
},
{
name = top;
pos = (395,700);
}
);
layerId = "A6F5E7A4-47EF-4F55-BF18-0ACACB57A720";
shapes = (
{
closed = 1;
nodes = (
(88,0,l),
(309,282,l),
(309,282,l),
(424,0,l),
(519,0,l),
(370,350,l),
(642,700,l),
(548,700,l),
(335,421,l),
(335,421,l),
(212,700,l),
(117,700,l),
(270,353,l),
(-7,0,l)
);
}
);
width = 604;
},
{
anchors = (
{
name = bottom;
pos = (250,0);
},
{
name = top;
pos = (373,700);
}
);
layerId = "2D111E5E-352D-4630-9162-BCEF010D26CF";
shapes = (
{
closed = 1;
nodes = (
(75,0,l),
(297,294,l),
(297,294,l),
(422,0,l),
(501,0,l),
(352,350,l),
(625,700,l),
(546,700,l),
(324,409,l),
(324,409,l),
(200,700,l),
(121,700,l),
(270,352,l),
(-4,0,l)
);
}
);
width = 591;
},
{
anchors = (
{
name = bottom;
pos = (211,0);
},
{
name = top;
pos = (334,700);
}
);
layerId = "EB62C368-BB48-47C0-A466-DA94204A0DE4";
shapes = (
{
closed = 1;
nodes = (
(20,0,l),
(273,335,l),
(273,335,l),
(404,0,l),
(426,0,l),
(288,349,l),
(550,700,l),
(528,700,l),
(275,364,l),
(275,364,l),
(143,700,l),
(122,700,l),
(259,349,l),
(-4,0,l)
);
}
);
width = 514;
},
{
anchors = (
{
name = bottom;
pos = (320,0);
},
{
name = top;
pos = (444,700);
}
);
layerId = "66953C5E-8AEB-4AF5-804F-512B0A9BA4E6";
shapes = (
{
closed = 1;
nodes = (
(178,0,l),
(342,215,l),
(342,215,l),
(447,0,l),
(646,0,l),
(475,348,l),
(759,700,l),
(565,700,l),
(406,490,l),
(406,490,l),
(303,700,l),
(104,700,l),
(272,357,l),
(-16,0,l)
);
}
);
width = 714;
},
{
anchors = (
{
name = bottom;
pos = (231,0);
},
{
name = top;
pos = (355,700);
}
);
layerId = "90D50F69-F6F7-4633-9462-ED0440D3064F";
shapes = (
{
closed = 1;
nodes = (
(20,0,l),
(273,332,l),
(273,332,l),
(406,0,l),
(428,0,l),
(290,349,l),
(552,700,l),
(530,700,l),
(279,367,l),
(279,367,l),
(146,700,l),
(124,700,l),
(262,349,l),
(-2,0,l)
);
}
);
width = 513;
},
{
anchors = (
{
name = bottom;
pos = (261,0);
},
{
name = top;
pos = (385,700);
}
);
layerId = "973C19EE-3504-4BDF-BF6D-4817D3AD4E7D";
shapes = (
{
closed = 1;
nodes = (
(76,0,l),
(296,292,l),
(296,292,l),
(422,0,l),
(501,0,l),
(350,349,l),
(627,700,l),
(547,700,l),
(325,409,l),
(325,409,l),
(199,700,l),
(120,700,l),
(270,351,l),
(-2,0,l)
);
}
);
width = 587;
},
{
anchors = (
{
name = bottom;
pos = (269,0);
},
{
name = top;
pos = (393,700);
}
);
layerId = "8231B9DE-059C-4C71-A8C4-ABDA89A7D05C";
shapes = (
{
closed = 1;
nodes = (
(91,0,l),
(303,280,l),
(303,280,l),
(426,0,l),
(522,0,l),
(368,349,l),
(646,700,l),
(550,700,l),
(337,420,l),
(337,420,l),
(214,700,l),
(118,700,l),
(271,352,l),
(-3,0,l)
);
}
);
width = 604;
}
);
unicode = 88;
userData = {
com.schriftgestaltung.Glyphs.ColorIndex = 4;
com.typemytype.robofont.guides = (
{
angle = 90;
isGlobal = 0;
magnetic = 5;
x = 50;
y = 16;
},
{
angle = 90;
isGlobal = 0;
magnetic = 5;
x = 490;
y = 36;
},
{
angle = 0;
isGlobal = 0;
magnetic = 5;
x = 511;
y = 352;
}
);
com.typesupply.AccentFactory.yCoordinates = {
bottom = {
name = origin;
type = glyphMetric;
};
top = {
name = capHeight;
type = fontInfo;
};
};
};
},
{
glyphname = Y;
kernLeft = Y;
kernRight = Y;
lastChange = "2023-05-19 14:03:36 +0000";
layers = (
{
anchors = (
{
name = bottom;
pos = (289,0);
},
{
name = top;
pos = (413,700);
},
{
name = topleft;
pos = (100,700);
}
);
layerId = "A390C1A2-E540-434D-BB9E-4BCEE875BA63";
shapes = (
{
closed = 1;
nodes = (
(374,0,l),
(415,232,l),
(740,700,l),
(548,700,l),
(362,397,l),
(358,397,l),
(279,700,l),
(85,700,l),
(244,232,l),
(203,0,l)
);
}
);
width = 665;
},
{
anchors = (
{
name = bottom;
pos = (231,0);
},
{
name = top;
pos = (355,700);
},
{
name = topleft;
pos = (100,700);
}
);
layerId = "F5F01D5B-AEA3-4AC3-B3D8-92550D1582D7";
shapes = (
{
closed = 1;
nodes = (
(273,0,l),
(318,252,l),
(624,700,l),
(533,700,l),
(291,338,l),
(287,338,l),
(176,699,l),
(85,700,l),
(234,252,l),
(189,0,l)
);
}
);
width = 549;
},
{
anchors = (
{
name = bottom;
pos = (221,0);
},
{
name = top;
pos = (345,700);
},
{
name = topleft;
pos = (100,700);
}
);
layerId = "3B8883BF-F483-4B97-AC7C-CABF8B821093";
shapes = (
{
closed = 1;
nodes = (
(257,0,l),
(305,272,l),
(605,700,l),
(527,700,l),
(284,340,l),
(280,340,l),
(164,700,l),
(85,700,l),
(235,272,l),
(187,0,l)
);
}
);
width = 530;
},
{
anchors = (
{
name = bottom;
pos = (188,0);
},
{
name = top;
pos = (312,700);
},
{
name = topleft;
pos = (100,700);
}
);
layerId = "5D382461-81E1-4DF2-8677-8A6F02AD5363";
shapes = (
{
closed = 1;
nodes = (
(199,0,l),
(254,312,l),
(538,700,l),
(514,700,l),
(250,339,l),
(246,339,l),
(106,700,l),
(85,700,l),
(234,312,l),
(179,0,l)
);
}
);
width = 463;
},
{
anchors = (
{
name = bottom;
pos = (248,0);
},
{
name = top;
pos = (418,700);
},
{
name = topleft;
pos = (174,700);
}
);
layerId = "1615C59E-33DE-4B88-B2CC-A48C7D56A125";
shapes = (
{
closed = 1;
nodes = (
(379,0,l),
(420,232,l),
(745,700,l),
(553,700,l),
(367,408,l),
(367,408,l),
(284,700,l),
(90,700,l),
(249,232,l),
(208,0,l)
);
}
);
width = 681;
},
{
anchors = (
{
name = bottom;
pos = (260,0);
},
{
name = top;
pos = (383,700);
},
{
name = topleft;
pos = (112,700);
}
);
layerId = "A6F5E7A4-47EF-4F55-BF18-0ACACB57A720";
shapes = (
{
closed = 1;
nodes = (
(286,0,l),
(333,266,l),
(637,700,l),
(540,700,l),
(302,346,l),
(302,346,l),
(190,700,l),
(98,700,l),
(249,266,l),
(202,0,l)
);
}
);
width = 581;
},
{
anchors = (
{
name = bottom;
pos = (240,0);
},
{
name = top;
pos = (363,700);
},
{
name = topleft;
pos = (97,700);
}
);
layerId = "2D111E5E-352D-4630-9162-BCEF010D26CF";
shapes = (
{
closed = 1;
nodes = (
(275,0,l),
(324,276,l),
(622,700,l),
(544,700,l),
(301,343,l),
(301,343,l),
(182,700,l),
(103,700,l),
(254,276,l),
(205,0,l)
);
}
);
width = 571;
},
{
anchors = (
{
name = bottom;
pos = (205,0);
},
{
name = top;
pos = (328,700);
},
{
name = topleft;
pos = (97,700);
}
);
layerId = "EB62C368-BB48-47C0-A466-DA94204A0DE4";
shapes = (
{
closed = 1;
nodes = (
(216,0,l),
(271,312,l),
(553,700,l),
(530,700,l),
(264,332,l),
(264,332,l),
(123,700,l),
(102,700,l),
(251,312,l),
(196,0,l)
);
}
);
width = 501;
},
{
anchors = (
{
name = bottom;
pos = (300,0);
},
{
name = top;
pos = (424,700);
},
{
name = topleft;
pos = (108,700);
}
);
layerId = "66953C5E-8AEB-4AF5-804F-512B0A9BA4E6";
shapes = (
{
closed = 1;
nodes = (
(378,0,l),
(420,232,l),
(744,700,l),
(551,700,l),
(342,372,l),
(378,367,l),
(283,700,l),
(88,700,l),
(249,232,l),
(207,0,l)
);
}
);
width = 672;
},
{
anchors = (
{
name = bottom;
pos = (226,0);
},
{
name = top;
pos = (350,700);
},
{
name = topleft;
pos = (121,700);
}
);
layerId = "90D50F69-F6F7-4633-9462-ED0440D3064F";
shapes = (
{
closed = 1;
nodes = (
(219,0,l),
(274,312,l),
(558,700,l),
(532,700,l),
(269,335,l),
(269,335,l),
(127,700,l),
(105,700,l),
(254,312,l),
(199,0,l)
);
}
);
width = 503;
},
{
anchors = (
{
name = bottom;
pos = (245,0);
},
{
name = top;
pos = (369,700);
},
{
name = topleft;
pos = (107,700);
}
);
layerId = "973C19EE-3504-4BDF-BF6D-4817D3AD4E7D";
shapes = (
{
closed = 1;
nodes = (
(275,0,l),
(323,272,l),
(624,700,l),
(545,700,l),
(299,336,l),
(299,336,l),
(182,700,l),
(102,700,l),
(253,272,l),
(205,0,l)
);
}
);
width = 566;
},
{
anchors = (
{
name = bottom;
pos = (253,0);
},
{
name = top;
pos = (377,700);
},
{
name = topleft;
pos = (107,700);
}
);
layerId = "8231B9DE-059C-4C71-A8C4-ABDA89A7D05C";
shapes = (
{
closed = 1;
nodes = (
(289,0,l),
(336,266,l),
(640,700,l),
(546,700,l),
(308,346,l),
(308,346,l),
(196,700,l),
(100,700,l),
(252,266,l),
(205,0,l)
);
}
);
width = 580;
}
);
unicode = 89;
userData = {
com.schriftgestaltung.Glyphs.ColorIndex = 4;
com.typesupply.AccentFactory.yCoordinates = {
bottom = {
name = origin;
type = glyphMetric;
};
top = {
name = capHeight;
type = fontInfo;
};
};
};
},
